SplineFontDB: 3.0
FontName: ALMFixedTerminal
FullName: ALM Fixed Terminal
FamilyName: ALM Fixed Terminal
Weight: Normal
Copyright: 'ALM' stands for 'Arabic-Latin Modern'. 
Version: 001.001
ItalicAngle: 0
UnderlinePosition: -99
UnderlineWidth: 69
Ascent: 750
Descent: 250
sfntRevision: 0x00010000
LayerCount: 2
Layer: 0 0 "Back"  1
Layer: 1 0 "Fore"  0
XUID: [1021 828 32681920 14282292]
FSType: 8
OS2_WeightWidthSlopeOnly: 0
OS2_UseTypoMetrics: 1
CreationTime: 1453226700
ModificationTime: 1453226700
PfmFamily: 17
TTFWeight: 400
TTFWidth: 5
LineGap: 0
VLineGap: 0
Panose: 2 0 5 0 0 0 0 0 0 0
OS2TypoAscent: 750
OS2TypoAOffset: 0
OS2TypoDescent: -250
OS2TypoDOffset: 0
OS2TypoLinegap: 0
OS2WinAscent: 975
OS2WinAOffset: 0
OS2WinDescent: 565
OS2WinDOffset: 0
HheadAscent: 750
HheadAOffset: 0
HheadDescent: -250
HheadDOffset: 0
OS2SubXSize: 650
OS2SubYSize: 600
OS2SubXOff: 0
OS2SubYOff: 75
OS2SupXSize: 650
OS2SupYSize: 600
OS2SupXOff: 0
OS2SupYOff: 350
OS2StrikeYSize: 69
OS2StrikeYPos: 250
OS2Vendor: 'UKWN'
OS2CodePages: 200001d3.00000000
OS2UnicodeRanges: a000200f.80000000.00000008.00000000
MarkAttachClasses: 1
DEI: 91125
LangName: 1033 "Copyright 2014 Idris Samawi Hamid (Arabic-Latin Modern Fixed Regular). Derived from Copyright 2003, 2009 B. Jackowski and J. M. Nowacki (Latin Modern Mono Regular 10). Derived from Copyright Donald Knuth 1990 (Computer Modern Mono 10)." "" "" "FontForge : ALM Fixed Terminal : 19-1-2016" "" "" "" "Please refer to the Copyright section for the font trademark attribution notices." "Idris Samawi Hamid" "Idris Samawi Hamid" "'ALM' stands for 'Arabic-Latin Modern'. " "" "http://walayah.org/project/typography" "Arabic-Latin Modern Fixed is licensed under the GUST Font License with one important adjustment: It is requested, AS WELL AS LEGALLY REQUIRED, that derived works be distributed only after changing the names of the fonts comprising this work." "http://www.gust.org.pl/projects/e-foundry/licenses/GUST-FONT-LICENSE.txt/view" 
Encoding: UnicodeBmp

StartChar: exclam
Encoding: 33 33 2
Width: 525
GlyphClass: 2
Flags: MW
HStem: 0 100<248 276> 100 84<255.5 276> 602 20G<257.5 266.5>
VStem: 215 90
LayerCount: 2
Fore
SplineSet
312 565 m 0x70
 312 512 308 457 307 405 c 2
 303 232 l 1
 301 192 298 184 262 184 c 0
 249 184 223 184 222 210 c 2
 219 331 l 1
 212 565 l 1
 212 618 253 622 262 622 c 0
 271 622 312 618 312 565 c 0x70
312 50 m 0
 312 22 290 0 262 0 c 0xb0
 234 0 212 22 212 50 c 0
 212 78 234 100 262 100 c 0
 290 100 312 78 312 50 c 0
EndSplineSet
EndChar

StartChar: quotedbl
Encoding: 34 34 3
Width: 525
GlyphClass: 2
Flags: MW
HStem: 328 21G<160 186.5 337 363.5> 602 20G<164.5 180.5 341.5 357.5>
VStem: 135 76 312 76
LayerCount: 2
Fore
SplineSet
395 567 m 2
 382 363 l 2
 381 346 376 328 351 328 c 0
 323 328 320 349 319 364 c 2
 306 567 l 2
 303 611 332 622 351 622 c 0
 364 622 398 614 395 567 c 2
218 567 m 2
 205 363 l 2
 204 346 199 328 174 328 c 0
 146 328 143 349 142 364 c 2
 129 567 l 2
 126 611 155 622 174 622 c 0
 187 622 221 614 218 567 c 2
EndSplineSet
EndChar

StartChar: numbersign
Encoding: 35 35 4
Width: 525
GlyphClass: 2
Flags: MW
HStem: 0 233<129.5 131 82 155.5 303.5 305 82 329.5> 163 70<76 131 82 121 202 295 82 192 376 442> 379 70<76 159 82 149 82 220 230 323 404 442> 379 232<76 217.5 82 217.5 194.5 220 194.5 323 194.5 394 194.5 442>
LayerCount: 2
Fore
SplineSet
489 198 m 0xa0
 489 163 454 163 442 163 c 2
 366 163 l 1x60
 350 41 l 2
 348 29 345 0 314 0 c 0xa0
 293 0 279 17 279 35 c 1
 279 35 279 40 295 163 c 1
 192 163 l 1x60
 176 41 l 2
 174 29 171 0 140 0 c 0xa0
 119 0 105 17 105 35 c 1
 105 35 105 40 121 163 c 1
 82 163 l 2x60
 70 163 35 163 35 198 c 0
 35 233 70 233 82 233 c 2
 131 233 l 1
 149 379 l 1
 82 379 l 2
 70 379 35 379 35 414 c 0
 35 449 70 449 82 449 c 2
 159 449 l 1xa0
 174 570 l 2
 175 582 179 611 210 611 c 0x90
 225 611 249 601 244 564 c 2
 230 449 l 1
 333 449 l 1xa0
 348 570 l 2
 349 582 353 611 384 611 c 0x90
 399 611 423 601 418 564 c 2
 404 449 l 1
 442 449 l 2
 454 449 489 449 489 414 c 0
 489 379 454 379 442 379 c 2
 394 379 l 1
 376 233 l 1
 442 233 l 2
 454 233 489 233 489 198 c 0xa0
323 379 m 1
 220 379 l 1
 202 233 l 1
 305 233 l 1
 323 379 l 1
EndSplineSet
EndChar

StartChar: dollar
Encoding: 36 36 5
Width: 525
GlyphClass: 2
Flags: MW
HStem: -83 21G<247.5 278> 674 20G<247.5 278>
VStem: 58 64<440 480 430.5 489> 58 89<159.5 185 159.5 189> 232 61<-42 -5 -5 -5 58 276 359 554 616 653> 377 89<440.5 458.5> 402 64<141.5 192.5>
LayerCount: 2
Fore
SplineSet
466 171 m 0xdc
 466 101 415 15 293 -4 c 1
 293 -42 l 2
 293 -58 293 -83 263 -83 c 0
 232 -83 232 -58 232 -42 c 2
 232 -5 l 1
 116 6 58 83 58 166 c 0
 58 212 94 216 103 216 c 0
 123 216 147 199 147 171 c 0
 147 148 137 140 131 136 c 1
 146 85 187 63 232 57 c 1
 232 289 l 1
 64 320 58 428 58 452 c 0
 58 526 122 602 232 615 c 1
 232 653 l 2
 232 669 232 694 263 694 c 0
 293 694 293 669 293 653 c 2
 293 616 l 1
 411 606 466 534 466 457 c 0
 466 420 442 408 421 408 c 0
 394 408 377 429 377 452 c 0
 377 465 382 477 392 485 c 1
 376 536 326 550 293 554 c 1
 293 346 l 1
 438 319 466 220 466 171 c 0xdc
232 359 m 1
 232 554 l 1
 170 544 122 504 122 456 c 0xea
 122 405 175 369 232 359 c 1
402 167 m 0
 402 218 359 263 293 276 c 1
 293 58 l 1
 357 69 402 116 402 167 c 0
EndSplineSet
EndChar

StartChar: percent
Encoding: 37 37 6
Width: 525
GlyphClass: 2
Flags: MW
HStem: -83 21G<112.5 134 377 427> 632 62<115.5 128.5>
VStem: 35 56<539 581.5 539 598.5> 153 56<539 581.5> 315 56<28 72 28 87> 433 56<28 72>
LayerCount: 2
Fore
SplineSet
209 560 m 0
 209 485 171 427 122 427 c 0
 74 427 35 483 35 561 c 0
 35 636 73 694 122 694 c 0
 170 694 209 638 209 560 c 0
437 659 m 0
 437 652 435 647 431 637 c 2
 157 -54 l 2
 153 -65 146 -83 122 -83 c 0
 103 -83 87 -67 87 -48 c 0
 87 -41 89 -36 93 -26 c 2
 366 663 l 2
 371 675 378 694 402 694 c 0
 422 694 437 677 437 659 c 0
489 50 m 0
 489 -24 452 -83 402 -83 c 0
 352 -83 315 -24 315 50 c 0
 315 124 352 183 402 183 c 0
 452 183 489 124 489 50 c 0
153 561 m 0
 153 602 135 632 122 632 c 0
 109 632 91 602 91 561 c 0
 91 517 110 489 122 489 c 0
 134 489 153 517 153 561 c 0
433 50 m 0
 433 94 414 121 402 121 c 0
 390 121 371 94 371 50 c 0
 371 6 390 -21 402 -21 c 0
 414 -21 433 6 433 50 c 0
EndSplineSet
EndChar

StartChar: ampersand
Encoding: 38 38 7
Width: 525
GlyphClass: 2
Flags: MW
HStem: -11 61<129.5 159 129.5 177 373.5 400> 370 61<358 359 419 450 419 419> 561 61<196 224>
VStem: 28 69<126.5 160> 103 56<473 506 473 527> 103 196<473.5 515.5 473.5 527> 318 169
LayerCount: 2
Fore
SplineSet
490 400 m 0xf6
 490 370 465 370 450 370 c 2
 419 370 l 1
 359 214 l 2
 349 189 329 143 308 108 c 1
 317 96 355 50 392 50 c 0
 408 50 427 63 431 107 c 0
 431 112 433 138 459 138 c 1
 459 138 487 138 487 105 c 0
 487 57 458 -11 392 -11 c 0
 334 -11 291 40 275 59 c 1
 244 21 203 -11 151 -11 c 0
 75 -11 28 61 28 137 c 0
 28 183 44 218 63 242 c 0
 65 243 123 307 131 315 c 1
 110 378 103 434 103 477 c 0
 103 577 157 622 207 622 c 0
 278 622 299 546 299 485 c 0
 299 462 299 403 198 298 c 1
 218 244 259 181 272 160 c 1
 299 213 332 299 359 370 c 1
 342 370 318 370 318 401 c 0
 318 431 343 431 358 431 c 2
 450 431 l 2
 466 431 490 431 490 400 c 0xf6
243 485 m 0
 243 494 241 561 207 561 c 0
 185 561 159 535 159 477 c 0xfa
 159 469 160 416 175 364 c 1
 225 420 243 456 243 485 c 0
239 108 m 1
 222 132 217 141 195 180 c 0
 181 203 162 236 155 252 c 1
 108 200 97 188 97 140 c 0
 97 113 107 50 152 50 c 0
 166 50 202 55 239 108 c 1
EndSplineSet
EndChar

StartChar: quotesingle
Encoding: 39 39 8
Width: 525
GlyphClass: 2
Flags: MW
HStem: 328 21G<247.5 276.5> 602 20G<249.5 274>
VStem: 225 74
LayerCount: 2
Fore
SplineSet
306 565 m 2
 293 365 l 2
 292 349 291 328 262 328 c 0
 233 328 232 349 231 365 c 2
 219 557 l 1
 217 577 l 1
 217 602 237 622 262 622 c 0
 286 622 309 607 306 565 c 2
EndSplineSet
EndChar

StartChar: parenleft
Encoding: 40 40 9
Width: 525
GlyphClass: 2
Flags: MW
HStem: -82 21G<394 419> 674 20G<391.5 419>
VStem: 173 69<250 356 250 434>
LayerCount: 2
Fore
SplineSet
437 -54 m 0
 437 -62 432 -82 406 -82 c 0
 382 -82 307 -26 254 47 c 1
 219 97 173 187 173 306 c 0
 173 562 377 694 406 694 c 0
 432 694 437 674 437 666 c 0
 437 651 430 647 414 636 c 0
 280 545 242 406 242 306 c 0
 242 194 288 61 412 -23 c 0
 430 -35 437 -39 437 -54 c 0
EndSplineSet
EndChar

StartChar: parenright
Encoding: 41 41 10
Width: 525
GlyphClass: 2
Flags: MW
HStem: -82 21G<106.5 133.5> 674 20G<106.5 131>
VStem: 283 69<256 338.5>
LayerCount: 2
Fore
SplineSet
352 306 m 0
 352 50 148 -82 119 -82 c 0
 94 -82 88 -62 88 -54 c 0
 88 -39 96 -34 111 -24 c 0
 246 67 283 206 283 306 c 0
 283 371 268 532 104 641 c 0
 99 644 88 651 88 666 c 0
 88 674 94 694 119 694 c 0
 143 694 218 638 271 565 c 1
 306 515 352 425 352 306 c 0
EndSplineSet
EndChar

StartChar: asterisk
Encoding: 42 42 11
Width: 525
GlyphClass: 2
Flags: MW
HStem: 90 21G<245.5 278.5> 181 249<91 104.5 91 108 419 433> 501 20G<245.5 278.5>
VStem: 68 227<127.5 224> 229 66<127.5 146.5 464.5 483.5> 229 227<127.5 222.5>
LayerCount: 2
Fore
SplineSet
456 214 m 0xe4
 456 199 443 181 423 181 c 0
 415 181 413 181 386 197 c 0
 316 239 353 219 292 253 c 1
 294 227 295 161 295 132 c 0
 295 123 295 90 262 90 c 0
 229 90 229 123 229 132 c 0xe8
 229 161 230 227 232 253 c 1
 108 181 l 1
 68 181 68 210 68 214 c 0
 68 234 81 240 93 247 c 2
 201 306 l 1
 92 365 l 2
 79 372 68 378 68 397 c 0xf0
 68 412 81 430 101 430 c 0
 108 430 110 430 124 421 c 2
 232 358 l 1
 230 384 229 450 229 479 c 0
 229 488 229 521 262 521 c 0
 295 521 295 488 295 479 c 0xe8
 295 450 294 384 292 358 c 1
 416 430 l 1
 456 430 456 401 456 397 c 0
 456 378 443 371 431 364 c 2
 323 305 l 1
 349 291 417 258 442 241 c 0
 444 240 456 231 456 214 c 0xe4
EndSplineSet
EndChar

StartChar: plus
Encoding: 43 43 12
Width: 525
GlyphClass: 2
Flags: MW
HStem: 81 21G<244.5 279.5> 271 70<79 227 85 227 297 439> 511 20G<244.5 279.5>
VStem: 227 70<128 271 341 484>
LayerCount: 2
Fore
SplineSet
486 306 m 0
 486 271 451 271 439 271 c 2
 297 271 l 1
 297 128 l 2
 297 116 297 81 262 81 c 0
 227 81 227 116 227 128 c 2
 227 271 l 1
 85 271 l 2
 73 271 38 271 38 306 c 0
 38 341 73 341 85 341 c 2
 227 341 l 1
 227 484 l 2
 227 496 227 531 262 531 c 0
 297 531 297 496 297 484 c 2
 297 341 l 1
 439 341 l 2
 451 341 486 341 486 306 c 0
EndSplineSet
EndChar

StartChar: comma
Encoding: 44 44 13
Width: 525
GlyphClass: 2
Flags: MW
HStem: -139 21G<203.5 228> 0 125<245.5 265>
VStem: 200 146<44 55.5 -30 79>
LayerCount: 2
Fore
SplineSet
346 25 m 0
 346 -85 244 -139 212 -139 c 0
 195 -139 180 -122 180 -107 c 0
 180 -87 198 -82 208 -79 c 0
 220 -75 267 -59 282 3 c 1
 275 1 268 0 262 0 c 0
 229 0 200 25 200 63 c 0
 200 95 223 125 263 125 c 0
 307 125 346 86 346 25 c 0
EndSplineSet
EndChar

StartChar: hyphen
Encoding: 45 45 14
Width: 525
GlyphClass: 2
Flags: MW
HStem: 271 70<97 421 103 421>
LayerCount: 2
Fore
SplineSet
468 306 m 0
 468 271 433 271 421 271 c 2
 103 271 l 2
 91 271 56 271 56 306 c 0
 56 341 91 341 103 341 c 2
 421 341 l 2
 433 341 468 341 468 306 c 0
EndSplineSet
EndChar

StartChar: period
Encoding: 46 46 15
Width: 525
GlyphClass: 2
Flags: MW
HStem: 0 125<246 279 244 281>
VStem: 200 125<46.5 78.5>
LayerCount: 2
Fore
SplineSet
325 62 m 0
 325 31 300 0 262 0 c 0
 230 0 200 26 200 63 c 0
 200 94 225 125 263 125 c 0
 295 125 325 99 325 62 c 0
EndSplineSet
EndChar

StartChar: slash
Encoding: 47 47 16
Width: 525
GlyphClass: 2
Flags: MW
HStem: -83 21G<83 104> 674 20G<420 441>
LayerCount: 2
Fore
SplineSet
466 659 m 0
 466 651 465 651 458 635 c 2
 128 -55 l 2
 122 -68 115 -83 93 -83 c 0
 73 -83 58 -66 58 -48 c 0
 58 -40 59 -40 66 -24 c 2
 396 666 l 2
 402 679 409 694 431 694 c 0
 451 694 466 677 466 659 c 0
EndSplineSet
EndChar

StartChar: zero
Encoding: 48 48 17
Width: 525
GlyphClass: 2
Flags: MW
HStem: -11 61<223 301 223 318> 561 61<225 298.5>
VStem: 50 69<242 389 242 397> 405 69<242 389.5>
LayerCount: 2
Fore
SplineSet
474 305 m 0
 474 123 374 -11 262 -11 c 0
 152 -11 50 120 50 306 c 0
 50 488 150 622 262 622 c 0
 372 622 474 491 474 305 c 0
405 316 m 0
 405 463 335 561 262 561 c 0
 188 561 119 462 119 316 c 0
 119 168 184 50 262 50 c 0
 340 50 405 168 405 316 c 0
EndSplineSet
EndChar

StartChar: one
Encoding: 49 49 18
Width: 525
GlyphClass: 2
Flags: MW
HStem: 0 61<143.5 242 151 242 311 402> 419 20G<130.5 147.5> 602 20G<271.5 296>
VStem: 105 206<456.5 483> 242 69<61 483 483 483> 242 200<15 483>
LayerCount: 2
Fore
SplineSet
442 30 m 0xe4
 442 0 417 0 402 0 c 2
 151 0 l 2
 136 0 111 0 111 30 c 0
 111 61 135 61 151 61 c 2
 242 61 l 1
 242 483 l 1xe8
 198 445 157 439 138 439 c 0
 123 439 105 444 105 469 c 0
 105 497 126 499 142 500 c 0
 161 502 213 513 251 598 c 0
 256 610 262 622 281 622 c 0
 311 622 311 597 311 581 c 2
 311 61 l 1xf0
 402 61 l 2
 418 61 442 61 442 30 c 0xe4
EndSplineSet
EndChar

StartChar: two
Encoding: 50 50 19
Width: 525
GlyphClass: 2
Flags: MW
HStem: 0 61<165 403 165 432> 0 108<420.5 432> 407 215<88.5 310> 561 61<216.5 285>
VStem: 52 89<438 458 438 497.5> 403 69<61 67 25 75 392 471>
LayerCount: 2
Fore
SplineSet
472 41 m 2x6c
 472 9 465 0 432 0 c 2
 93 0 l 2
 77 0 52 0 52 31 c 0
 52 45 58 50 67 58 c 2
 288 244 l 2
 354 299 403 357 403 427 c 0
 403 515 326 561 244 561 c 0x9c
 189 561 142 530 127 484 c 1
 136 477 141 464 141 452 c 0
 141 424 118 407 97 407 c 0
 80 407 52 418 52 455 c 0
 52 540 131 622 249 622 c 0
 371 622 472 547 472 427 c 0
 472 347 426 283 363 227 c 1
 320 187 224 112 165 61 c 1
 403 61 l 1xac
 403 89 403 108 438 108 c 0
 472 108 472 86 472 67 c 2
 472 41 l 2x6c
EndSplineSet
EndChar

StartChar: three
Encoding: 51 51 20
Width: 525
GlyphClass: 2
Flags: MW
HStem: -11 61<244 309.5 244 329.5> -11 194<77.5 329.5> 299 64 458 164<108 320.5> 561 61<259.5 298>
VStem: 44 89<129 151 129 152> 73 89<489 510 489 539.5> 382 69<465 502.5> 411 69<143.5 203>
LayerCount: 2
Fore
SplineSet
480 174 m 0xb480
 480 81 395 -11 264 -11 c 0
 141 -11 44 47 44 136 c 0
 44 168 66 183 89 183 c 0x7480
 114 183 133 163 133 139 c 0
 133 119 126 113 121 108 c 1
 147 61 224 50 264 50 c 0
 355 50 411 113 411 174 c 0xb480
 411 232 360 299 261 299 c 2
 215 299 l 2
 199 299 175 299 175 330 c 0
 175 359 190 359 247 363 c 0
 283 365 308 367 340 393 c 0
 367 415 382 450 382 480 c 0
 382 525 332 561 264 561 c 0xad
 255 561 184 561 153 530 c 1
 156 527 162 517 162 503 c 0
 162 475 139 458 118 458 c 0
 98 458 73 472 73 505 c 0
 73 574 143 622 263 622 c 0
 378 622 451 555 451 481 c 0xb3
 451 427 423 370 367 334 c 1
 433 304 480 245 480 174 c 0xb480
EndSplineSet
EndChar

StartChar: four
Encoding: 52 52 21
Width: 525
GlyphClass: 2
Flags: MW
HStem: 0 61<251.5 321 259 321 377 439> 169 61<53.5 321 99 321 99 321 377 455 99 377> 603 20G<308 336 336 353>
VStem: 219 158<15 169> 321 56<61 169 61 169 230 579 579 579> 321 158<15 169 15 169> 321 174<61 214.5 169 214.5 184 579>
LayerCount: 2
Fore
SplineSet
495 199 m 0xe2
 495 169 470 169 455 169 c 2
 377 169 l 1
 377 61 l 1xf0
 439 61 l 2
 455 61 479 61 479 30 c 0xe4
 479 0 454 0 439 0 c 2
 259 0 l 2
 244 0 219 0 219 30 c 0xf0
 219 61 243 61 259 61 c 2
 321 61 l 1
 321 169 l 1xe8
 69 169 l 2
 38 169 29 176 29 209 c 0
 29 229 29 231 38 244 c 2
 266 602 l 2
 279 622 284 623 308 623 c 2
 336 623 l 2
 370 623 377 615 377 582 c 2
 377 230 l 1xf0
 455 230 l 2
 471 230 495 230 495 199 c 0xe2
321 230 m 1
 321 579 l 1
 99 230 l 1
 321 230 l 1
EndSplineSet
EndChar

StartChar: five
Encoding: 53 53 22
Width: 525
GlyphClass: 2
Flags: MW
HStem: -11 61<234 290 234 310.5> -11 201<89.5 310.5> 328 61<259.5 317> 550 61<157 397 157 157>
VStem: 52 89<135 159.5 135 161.5> 88 69<360 550 360 570 360 586> 403 69<150 222.5>
LayerCount: 2
Fore
SplineSet
472 190 m 0x76
 472 79 373 -11 248 -11 c 0
 136 -11 52 59 52 142 c 0
 52 181 82 190 97 190 c 0x7a
 118 190 141 174 141 145 c 0
 141 125 133 118 128 113 c 1
 156 58 220 50 248 50 c 0xba
 332 50 403 110 403 190 c 0
 403 255 358 328 276 328 c 0
 218 328 177 310 150 278 c 0
 142 268 138 263 120 263 c 0
 88 263 88 286 88 304 c 2
 88 570 l 2
 88 602 95 611 128 611 c 2
 397 611 l 2
 413 611 437 611 437 580 c 0
 437 550 412 550 397 550 c 2
 157 550 l 1
 157 360 l 1
 198 382 242 389 277 389 c 0
 395 389 472 291 472 190 c 0x76
EndSplineSet
EndChar

StartChar: six
Encoding: 54 54 23
Width: 525
GlyphClass: 2
Flags: MW
HStem: -11 61<231.5 300 231.5 318.5> 334 62<247 308.5> 472 150<254 421.5> 561 61<276 337>
VStem: 53 79<215 253 215 400> 365 89<504 525> 402 69<150 230>
LayerCount: 2
Fore
SplineSet
471 193 m 0xda
 471 73 373 -11 264 -11 c 0
 165 -11 53 62 53 299 c 0
 53 501 187 622 321 622 c 0
 418 622 454 568 454 519 c 0
 454 489 434 472 409 472 c 0
 383 472 365 492 365 516 c 0xec
 365 534 370 540 375 545 c 1
 370 550 354 561 320 561 c 0
 232 561 138 479 124 338 c 1
 169 379 221 396 273 396 c 0
 383 396 471 307 471 193 c 0xda
402 193 m 0
 402 267 349 334 268 334 c 0
 192 334 132 284 132 222 c 0
 132 208 130 184 140 160 c 1
 160 99 199 50 264 50 c 0
 336 50 402 107 402 193 c 0
EndSplineSet
EndChar

StartChar: seven
Encoding: 55 55 24
Width: 525
GlyphClass: 2
Flags: MW
HStem: -11 21G<187.5 213.5> 503 108<61 440> 550 61<113 377 113 113> 607 20G<61 82>
VStem: 44 69<544 550 536 586 536 595.5> 170 69<14.5 91>
LayerCount: 2
Fore
SplineSet
480 580 m 0xcc
 480 566 478 564 458 546 c 0
 397 487 244 313 239 29 c 0
 239 0 222 -11 205 -11 c 0
 170 -11 170 22 170 36 c 0
 170 146 204 366 377 550 c 1
 113 550 l 1xac
 113 522 113 503 78 503 c 0xcc
 44 503 44 525 44 544 c 2
 44 586 l 2
 44 605 44 627 78 627 c 0x9c
 86 627 104 627 110 611 c 1
 440 611 l 2
 456 611 480 611 480 580 c 0xcc
EndSplineSet
EndChar

StartChar: eight
Encoding: 56 56 25
Width: 525
GlyphClass: 2
Flags: MW
HStem: -11 61<220.5 303.5 220.5 325> 299 61<225.5 298.5 225.5 308> 561 61<222.5 301>
VStem: 44 69<140.5 205.5 140.5 211.5> 58 69<433.5 487 433 502.5> 397 69<433.5 487> 411 69<140.5 205.5>
LayerCount: 2
Fore
SplineSet
480 174 m 0xf2
 480 77 388 -11 262 -11 c 0
 137 -11 44 77 44 174 c 0xf2
 44 249 108 308 183 329 c 1
 104 355 58 405 58 462 c 0
 58 543 142 622 262 622 c 0
 381 622 466 544 466 462 c 0xec
 466 405 421 356 341 329 c 1
 415 308 480 249 480 174 c 0xf2
397 461 m 0xec
 397 513 340 561 262 561 c 0
 183 561 127 513 127 461 c 0
 127 405 189 360 262 360 c 0
 335 360 397 404 397 461 c 0xec
411 175 m 0xf2
 411 236 354 299 262 299 c 0
 171 299 113 236 113 175 c 0
 113 106 179 50 262 50 c 0
 345 50 411 106 411 175 c 0xf2
EndSplineSet
EndChar

StartChar: nine
Encoding: 57 57 26
Width: 525
GlyphClass: 2
Flags: MW
HStem: -11 61<211.5 264 211.5 282> -11 150<102.5 282> 215 62<215.5 277> 561 61<229 286.5>
VStem: 53 69<381 461.5 381 478.5> 70 89<86.5 107 86.5 107> 393 78<361.5 424.5>
LayerCount: 2
Fore
SplineSet
471 312 m 0xba
 471 114 348 -11 216 -11 c 0
 88 -11 70 60 70 92 c 0
 70 122 90 139 115 139 c 0
 141 139 159 119 159 95 c 0x76
 159 78 154 72 150 67 c 1
 171 51 207 50 216 50 c 0
 312 50 390 149 400 273 c 1
 355 232 303 215 251 215 c 0
 141 215 53 304 53 418 c 0
 53 539 154 622 265 622 c 0
 360 622 471 553 471 312 c 0xba
393 389 m 0
 393 460 384 479 352 518 c 0
 336 538 308 561 265 561 c 0
 193 561 122 505 122 418 c 0xba
 122 344 175 277 256 277 c 0
 339 277 393 334 393 389 c 0
EndSplineSet
EndChar

StartChar: colon
Encoding: 58 58 27
Width: 525
GlyphClass: 2
Flags: MW
HStem: 0 125<246 279 244 281> 306 125<246 279 244 281>
VStem: 200 125<46.5 78.5 352.5 384.5>
LayerCount: 2
Fore
SplineSet
325 368 m 0
 325 337 300 306 262 306 c 0
 230 306 200 332 200 369 c 0
 200 400 225 431 263 431 c 0
 295 431 325 405 325 368 c 0
325 62 m 0
 325 31 300 0 262 0 c 0
 230 0 200 26 200 63 c 0
 200 94 225 125 263 125 c 0
 295 125 325 99 325 62 c 0
EndSplineSet
EndChar

StartChar: semicolon
Encoding: 59 59 28
Width: 525
GlyphClass: 2
Flags: MW
HStem: -139 21G<203.5 223> 0 125<244 266> 306 125<246 279 244 281>
VStem: 200 130<49 60 -29 80>
LayerCount: 2
Fore
SplineSet
325 368 m 0
 325 337 300 306 262 306 c 0
 230 306 200 332 200 369 c 0
 200 400 225 431 263 431 c 0
 295 431 325 405 325 368 c 0
330 27 m 0
 330 -85 234 -139 212 -139 c 0
 195 -139 180 -122 180 -107 c 0
 180 -91 194 -84 200 -81 c 0
 215 -73 253 -54 266 0 c 1
 217 0 200 35 200 63 c 0
 200 97 226 125 262 125 c 0
 300 125 330 93 330 27 c 0
EndSplineSet
EndChar

StartChar: less
Encoding: 60 60 29
Width: 525
GlyphClass: 2
Flags: MW
HStem: 56 21G<428.5 441> 536 20G<428.5 441>
LayerCount: 2
Fore
SplineSet
468 91 m 0
 468 68 449 56 433 56 c 0
 424 56 421 57 407 66 c 2
 74 275 l 2
 64 282 56 293 56 306 c 0
 56 325 69 333 78 339 c 2
 407 546 l 2
 421 555 424 556 433 556 c 0
 449 556 468 544 468 521 c 0
 468 502 455 494 444 487 c 2
 157 306 l 1
 444 125 l 2
 455 118 468 110 468 91 c 0
EndSplineSet
EndChar

StartChar: equal
Encoding: 61 61 30
Width: 525
GlyphClass: 2
Flags: MW
HStem: 195 70<83 89 89 435> 347 70<77 435 89 435 435 441>
LayerCount: 2
Fore
SplineSet
486 382 m 0
 486 347 453 347 441 347 c 2
 83 347 l 2
 71 347 38 347 38 382 c 0
 38 417 75 417 89 417 c 2
 435 417 l 2
 449 417 486 417 486 382 c 0
486 230 m 0
 486 195 449 195 435 195 c 2
 89 195 l 2
 75 195 38 195 38 230 c 0
 38 265 71 265 83 265 c 2
 441 265 l 2
 453 265 486 265 486 230 c 0
EndSplineSet
EndChar

StartChar: greater
Encoding: 62 62 31
Width: 525
GlyphClass: 2
Flags: MW
HStem: 56 21G<83 95.5> 536 20G<83 95.5>
LayerCount: 2
Fore
SplineSet
468 306 m 0
 468 287 455 279 446 273 c 2
 117 66 l 2
 103 57 100 56 91 56 c 0
 75 56 56 68 56 91 c 0
 56 110 69 118 80 125 c 2
 367 306 l 1
 80 487 l 2
 69 494 56 502 56 521 c 0
 56 544 75 556 91 556 c 0
 100 556 103 555 117 546 c 2
 450 337 l 2
 460 330 468 319 468 306 c 0
EndSplineSet
EndChar

StartChar: question
Encoding: 63 63 32
Width: 525
GlyphClass: 2
Flags: MW
HStem: 0 100<233 261> 448 169<96.5 344.5> 556 61<232.5 303>
VStem: 62 89<479 499 479 523> 207 80<216.5 224 224 241 207 256> 393 69<480 508.5>
LayerCount: 2
Fore
SplineSet
462 493 m 0xdc
 462 441 425 412 396 396 c 0
 303 345 287 288 287 241 c 2
 287 224 l 2
 287 190 277 184 247 184 c 0
 207 184 207 197 207 236 c 0
 207 276 207 365 352 445 c 0
 371 455 393 467 393 493 c 0
 393 524 354 556 252 556 c 0xbc
 213 556 166 549 141 521 c 1
 146 515 151 505 151 493 c 0
 151 465 128 448 107 448 c 0
 86 448 62 463 62 495 c 0
 62 551 111 617 252 617 c 0
 437 617 462 530 462 493 c 0xdc
297 50 m 0
 297 22 275 0 247 0 c 0
 219 0 197 22 197 50 c 0
 197 78 219 100 247 100 c 0
 275 100 297 78 297 50 c 0
EndSplineSet
EndChar

StartChar: at
Encoding: 64 64 33
Width: 525
GlyphClass: 2
Flags: MW
HStem: -6 61<251 322 251 351> -6 114<236 447> 106 61<312.5 357.5 312.5 359.5> 444 61<314 352.5 296 357.5> 556 61<252.5 318>
VStem: 44 56<234 379.5 234 396> 191 56<266 347 266 362.5> 424 56<264.5 345.5>
LayerCount: 2
Fore
SplineSet
480 80 m 0x5f
 480 51 396 -6 306 -6 c 0
 166 -6 44 127 44 306 c 0
 44 486 168 617 304 617 c 0
 480 617 480 386 480 321 c 0
 480 148 384 106 335 106 c 0
 261 106 191 187 191 306 c 0
 191 419 256 505 336 505 c 0
 369 505 397 487 400 485 c 1
 377 546 332 556 304 556 c 0
 201 556 100 454 100 305 c 0
 100 163 197 55 305 55 c 0xbf
 339 55 377 66 412 98 c 0
 422 108 425 108 442 108 c 0
 452 108 480 108 480 80 c 0x5f
424 305 m 0
 424 386 380 444 335 444 c 0
 293 444 247 389 247 305 c 0
 247 227 289 167 336 167 c 0
 379 167 424 224 424 305 c 0
EndSplineSet
EndChar

StartChar: A
Encoding: 65 65 34
Width: 525
GlyphClass: 2
Flags: MW
HStem: 0 61<61.5 87 80 87 158 172 348 352 352 366 437 444.5> 165 61<196 328 196 343 181 328> 603 20G<247.5 277.5>
VStem: 27 187<15 36.5> 310 187<15 36.5 15 45.5>
LayerCount: 2
Fore
SplineSet
497 30 m 0
 497 0 471 0 454 0 c 2
 352 0 l 2
 334 0 310 0 310 30 c 0
 310 61 330 61 366 61 c 1
 343 165 l 1
 181 165 l 1
 158 61 l 1
 194 61 214 61 214 30 c 0
 214 0 190 0 172 0 c 2
 70 0 l 2
 53 0 27 0 27 30 c 0
 27 43 33 53 44 59 c 1
 50 61 73 61 87 61 c 1
 208 585 l 2
 217 623 233 623 262 623 c 0
 293 623 307 622 316 584 c 2
 437 61 l 1
 452 61 474 61 480 58 c 0
 492 53 497 43 497 30 c 0
328 226 m 1
 262 540 l 1
 196 226 l 1
 328 226 l 1
EndSplineSet
EndChar

StartChar: B
Encoding: 66 66 35
Width: 525
GlyphClass: 2
Flags: MW
HStem: 0 61<56 91 64 91 160 287 287 309> 287 61<160 263 263 298 160 263> 550 61<63 64 64 91 160 160 160 285>
VStem: 23 137<15 287> 91 69<61 287 348 550> 392 69<434.5 471.5> 413 69<144.5 191.5>
LayerCount: 2
Fore
SplineSet
482 167 m 0xf2
 482 89 422 0 309 0 c 2
 63 0 l 2
 49 0 23 0 23 30 c 0xf2
 23 61 48 61 64 61 c 2
 91 61 l 1
 91 550 l 1xec
 64 550 l 2
 48 550 23 550 23 581 c 0
 23 611 49 611 63 611 c 2
 289 611 l 2
 400 611 461 529 461 456 c 0xf4
 461 394 417 342 353 320 c 1
 434 301 482 236 482 167 c 0xf2
392 455 m 0xf4
 392 488 370 550 285 550 c 2
 160 550 l 1
 160 348 l 1
 263 348 l 2
 360 348 392 414 392 455 c 0xf4
413 169 m 0xf2
 413 214 383 287 298 287 c 2
 160 287 l 1
 160 61 l 1
 287 61 l 2
 374 61 413 120 413 169 c 0xf2
EndSplineSet
EndChar

StartChar: C
Encoding: 67 67 36
Width: 525
GlyphClass: 2
Flags: MW
HStem: -11 61<240.5 306.5 240.5 340> 401 221<445 466.5> 561 61<240.5 306.5 216.5 315>
VStem: 40 69<231 380.5 231 397> 415 69
LayerCount: 2
Fore
SplineSet
484 168 m 0xb8
 484 78 398 -11 282 -11 c 0
 152 -11 40 123 40 306 c 0
 40 488 152 622 281 622 c 0
 332 622 378 602 411 574 c 1
 424 599 424 601 426 605 c 0
 431 612 436 622 454 622 c 0
 484 622 484 597 484 581 c 2
 484 442 l 2
 484 422 484 401 449 401 c 0xd8
 419 401 417 417 414 434 c 0
 400 515 345 561 285 561 c 0
 196 561 109 455 109 306 c 0
 109 156 195 50 286 50 c 0
 327 50 408 74 415 172 c 0
 417 201 440 201 449 201 c 0
 460 201 484 201 484 168 c 0xb8
EndSplineSet
EndChar

StartChar: D
Encoding: 68 68 37
Width: 525
GlyphClass: 2
Flags: MW
HStem: 0 61<52.5 82 60 82 151 247 247 266> 550 61<52.5 266 60 82 151 151 151 247>
VStem: 19 132<15 550 61 595.5> 82 69<61 550 61 550> 416 69<242.5 359>
LayerCount: 2
Fore
SplineSet
485 301 m 0xe8
 485 140 397 0 266 0 c 2
 60 0 l 2
 45 0 19 0 19 30 c 0xe8
 19 61 44 61 60 61 c 2
 82 61 l 1
 82 550 l 1xd8
 60 550 l 2
 45 550 19 550 19 580 c 0
 19 611 44 611 60 611 c 2
 266 611 l 2
 399 611 485 461 485 301 c 0xe8
416 301 m 0
 416 417 360 550 247 550 c 2
 151 550 l 1
 151 61 l 1
 247 61 l 2
 358 61 416 184 416 301 c 0
EndSplineSet
EndChar

StartChar: E
Encoding: 69 69 38
Width: 525
GlyphClass: 2
Flags: MW
HStem: 0 61<59.5 97 67 97 166 433> 0 171<450.5 462> 229 118<166 349> 286 61<166 297 166 297> 286 118<166 349> 456 155<428 440 440 457 67 462.5> 550 61<59.5 440 67 97 166 166 166 411>
VStem: 26 140<15 286> 97 69<61 286 347 550> 297 69<265.5 270 270 286 347 363> 411 69<497 550 550 550> 433 69<61 130>
LayerCount: 2
Fore
SplineSet
502 41 m 2x6550
 502 9 495 0 462 0 c 2
 67 0 l 2
 52 0 26 0 26 30 c 0xa550
 26 61 51 61 67 61 c 2
 97 61 l 1
 97 550 l 1
 67 550 l 2xa2e0
 52 550 26 550 26 581 c 0
 26 611 52 611 67 611 c 2
 440 611 l 2
 474 611 480 601 480 570 c 2
 480 497 l 2
 480 477 480 456 445 456 c 0xa560
 411 456 411 478 411 497 c 2
 411 550 l 1
 166 550 l 1
 166 347 l 1
 297 347 l 1xa360
 297 388 297 404 332 404 c 0x8d60
 366 404 366 382 366 363 c 2
 366 270 l 2
 366 251 366 229 332 229 c 0xa560
 297 229 297 245 297 286 c 1
 166 286 l 1
 166 61 l 1
 433 61 l 1x9550
 433 130 l 2
 433 150 433 171 468 171 c 0
 502 171 502 149 502 130 c 2
 502 41 l 2x6550
EndSplineSet
EndChar

StartChar: F
Encoding: 70 70 39
Width: 525
GlyphClass: 2
Flags: MW
HStem: 0 61<61.5 102 69 102 171 223> 218 118<171 359> 275 61<171 307 171 307> 275 118<171 359> 456 155<438 450 450 467 69 472.5> 550 61<61.5 450 69 102 171 421 171 171>
VStem: 28 143<15 275> 102 69<61 275 336 550> 102 161<15 550> 307 69<254.5 259 259 275 336 352> 421 69<497 550 550 550>
LayerCount: 2
Fore
SplineSet
490 497 m 2xca60
 490 477 490 456 455 456 c 0xca60
 421 456 421 478 421 497 c 2
 421 550 l 1
 171 550 l 1
 171 336 l 1
 307 336 l 1xc660
 307 377 307 393 342 393 c 0x9a60
 376 393 376 371 376 352 c 2
 376 259 l 2
 376 240 376 218 342 218 c 0xca60
 307 218 307 234 307 275 c 1
 171 275 l 1
 171 61 l 1xaa60
 223 61 l 2
 239 61 263 61 263 30 c 0xc8e0
 263 0 238 0 223 0 c 2
 69 0 l 2
 54 0 28 0 28 30 c 0xca60
 28 61 53 61 69 61 c 2
 102 61 l 1
 102 550 l 1
 69 550 l 2xc560
 54 550 28 550 28 580 c 0
 28 611 53 611 69 611 c 2
 450 611 l 2
 484 611 490 601 490 570 c 2
 490 497 l 2xca60
EndSplineSet
EndChar

StartChar: G
Encoding: 71 71 40
Width: 525
GlyphClass: 2
Flags: MW
HStem: -11 61<223.5 289.5> 0 21G<397.5 432> 209 61<328 455 336 378 449 455 455 461> 401 221<408.5 431.5> 561 61<226 282 201 282.5>
VStem: 38 69<231.5 381.5 231.5 396.5> 296 153 296 200<224.5 255>
LayerCount: 2
Fore
SplineSet
496 240 m 0xae
 496 209 473 209 449 209 c 1
 449 41 l 2
 449 22 449 0 415 0 c 0x76
 380 0 380 20 380 42 c 1
 360 19 318 -11 261 -11 c 0
 142 -11 38 122 38 306 c 0
 38 487 141 622 261 622 c 0
 303 622 343 607 378 577 c 1
 393 611 398 622 419 622 c 0
 449 622 449 597 449 581 c 2
 449 442 l 2
 449 422 449 401 414 401 c 0xb6
 388 401 382 413 380 430 c 0
 363 538 300 561 265 561 c 0
 187 561 107 458 107 305 c 0
 107 158 183 50 264 50 c 0
 317 50 366 97 378 209 c 1
 336 209 l 2
 320 209 296 209 296 240 c 0
 296 270 321 270 336 270 c 2
 455 270 l 2
 470 270 496 270 496 240 c 0xae
EndSplineSet
EndChar

StartChar: H
Encoding: 72 72 41
Width: 525
GlyphClass: 2
Flags: MW
HStem: 0 61<54.5 87 62 87 156 181 343 368 437 462> 287 61<156 368 156 368> 550 61<54.5 181 62 87 156 156 156 181 343 368 437 437 437 462>
VStem: 22 134<15 287> 87 69<61 287 61 348 348 550> 87 134<15 550> 303 134<15.5 550 61 596> 368 69<61 287 287 287 348 550 61 550> 368 134<15 287>
LayerCount: 2
Fore
SplineSet
502 30 m 0xf080
 502 0 477 0 462 0 c 2
 343 0 l 2
 327 0 303 0 303 31 c 0xf2
 303 61 328 61 343 61 c 2
 368 61 l 1
 368 287 l 1
 156 287 l 1
 156 61 l 1xf1
 181 61 l 2
 197 61 221 61 221 30 c 0xe6
 221 0 196 0 181 0 c 2
 62 0 l 2
 47 0 22 0 22 30 c 0xf2
 22 61 46 61 62 61 c 2
 87 61 l 1
 87 550 l 1xea
 62 550 l 2
 47 550 22 550 22 580 c 0xf2
 22 611 46 611 62 611 c 2
 181 611 l 2
 197 611 221 611 221 580 c 0xe6
 221 550 196 550 181 550 c 2
 156 550 l 1
 156 348 l 1
 368 348 l 1
 368 550 l 1xf1
 343 550 l 2
 327 550 303 550 303 581 c 0xf2
 303 611 328 611 343 611 c 2
 462 611 l 2
 478 611 502 611 502 580 c 0xf080
 502 550 477 550 462 550 c 2
 437 550 l 1
 437 61 l 1xf2
 462 61 l 2
 478 61 502 61 502 30 c 0xf080
EndSplineSet
EndChar

StartChar: I
Encoding: 73 73 42
Width: 525
GlyphClass: 2
Flags: MW
HStem: 0 61<112.5 228 120 228 297 405> 550 61<112.5 405 120 228 297 297 297 405>
VStem: 79 218<15.5 550 61 596> 228 69<61 550 61 550> 228 218<15 550>
LayerCount: 2
Fore
SplineSet
446 30 m 0xc8
 446 0 420 0 405 0 c 2
 120 0 l 2
 105 0 79 0 79 31 c 0xe0
 79 61 105 61 120 61 c 2
 228 61 l 1
 228 550 l 1xd0
 120 550 l 2
 105 550 79 550 79 581 c 0xe0
 79 611 105 611 120 611 c 2
 405 611 l 2
 420 611 446 611 446 580 c 0xc8
 446 550 420 550 405 550 c 2
 297 550 l 1
 297 61 l 1xe0
 405 61 l 2
 420 61 446 61 446 30 c 0xc8
EndSplineSet
EndChar

StartChar: J
Encoding: 74 74 43
Width: 525
GlyphClass: 2
Flags: MW
HStem: -11 157<104.5 281.5> 550 61<248.5 437 256 338 407 437 407 407>
VStem: 71 89<94 114 94 115> 215 192 338 69<140 550> 338 140<140 596 550 596>
LayerCount: 2
Fore
SplineSet
478 581 m 0xe4
 478 550 453 550 437 550 c 2
 407 550 l 1
 407 134 l 2
 407 43 326 -11 237 -11 c 0
 137 -11 71 36 71 99 c 0
 71 131 93 146 116 146 c 0
 141 146 160 126 160 102 c 0
 160 86 156 81 152 76 c 1
 181 50 229 50 237 50 c 0
 256 50 338 55 338 140 c 2
 338 550 l 1xe8
 256 550 l 2
 241 550 215 550 215 581 c 0xf0
 215 611 241 611 256 611 c 2
 437 611 l 2
 452 611 478 611 478 581 c 0xe4
EndSplineSet
EndChar

StartChar: K
Encoding: 75 75 44
Width: 525
GlyphClass: 2
Flags: MW
HStem: 0 61<59 89 67 89 145 167 371 378 443 454> 550 61<59 167 67 89 145 145 145 167 428 444 444 446>
VStem: 26 119<15.5 194> 89 56<61 194 284 550> 89 119<15 550> 315 170<565.5 595.5> 338 147
LayerCount: 2
Fore
SplineSet
495 30 m 0xe4
 495 0 469 0 454 0 c 2
 379 0 l 2
 363 0 338 0 338 31 c 0
 338 61 364 61 378 61 c 1
 238 311 l 1
 145 194 l 1
 145 61 l 1xe2
 167 61 l 2
 183 61 208 61 208 30 c 0xcc
 208 0 182 0 167 0 c 2
 67 0 l 2
 51 0 26 0 26 31 c 0xe4
 26 61 52 61 67 61 c 2
 89 61 l 1
 89 550 l 1xd4
 67 550 l 2
 51 550 26 550 26 581 c 0xe4
 26 611 52 611 67 611 c 2
 167 611 l 2
 183 611 208 611 208 580 c 0xcc
 208 550 182 550 167 550 c 2
 145 550 l 1
 145 284 l 1
 356 550 l 1
 342 550 315 550 315 580 c 0
 315 611 341 611 356 611 c 2
 444 611 l 2
 458 611 485 611 485 581 c 0
 485 550 464 550 428 550 c 1
 276 358 l 1
 436 73 l 2
 437 71 441 65 443 61 c 1
 472 61 495 61 495 30 c 0xe4
EndSplineSet
EndChar

StartChar: L
Encoding: 76 76 45
Width: 525
GlyphClass: 2
Flags: MW
HStem: 0 61<64.5 109 72 109 178 419> 0 171<436.5 448> 550 61<64.5 234 72 109 178 178 178 234>
VStem: 32 146<15 550 61 595.5> 109 69<61 550 61 550> 109 166<61 595.5 550 595.5> 419 69<61 130>
LayerCount: 2
Fore
SplineSet
488 41 m 2x72
 488 9 481 0 448 0 c 2
 72 0 l 2
 57 0 32 0 32 30 c 0xb2
 32 61 56 61 72 61 c 2
 109 61 l 1
 109 550 l 1xaa
 72 550 l 2
 57 550 32 550 32 580 c 0xb2
 32 611 56 611 72 611 c 2
 234 611 l 2
 249 611 275 611 275 580 c 0xa6
 275 550 248 550 234 550 c 2
 178 550 l 1
 178 61 l 1
 419 61 l 1xb2
 419 130 l 2
 419 151 419 171 454 171 c 0
 488 171 488 150 488 130 c 2
 488 41 l 2x72
EndSplineSet
EndChar

StartChar: M
Encoding: 77 77 46
Width: 525
GlyphClass: 2
Flags: MW
HStem: 0 61<54 57 57 70 126 139 382 385 385 398 454 467> 550 61<57 70 454 467 467 470>
VStem: 17 109<15 538 61 596> 70 56<61 538 61 550 61 550> 70 109<15 550> 345 109<15 550> 398 56<61 538 538 538> 398 109<15 538>
LayerCount: 2
Fore
SplineSet
507 30 m 0xe1
 507 0 482 0 467 0 c 2
 385 0 l 2
 370 0 345 0 345 30 c 0xe4
 345 61 366 61 398 61 c 1
 398 538 l 1
 397 538 l 1
 385 485 300 232 297 226 c 0
 289 212 275 204 262 204 c 0
 250 204 238 211 232 219 c 0
 227 226 214 264 206 287 c 0
 202 300 138 492 127 538 c 1
 126 538 l 1
 126 61 l 1xe2
 158 61 179 61 179 30 c 0xcc
 179 0 154 0 139 0 c 2
 57 0 l 2
 42 0 17 0 17 30 c 0xe4
 17 61 38 61 70 61 c 1
 70 550 l 1xd4
 38 550 17 550 17 581 c 0
 17 611 42 611 57 611 c 2
 113 611 l 2
 127 611 152 611 162 587 c 0
 164 581 252 322 262 275 c 1
 263 275 l 1
 269 304 278 333 290 369 c 2
 357 571 l 2
 366 597 370 611 411 611 c 2
 467 611 l 2
 482 611 507 611 507 581 c 0xe1
 507 550 486 550 454 550 c 1
 454 61 l 1xe4
 486 61 507 61 507 30 c 0xe1
EndSplineSet
EndChar

StartChar: N
Encoding: 78 78 47
Width: 525
GlyphClass: 2
Flags: MW
HStem: 0 61<60 93 68 93 149 174> 550 61<60 136 68 93 350 375 431 456 431 431>
VStem: 28 121<15.5 536 61 596> 93 56<61 536 61 550 61 550> 93 121<15 550> 310 121 375 56<75 550> 375 121<75 595.5 550 595.5>
LayerCount: 2
Fore
SplineSet
496 580 m 0xe1
 496 550 471 550 456 550 c 2
 431 550 l 1
 431 41 l 2
 431 3 419 0 389 0 c 0
 363 0 347 1 334 36 c 2
 150 536 l 1
 149 536 l 1
 149 61 l 1xe4
 174 61 l 2
 190 61 214 61 214 30 c 0xcc
 214 0 189 0 174 0 c 2
 68 0 l 2
 52 0 28 0 28 31 c 0xe4
 28 61 53 61 68 61 c 2
 93 61 l 1
 93 550 l 1xd4
 68 550 l 2
 52 550 28 550 28 581 c 0
 28 611 53 611 68 611 c 2
 136 611 l 2
 163 611 178 608 190 575 c 2
 374 75 l 1
 375 75 l 1
 375 550 l 1xe2
 350 550 l 2
 335 550 310 550 310 580 c 0xe4
 310 611 334 611 350 611 c 2
 456 611 l 2
 472 611 496 611 496 580 c 0xe1
EndSplineSet
EndChar

StartChar: O
Encoding: 79 79 48
Width: 525
GlyphClass: 2
Flags: MW
HStem: -11 61<218 306.5 218 354> 561 61<221 299.5>
VStem: 56 69<286.5 345 286.5 450> 399 69<283 344.5>
LayerCount: 2
Fore
SplineSet
468 305 m 0
 468 16 446 -11 262 -11 c 0
 77 -11 56 16 56 305 c 0
 56 595 77 622 262 622 c 0
 447 622 468 594 468 305 c 0
399 314 m 0
 399 375 399 450 387 497 c 0
 372 552 337 561 262 561 c 0
 180 561 149 549 136 490 c 0
 125 444 125 376 125 314 c 0
 125 259 125 172 137 121 c 0
 149 71 174 50 262 50 c 0
 351 50 377 71 388 127 c 0
 399 181 399 252 399 314 c 0
EndSplineSet
EndChar

StartChar: P
Encoding: 80 80 49
Width: 525
GlyphClass: 2
Flags: MW
HStem: 0 61<59.5 97 67 97 166 196> 245 61<166 272 272 291 166 272> 550 61<59.5 291 67 97 166 166 166 272>
VStem: 26 140<15 245> 97 69<61 245 61 306 306 550> 97 140<15 550> 411 69<401.5 454.5>
LayerCount: 2
Fore
SplineSet
480 428 m 0xf2
 480 335 407 245 291 245 c 2
 166 245 l 1
 166 61 l 1xf2
 196 61 l 2
 211 61 237 61 237 30 c 0xe6
 237 0 211 0 196 0 c 2
 67 0 l 2
 52 0 26 0 26 30 c 0xf2
 26 61 51 61 67 61 c 2
 97 61 l 1
 97 550 l 1xea
 67 550 l 2
 52 550 26 550 26 581 c 0
 26 611 52 611 67 611 c 2
 291 611 l 2
 406 611 480 521 480 428 c 0xf2
411 428 m 0
 411 481 368 550 272 550 c 2
 166 550 l 1
 166 306 l 1
 272 306 l 2
 368 306 411 375 411 428 c 0
EndSplineSet
EndChar

StartChar: Q
Encoding: 81 81 50
Width: 525
GlyphClass: 2
Flags: MW
HStem: -139 21G<406 414 414 423> -11 61<254 268.5> 561 61<216 306.5>
VStem: 56 69<278 333 278 450> 399 69<282 333>
LayerCount: 2
Fore
SplineSet
468 305 m 0
 468 259 468 192 462 138 c 0
 453 57 435 22 391 4 c 1
 398 -9 416 -43 424 -56 c 1
 435 -78 455 -114 455 -120 c 0
 455 -139 438 -139 423 -139 c 2
 414 -139 l 2
 398 -139 387 -139 379 -127 c 1
 318 -10 l 1
 307 -11 275 -11 262 -11 c 0
 77 -11 56 16 56 305 c 0
 56 595 77 622 262 622 c 0
 447 622 468 594 468 305 c 0
399 306 m 0
 399 360 399 428 390 479 c 0
 379 544 351 561 262 561 c 0
 170 561 148 541 135 486 c 1
 125 438 125 361 125 305 c 0
 125 251 125 183 134 132 c 0
 144 78 164 50 254 50 c 2
 286 50 l 1
 240 139 l 2
 237 144 236 147 236 152 c 0
 236 171 254 171 268 171 c 2
 279 171 l 2
 299 171 300 170 309 155 c 2
 357 68 l 1
 379 83 399 97 399 306 c 0
EndSplineSet
EndChar

StartChar: R
Encoding: 82 82 51
Width: 525
GlyphClass: 2
Flags: MW
HStem: -11 21G<418 466.5> 0 50 275 61<156 228 228 234 156 228> 550 61<54.5 239 62 87 156 156 156 228>
VStem: 22 134<15 275> 87 69<61 275 61 336 336 550> 87 134<15 550> 337 69<129.5 180.5 122.5 183> 364 69<422.5 467> 453 69<91 95>
LayerCount: 2
Fore
SplineSet
522 93 m 0x7940
 522 55 498 -11 435 -11 c 0
 401 -11 373 5 356 35 c 0
 337 67 337 97 337 162 c 0
 337 204 337 226 315 247 c 1
 283 275 253 275 234 275 c 2
 156 275 l 1
 156 61 l 1xb940
 181 61 l 2
 197 61 221 61 221 30 c 0x7340
 221 0 196 0 181 0 c 2
 62 0 l 2
 47 0 22 0 22 30 c 0x7940
 22 61 46 61 62 61 c 2
 87 61 l 1
 87 550 l 1x7540
 62 550 l 2
 47 550 22 550 22 580 c 0
 22 611 46 611 62 611 c 2
 239 611 l 2
 357 611 433 529 433 443 c 0x78c0
 433 402 414 341 348 304 c 1
 362 293 385 272 397 243 c 0
 406 220 406 212 406 149 c 0
 406 96 406 50 434 50 c 0
 451 50 453 87 453 95 c 0
 454 125 477 125 487 125 c 0
 498 125 522 125 522 93 c 0x7940
364 443 m 0x78c0
 364 491 320 550 228 550 c 2
 156 550 l 1
 156 336 l 1
 228 336 l 2
 319 336 364 394 364 443 c 0x78c0
EndSplineSet
EndChar

StartChar: S
Encoding: 83 83 52
Width: 525
GlyphClass: 2
Flags: MW
HStem: -11 61<271 324.5 271 342> -11 214<69.5 93 69.5 342> 408 214<403 427.5> 561 61<201.5 260.5 182.5 296>
VStem: 52 65<438.5 487.5 438.5 500.5> 407 65<135 198 121.5 204.5>
LayerCount: 2
Fore
SplineSet
472 166 m 0x9c
 472 77 400 -11 284 -11 c 0
 220 -11 159 5 119 35 c 1
 110 3 104 -11 82 -11 c 0
 52 -11 52 14 52 30 c 2
 52 162 l 2
 52 182 52 203 87 203 c 0x6c
 119 203 120 185 121 168 c 0
 122 150 126 108 168 81 c 1
 208 54 257 50 285 50 c 0
 364 50 407 109 407 161 c 0
 407 248 324 268 296 274 c 2
 181 301 l 1
 98 325 52 391 52 458 c 0
 52 543 127 622 238 622 c 0
 283 622 337 610 378 575 c 1
 386 605 391 622 415 622 c 0
 445 622 445 597 445 581 c 2
 445 449 l 2
 445 429 445 408 410 408 c 0xac
 390 408 379 414 376 436 c 1
 370 467 355 561 237 561 c 0
 166 561 117 513 117 462 c 0
 117 415 155 380 197 368 c 1
 278 350 l 2
 356 332 383 325 424 285 c 0
 436 272 472 230 472 166 c 0x9c
EndSplineSet
EndChar

StartChar: T
Encoding: 84 84 53
Width: 525
GlyphClass: 2
Flags: MW
HStem: 0 61<168 228 176 228 297 349> 456 155<67 77.5 446 458 458 475 67 480.5> 550 61<95 228 95 95 297 429 297 297>
VStem: 26 69<497 550 487 570> 136 161<15.5 550> 228 69<61 550 61 550> 228 161<15 550> 429 69<497 550 550 550>
LayerCount: 2
Fore
SplineSet
498 497 m 2xd9
 498 477 498 456 463 456 c 0xd9
 429 456 429 478 429 497 c 2
 429 550 l 1
 297 550 l 1
 297 61 l 1xb9
 349 61 l 2
 365 61 389 61 389 30 c 0xd3
 389 0 364 0 349 0 c 2
 176 0 l 2
 160 0 136 0 136 31 c 0xd9
 136 61 161 61 176 61 c 2
 228 61 l 1
 228 550 l 1
 95 550 l 1xb5
 95 497 l 2
 95 477 95 456 60 456 c 0
 26 456 26 478 26 497 c 2
 26 570 l 2
 26 603 34 611 67 611 c 2
 458 611 l 2
 492 611 498 601 498 570 c 2
 498 497 l 2xd9
EndSplineSet
EndChar

StartChar: U
Encoding: 85 85 54
Width: 525
GlyphClass: 2
Flags: MW
HStem: -11 61<235.5 288 235.5 312> 550 61<37.5 174 45 75 144 144 144 174 350 380 449 479 449 449>
VStem: 4 140 75 69<204 209 209 550> 75 140<204 596 550 596> 309 140 380 69<209 550> 380 140<209 596 550 596>
LayerCount: 2
Fore
SplineSet
520 581 m 0xe1
 520 550 495 550 479 550 c 2
 449 550 l 1
 449 204 l 2
 449 81 362 -11 262 -11 c 0
 162 -11 75 81 75 204 c 2
 75 550 l 1xd4
 45 550 l 2
 30 550 4 550 4 581 c 0xe4
 4 611 30 611 45 611 c 2
 174 611 l 2
 189 611 215 611 215 581 c 0xcc
 215 550 189 550 174 550 c 2
 144 550 l 1
 144 209 l 2
 144 102 209 50 262 50 c 0
 314 50 380 102 380 209 c 2
 380 550 l 1xe2
 350 550 l 2
 335 550 309 550 309 581 c 0xe4
 309 611 335 611 350 611 c 2
 479 611 l 2
 494 611 520 611 520 581 c 0xe1
EndSplineSet
EndChar

StartChar: V
Encoding: 86 86 55
Width: 525
GlyphClass: 2
Flags: MW
HStem: -8 21G<247.5 275.5> 550 61<59 75 146 161 161 163.5 363 378 449 465 465 467>
VStem: 18 184<565.5 596> 322 184<565.5 596>
LayerCount: 2
Fore
SplineSet
506 581 m 0
 506 550 485 550 449 550 c 1
 317 29 l 2
 308 -8 289 -8 262 -8 c 0
 233 -8 217 -8 207 30 c 2
 75 550 l 1
 39 550 18 550 18 581 c 0
 18 611 44 611 59 611 c 2
 161 611 l 2
 176 611 202 611 202 581 c 0
 202 550 181 550 146 550 c 1
 243 161 l 2
 252 124 256 107 261 72 c 1
 262 72 l 1
 269 115 288 191 301 244 c 2
 378 550 l 1
 343 550 322 550 322 581 c 0
 322 611 348 611 363 611 c 2
 465 611 l 2
 480 611 506 611 506 581 c 0
EndSplineSet
EndChar

StartChar: W
Encoding: 87 87 56
Width: 525
GlyphClass: 2
Flags: MW
HStem: -8 21G<156 166.5 358.5 368> 550 61<43.5 131 48 131 106 106 106 131 393 418 475 479.5>
VStem: 11 160<565 595.5> 353 160<565 595.5>
LayerCount: 2
Fore
SplineSet
513 580 m 0
 513 550 486 550 475 550 c 1
 403 27 l 2
 398 -8 374 -8 362 -8 c 0
 355 -8 329 -8 322 17 c 0
 321 19 267 248 263 293 c 1
 262 293 l 1
 258 253 204 19 201 12 c 0
 191 -8 171 -8 162 -8 c 0
 150 -8 126 -8 121 27 c 2
 49 550 l 1
 48 550 l 2
 39 550 11 550 11 580 c 0
 11 611 37 611 52 611 c 2
 131 611 l 2
 147 611 171 611 171 580 c 0
 171 550 146 550 131 550 c 2
 106 550 l 1
 158 154 l 2
 165 100 166 81 166 76 c 1
 167 76 l 1
 172 138 219 338 222 345 c 0
 232 367 252 367 262 367 c 0
 271 367 294 367 303 344 c 1
 304 338 351 140 357 76 c 1
 358 76 l 1
 359 104 366 156 374 217 c 2
 418 550 l 1
 393 550 l 2
 378 550 353 550 353 580 c 0
 353 611 377 611 393 611 c 2
 472 611 l 2
 487 611 513 611 513 580 c 0
EndSplineSet
EndChar

StartChar: X
Encoding: 88 88 57
Width: 525
GlyphClass: 2
Flags: MW
HStem: 0 61<59.5 89 67 89 165 171 344.5 351 351 356 432 455> 550 61<71.5 183 79 102 180 183 183 190 322 328 404 404 404 426>
VStem: 38 185<565.5 596> 282 185<565.5 595.5 565 596> 311 185<15 45.5>
LayerCount: 2
Fore
SplineSet
496 30 m 0xe8
 496 0 470 0 455 0 c 2
 351 0 l 2
 336 0 311 0 311 30 c 0xe8
 311 61 333 61 356 61 c 1
 257 255 l 1
 165 61 l 1
 188 61 212 61 212 30 c 0
 212 0 186 0 171 0 c 2
 67 0 l 2
 52 0 27 0 27 30 c 0
 27 61 51 61 67 61 c 2
 89 61 l 1
 222 325 l 1
 102 550 l 1
 79 550 l 2
 64 550 38 550 38 581 c 0
 38 611 64 611 79 611 c 2
 183 611 l 2
 198 611 223 611 223 581 c 0
 223 550 200 550 180 550 c 1
 257 404 l 1
 328 550 l 1
 305 550 282 550 282 581 c 0
 282 611 307 611 322 611 c 2
 426 611 l 2
 441 611 467 611 467 580 c 0xf0
 467 550 441 550 426 550 c 2
 404 550 l 1
 291 326 l 1
 432 61 l 1
 455 61 l 2
 470 61 496 61 496 30 c 0xe8
EndSplineSet
EndChar

StartChar: Y
Encoding: 89 89 58
Width: 525
GlyphClass: 2
Flags: MW
HStem: 0 61<195 228 203 228 297 322> 550 61<51 163 59 80 157 163 163 169 361 367 444 465 444 444>
VStem: 19 184<565.5 596> 163 134<15.5 244> 228 69<61 244 61 244> 228 134<15 244> 321 184<565.5 595.5 565 596>
LayerCount: 2
Fore
SplineSet
505 580 m 0xea
 505 550 480 550 465 550 c 2
 444 550 l 1
 297 244 l 1
 297 61 l 1xd2
 322 61 l 2
 338 61 362 61 362 30 c 0
 362 0 337 0 322 0 c 2
 203 0 l 2xe4
 187 0 163 0 163 31 c 0xd2
 163 61 188 61 203 61 c 2
 228 61 l 1
 228 244 l 1
 80 550 l 1
 59 550 l 2
 43 550 19 550 19 581 c 0xea
 19 611 44 611 59 611 c 2
 163 611 l 2xd2
 178 611 203 611 203 581 c 0
 203 550 181 550 157 550 c 1
 167 529 248 365 262 314 c 1
 367 550 l 1
 343 550 321 550 321 581 c 0
 321 611 346 611 361 611 c 2
 465 611 l 2
 481 611 505 611 505 580 c 0xea
EndSplineSet
EndChar

StartChar: Z
Encoding: 90 90 59
Width: 525
GlyphClass: 2
Flags: MW
HStem: 0 61<79.5 412 137 412 137 441> 0 174<429.5 441> 456 155<101 111.5> 550 61<129 387 129 129>
VStem: 60 69<497 550 487 570> 412 69<61 133>
LayerCount: 2
Fore
SplineSet
481 41 m 2x6c
 481 9 474 0 441 0 c 2
 89 0 l 2
 70 0 48 0 48 34 c 0
 48 44 48 50 58 65 c 2
 387 550 l 1
 129 550 l 1x9c
 129 497 l 2
 129 477 129 456 94 456 c 0
 60 456 60 478 60 497 c 2
 60 570 l 2
 60 603 68 611 101 611 c 2
 435 611 l 2
 454 611 476 611 476 577 c 0
 476 567 476 561 466 546 c 2
 137 61 l 1
 412 61 l 1xac
 412 133 l 2
 412 153 412 174 447 174 c 0
 481 174 481 152 481 133 c 2
 481 41 l 2x6c
EndSplineSet
EndChar

StartChar: bracketleft
Encoding: 91 91 60
Width: 525
GlyphClass: 2
Flags: MW
HStem: -83 61<245 443 291 443 291 443> 633 61<291 443 291 291>
VStem: 222 69<-22 633 -22 653 -22 669>
LayerCount: 2
Fore
SplineSet
483 -53 m 0
 483 -83 458 -83 443 -83 c 2
 262 -83 l 2
 228 -83 222 -73 222 -42 c 2
 222 653 l 2
 222 685 229 694 262 694 c 2
 443 694 l 2
 459 694 483 694 483 663 c 0
 483 633 458 633 443 633 c 2
 291 633 l 1
 291 -22 l 1
 443 -22 l 2
 459 -22 483 -22 483 -53 c 0
EndSplineSet
EndChar

StartChar: backslash
Encoding: 92 92 61
Width: 525
GlyphClass: 2
Flags: MW
HStem: -83 21G<420 441> 674 20G<83 104>
LayerCount: 2
Fore
SplineSet
466 -48 m 0
 466 -66 451 -83 431 -83 c 0
 409 -83 401 -66 396 -56 c 2
 65 635 l 2
 62 641 58 651 58 659 c 0
 58 677 73 694 93 694 c 0
 115 694 123 677 128 667 c 2
 459 -24 l 2
 462 -30 466 -40 466 -48 c 0
EndSplineSet
EndChar

StartChar: bracketright
Encoding: 93 93 62
Width: 525
GlyphClass: 2
Flags: MW
HStem: -83 61<73 233 81 233 81 262> 633 61<73 262 81 233>
VStem: 233 69<-22 633 633 633>
LayerCount: 2
Fore
SplineSet
302 -42 m 2
 302 -74 295 -83 262 -83 c 2
 81 -83 l 2
 65 -83 41 -83 41 -52 c 0
 41 -22 66 -22 81 -22 c 2
 233 -22 l 1
 233 633 l 1
 81 633 l 2
 65 633 41 633 41 664 c 0
 41 694 66 694 81 694 c 2
 262 694 l 2
 296 694 302 684 302 653 c 2
 302 -42 l 2
EndSplineSet
EndChar

StartChar: asciicircum
Encoding: 94 94 63
Width: 525
GlyphClass: 2
Flags: W
LayerCount: 2
Fore
SplineSet
437 543 m 2
 472 526 448 474 413 489 c 2
 262 554 l 1
 111 489 l 2
 77 474 53 526 88 543 c 2
 251 622 l 2
 258 625 267 625 274 622 c 2
 437 543 l 2
EndSplineSet
EndChar

StartChar: underscore
Encoding: 95 95 64
Width: 525
GlyphClass: 2
Flags: MW
HStem: -167 70<97 421 103 421>
LayerCount: 2
Fore
SplineSet
468 -132 m 0
 468 -167 433 -167 421 -167 c 2
 103 -167 l 2
 91 -167 56 -167 56 -132 c 0
 56 -97 91 -97 103 -97 c 2
 421 -97 l 2
 433 -97 468 -97 468 -132 c 0
EndSplineSet
EndChar

StartChar: grave
Encoding: 96 96 65
Width: 525
GlyphClass: 2
Flags: MW
HStem: 488 21G<331.5 348> 602 20G<181 191>
LayerCount: 2
Fore
SplineSet
368 528 m 0
 368 520 361 488 335 488 c 0
 328 488 323 490 317 493 c 2
 184 552 l 2
 160 563 156 576 156 587 c 0
 156 607 171 622 191 622 c 1
 191 622 199 622 210 617 c 2
 343 557 l 2
 357 551 368 546 368 528 c 0
EndSplineSet
EndChar

StartChar: a
Encoding: 97 97 66
Width: 525
GlyphClass: 2
Flags: MW
HStem: -6 67 0 21G<450 483> 218 59<350 350> 379 61<217.5 260>
VStem: 50 69<108.5 152.5 108.5 176> 76 89<367 371 367 403.5> 350 69<134 218 218 218 277 285 69 312.5>
LayerCount: 2
Fore
SplineSet
519 31 m 0xb6
 519 0 497 0 469 0 c 0x7a
 431 0 383 1 361 32 c 1
 314 1 252 -6 215 -6 c 0
 113 -6 50 59 50 128 c 0xba
 50 224 173 274 350 277 c 1
 350 348 298 379 222 379 c 0
 213 379 200 379 186 378 c 0
 166 376 165 375 165 367 c 0
 164 330 136 321 121 321 c 0
 97 321 76 337 76 367 c 0
 76 440 178 440 221 440 c 0
 365 440 419 356 419 285 c 2
 419 69 l 1
 427 66 437 61 479 61 c 0
 494 61 519 61 519 31 c 0xb6
350 134 m 2
 350 218 l 1
 205 214 119 177 119 128 c 0
 119 89 160 55 222 55 c 0
 230 55 275 55 311 72 c 0
 350 90 350 111 350 134 c 2
EndSplineSet
EndChar

StartChar: b
Encoding: 98 98 67
Width: 525
GlyphClass: 2
Flags: MW
HStem: -6 61<266 314 240 336.5> 0 21G<114.5 149> 376 61<269 324> 550 61<45 126 53 97>
VStem: 12 154<565 570> 97 69<41 45 167 191 191 264 388 550 550 550> 419 69<168 259.5>
LayerCount: 2
Fore
SplineSet
488 216 m 0xba
 488 89 391 -6 282 -6 c 0xba
 250 -6 207 3 166 45 c 1
 166 20 166 0 132 0 c 0
 97 0 97 21 97 41 c 2
 97 550 l 1x76
 52 550 l 2
 38 550 12 550 12 580 c 0
 12 611 37 611 53 611 c 2
 126 611 l 2
 160 611 166 601 166 570 c 2
 166 388 l 1
 200 419 245 437 293 437 c 0
 399 437 488 339 488 216 c 0xba
419 216 m 0
 419 303 361 376 287 376 c 0
 224 376 166 323 166 264 c 2
 166 191 l 2
 166 143 201 55 279 55 c 0
 349 55 419 120 419 216 c 0
EndSplineSet
EndChar

StartChar: c
Encoding: 99 99 68
Width: 525
GlyphClass: 2
Flags: MW
HStem: -6 61<256.5 336 256.5 362.5> 321 119<219 421> 379 61<237.5 315.5>
VStem: 73 69<170.5 240 170.5 260>
LayerCount: 2
Fore
SplineSet
466 109 m 0xb0
 466 92 432 -6 293 -6 c 0
 167 -6 73 96 73 216 c 0
 73 304 133 440 305 440 c 0
 350 440 454 440 454 367 c 0
 454 338 433 321 409 321 c 0xd0
 385 321 366 335 365 370 c 0
 365 379 326 379 305 379 c 0
 170 379 142 264 142 216 c 0
 142 125 214 55 299 55 c 0
 373 55 392 102 398 115 c 1
 405 135 415 137 431 137 c 0
 437 137 466 137 466 109 c 0xb0
EndSplineSet
EndChar

StartChar: d
Encoding: 100 100 69
Width: 525
GlyphClass: 2
Flags: MW
HStem: -6 61<200.5 260> 0 21G<378 398 398 471> 376 61<210 262.5 186.5 277> 550 61<306 387 314 358>
VStem: 36 69<170.5 263 170.5 278.5> 273 154<565 570 61 595.5> 358 69<32 570 194 265 265 292.5 392 550 550 550> 358 154<32 46 15.5 50 15.5 265>
LayerCount: 2
Fore
SplineSet
512 31 m 0xb9
 512 0 487 0 471 0 c 2
 398 0 l 2x79
 358 0 358 14 358 50 c 1
 330 21 288 -6 232 -6 c 0
 126 -6 36 91 36 215 c 0
 36 342 132 437 241 437 c 0
 284 437 325 421 358 392 c 1
 358 550 l 1xba
 313 550 l 2
 299 550 273 550 273 580 c 0
 273 611 298 611 314 611 c 2
 387 611 l 2
 421 611 427 601 427 570 c 2
 427 61 l 1xbc
 472 61 l 2
 486 61 512 61 512 31 c 0xb9
358 194 m 2
 358 265 l 2
 358 320 309 376 245 376 c 0
 175 376 105 311 105 215 c 0
 105 126 165 55 236 55 c 0xba
 313 55 358 138 358 194 c 2
EndSplineSet
EndChar

StartChar: e
Encoding: 101 101 70
Width: 525
GlyphClass: 2
Flags: MW
HStem: -6 61<254.5 306 254.5 351> 191 60<127 393 127 424 126 393> 379 61<235 296>
LayerCount: 2
Fore
SplineSet
464 109 m 0
 464 84 417 -6 285 -6 c 0
 156 -6 55 95 55 217 c 0
 55 340 151 440 270 440 c 0
 400 440 464 342 464 228 c 0
 464 191 445 191 424 191 c 2
 126 191 l 1
 142 105 217 55 292 55 c 0
 320 55 374 64 396 115 c 1
 403 134 411 137 429 137 c 0
 435 137 464 137 464 109 c 0
393 251 m 1
 384 354 322 379 270 379 c 0
 200 379 141 324 127 251 c 1
 393 251 l 1
EndSplineSet
EndChar

StartChar: f
Encoding: 102 102 71
Width: 525
GlyphClass: 2
Flags: MW
HStem: 0 61<75.5 184 83 184 253 354> 370 61<75.5 184 84 184 84 184 253 375> 513 104<301 404>
VStem: 43 210<61 415.5> 184 69<61 370 61 370 431 478> 184 211<15 370> 184 231<61 415.5 370 415.5 385 484 385 527.5>
LayerCount: 2
Fore
SplineSet
437 557 m 0xe8
 437 529 414 513 394 513 c 0
 359 513 350 552 350 556 c 1
 320 556 253 556 253 478 c 2
 253 431 l 1xf0
 375 431 l 2
 391 431 415 431 415 400 c 0xe2
 415 370 390 370 375 370 c 2
 253 370 l 1
 253 61 l 1xf0
 354 61 l 2
 369 61 395 61 395 30 c 0xe4
 395 0 369 0 354 0 c 2
 83 0 l 2
 68 0 42 0 42 31 c 0
 42 61 68 61 83 61 c 2
 184 61 l 1
 184 370 l 1xe8
 83 370 l 2
 68 370 43 370 43 400 c 0xf0
 43 431 68 431 84 431 c 2
 184 431 l 1
 184 484 l 2
 184 571 261 617 341 617 c 0
 357 617 437 617 437 557 c 0xe8
EndSplineSet
EndChar

StartChar: g
Encoding: 103 103 72
Width: 525
GlyphClass: 2
Flags: MW
HStem: -229 60<212 312 212 326> 4 57<211 279.5> 116 60<208.5 259 206 279> 347 95<430.5 477.5> 377 65 417 20G<186 256>
VStem: 29 58<-104 -76.5> 68 69<255.5 304.5> 80 57<113 115 113 129> 329 69<248.5 292 232.5 303.5> 329 180<248.5 399.5> 437 58<-104 -63.5 -124.5 -39>
LayerCount: 2
Fore
SplineSet
509 388 m 0xf220
 509 359 486 347 469 347 c 0
 459 347 436 354 430 381 c 1
 417 380 393 376 372 364 c 1
 389 336 398 307 398 277 c 0
 398 188 325 116 233 116 c 0
 184 116 146 139 143 141 c 1
 139 131 137 117 137 113 c 1xf150
 137 113 138 91 149 77 c 0
 161 63 167 63 182 63 c 1
 190 61 203 61 211 61 c 2
 281 61 l 2
 371 61 413 39 426 32 c 0
 477 5 495 -45 495 -82 c 0
 495 -167 390 -229 262 -229 c 0
 134 -229 29 -168 29 -82 c 0xf250
 29 -71 29 -3 103 42 c 1
 94 54 80 79 80 114 c 0xf0d0
 80 144 89 166 100 182 c 1
 85 201 68 234 68 277 c 0
 68 362 139 437 233 437 c 0xe550
 279 437 314 418 330 407 c 1
 376 441 425 442 436 442 c 0
 490 442 509 411 509 388 c 0xf220
329 277 m 0
 329 330 287 377 233 377 c 0
 181 377 137 333 137 276 c 0
 137 223 179 176 233 176 c 0
 285 176 329 220 329 277 c 0
437 -82 m 0xf250
 437 4 324 4 235 4 c 0
 162 4 153 4 128 -12 c 0
 96 -32 87 -64 87 -82 c 0
 87 -126 162 -169 262 -169 c 0
 362 -169 437 -126 437 -82 c 0xf250
EndSplineSet
EndChar

StartChar: h
Encoding: 104 104 73
Width: 525
GlyphClass: 2
Flags: MW
HStem: 0 61<45 97 53 97 166 210 210 211 319 358 427 471 471 472> 376 61<265.5 317.5> 550 61<45 126 53 97>
VStem: 12 154<15 238 565 570> 97 69<61 238 384 550 550 550> 97 154<15 550> 278 149<15 293> 358 69<61 288 288 293 61 318> 358 154<15 288>
LayerCount: 2
Fore
SplineSet
512 30 m 0xf080
 512 0 486 0 472 0 c 2
 319 0 l 2
 305 0 278 0 278 30 c 0xf2
 278 61 303 61 319 61 c 2
 358 61 l 1
 358 288 l 2
 358 348 344 376 291 376 c 0
 240 376 166 338 166 238 c 2
 166 61 l 1xf1
 210 61 l 2
 226 61 251 61 251 30 c 0xe6
 251 0 225 0 211 0 c 2
 52 0 l 2
 38 0 12 0 12 30 c 0xf2
 12 61 37 61 53 61 c 2
 97 61 l 1
 97 550 l 1xea
 52 550 l 2
 38 550 12 550 12 580 c 0
 12 611 37 611 53 611 c 2
 126 611 l 2
 160 611 166 601 166 570 c 2
 166 384 l 1
 185 403 230 437 297 437 c 0
 376 437 427 394 427 293 c 2
 427 61 l 1xf2
 471 61 l 2
 487 61 512 61 512 30 c 0xf080
EndSplineSet
EndChar

StartChar: i
Encoding: 105 105 74
Width: 525
GlyphClass: 2
Flags: MW
HStem: 0 61<111.5 240 119 240 309 414> 370 61<119.5 269 127 240> 505 100<249 277>
VStem: 86 223<385.5 390 61 416> 213 96 240 69<61 370 370 370> 240 215<15 370>
LayerCount: 2
Fore
SplineSet
455 30 m 0xe2
 455 0 429 0 414 0 c 2
 119 0 l 2
 104 0 78 0 78 30 c 0
 78 61 103 61 119 61 c 2
 240 61 l 1
 240 370 l 1xe4
 127 370 l 2
 112 370 86 370 86 401 c 0
 86 431 112 431 127 431 c 2
 269 431 l 2
 303 431 309 421 309 390 c 2
 309 61 l 1xf0
 414 61 l 2
 429 61 455 61 455 30 c 0xe2
313 555 m 0
 313 527 291 505 263 505 c 0
 235 505 213 527 213 555 c 0xe8
 213 583 235 605 263 605 c 0
 291 605 313 583 313 555 c 0
EndSplineSet
EndChar

StartChar: j
Encoding: 106 106 75
Width: 525
GlyphClass: 2
Flags: MW
HStem: -228 61<177.5 203.5 177.5 259.5> -228 122<81.5 259.5> 370 61<161.5 328 170 299> 505 100<305 333>
VStem: 129 239<385 390> 269 99 299 69<-39 370 370 370>
LayerCount: 2
Fore
SplineSet
368 -44 m 2xb8
 368 -108 332 -228 187 -228 c 0
 146 -228 48 -228 48 -152 c 0
 48 -123 70 -106 93 -106 c 0x78
 114 -106 137 -123 137 -151 c 0
 137 -158 137 -160 136 -163 c 1
 151 -165 163 -167 192 -167 c 0
 215 -167 246 -167 273 -129 c 0
 299 -94 299 -56 299 -39 c 2
 299 370 l 1xb2
 169 370 l 2
 154 370 129 370 129 400 c 0
 129 431 154 431 170 431 c 2
 328 431 l 2
 362 431 368 421 368 390 c 2
 368 -44 l 2xb8
369 555 m 0
 369 527 347 505 319 505 c 0
 291 505 269 527 269 555 c 0xb4
 269 583 291 605 319 605 c 0
 347 605 369 583 369 555 c 0
EndSplineSet
EndChar

StartChar: k
Encoding: 107 107 76
Width: 525
GlyphClass: 2
Flags: MW
HStem: 0 61<53 110 61 110 166 215 347 349 349 365 436 467> 370 61<283.5 445 291 328 410 410 410 445> 550 61<53 126 61 110>
VStem: 21 145<15.5 142 565.5 570> 110 56<61 142 218 550 550 550> 110 145<15 550> 251 235<385 415.5> 309 199<15 45.5>
LayerCount: 2
Fore
SplineSet
508 30 m 0xf1
 508 0 482 0 467 0 c 2
 349 0 l 2
 334 0 309 0 309 30 c 0
 309 61 329 61 365 61 c 1
 246 216 l 1
 166 142 l 1
 166 61 l 1xf1
 215 61 l 2
 231 61 255 61 255 30 c 0xe5
 255 0 230 0 215 0 c 2
 61 0 l 2
 45 0 21 0 21 31 c 0xf2
 21 61 46 61 61 61 c 2
 110 61 l 1
 110 550 l 1xea
 61 550 l 2
 45 550 21 550 21 581 c 0
 21 611 46 611 61 611 c 2
 126 611 l 2
 160 611 166 601 166 570 c 2
 166 218 l 1
 328 370 l 1
 291 370 l 2
 276 370 251 370 251 400 c 0
 251 431 275 431 291 431 c 2
 445 431 l 2
 460 431 486 431 486 400 c 0xf2
 486 370 460 370 445 370 c 2
 410 370 l 1
 287 255 l 1
 436 61 l 1
 467 61 l 2
 482 61 508 61 508 30 c 0xf1
EndSplineSet
EndChar

StartChar: l
Encoding: 108 108 77
Width: 525
GlyphClass: 2
Flags: MW
HStem: 0 61<91 228 99 228 297 427> 550 61<91 257 99 228>
VStem: 58 239<15 570 565 570 61 595.5> 228 69<61 550 550 550> 228 239<15 550>
LayerCount: 2
Fore
SplineSet
467 30 m 0xc8
 467 0 442 0 427 0 c 2
 98 0 l 2
 84 0 58 0 58 30 c 0xe0
 58 61 83 61 99 61 c 2
 228 61 l 1
 228 550 l 1xd0
 98 550 l 2
 84 550 58 550 58 580 c 0
 58 611 83 611 99 611 c 2
 257 611 l 2
 291 611 297 601 297 570 c 2
 297 61 l 1xe0
 427 61 l 2
 443 61 467 61 467 30 c 0xc8
EndSplineSet
EndChar

StartChar: m
Encoding: 109 109 78
Width: 525
GlyphClass: 2
Flags: MW
HStem: 0 61<35 37 37 53 109 125 218.5 225 225 228 284 300 393.5 400 400 403 459 475> 376 61<179 202.5 355 377.5> 411 20G<37 69 69 78>
VStem: -4 113<15 240> 53 56<61 240 61 370> 53 113<15 370> 184 100<15 240> 228 56<61 240 61 294 61 326.5> 228 113<15 294> 359 100<15 303> 403 56<61 294 294 303 61 326.5> 403 113<15 294>
LayerCount: 2
Fore
SplineSet
516 30 m 0xd210
 516 0 490 0 475 0 c 2
 400 0 l 2
 386 0 359 0 359 30 c 0xd240
 359 61 384 61 403 61 c 1
 403 294 l 2
 403 359 389 376 366 376 c 0
 325 376 284 329 284 240 c 2
 284 61 l 1xd220
 320 61 341 61 341 30 c 0xd0c0
 341 0 315 0 300 0 c 2
 225 0 l 2
 211 0 184 0 184 30 c 0xd240
 184 61 209 61 228 61 c 1
 228 294 l 2
 228 359 214 376 191 376 c 0
 150 376 109 329 109 240 c 2
 109 61 l 1xd140
 145 61 166 61 166 30 c 0xc640
 166 0 140 0 125 0 c 2
 37 0 l 2
 23 0 -4 0 -4 30 c 0xd240
 -4 61 17 61 53 61 c 1
 53 370 l 1xca40
 17 370 -4 370 -4 401 c 0
 -4 431 22 431 37 431 c 2
 69 431 l 2xb240
 87 431 107 431 109 401 c 1
 133 423 163 437 195 437 c 0
 228 437 256 419 271 385 c 1
 299 424 340 437 370 437 c 0
 459 437 459 323 459 303 c 2
 459 61 l 1xd240
 495 61 516 61 516 30 c 0xd210
EndSplineSet
EndChar

StartChar: n
Encoding: 110 110 79
Width: 525
GlyphClass: 2
Flags: MW
HStem: 0 61<45 97 53 97 166 210 210 211 319 358 427 471 471 472> 376 61<265.5 317.5> 411 20G<53 126 126 146>
VStem: 12 154<15 238 385 400> 97 69<61 238 61 370> 97 154<15 370> 278 149<15 293> 358 69<61 288 288 293 61 318> 358 154<15 288>
LayerCount: 2
Fore
SplineSet
512 30 m 0xd080
 512 0 486 0 472 0 c 2
 319 0 l 2
 305 0 278 0 278 30 c 0xd2
 278 61 303 61 319 61 c 2
 358 61 l 1
 358 288 l 2
 358 348 344 376 291 376 c 0
 240 376 166 338 166 238 c 2
 166 61 l 1xd1
 210 61 l 2
 226 61 251 61 251 30 c 0xc6
 251 0 225 0 211 0 c 2
 52 0 l 2
 38 0 12 0 12 30 c 0xd2
 12 61 37 61 53 61 c 2
 97 61 l 1
 97 370 l 1xca
 52 370 l 2
 38 370 12 370 12 400 c 0
 12 431 37 431 53 431 c 2
 126 431 l 2xb2
 166 431 166 416 166 384 c 1
 185 403 230 437 297 437 c 0
 376 437 427 394 427 293 c 2
 427 61 l 1xd2
 471 61 l 2
 487 61 512 61 512 30 c 0xd080
EndSplineSet
EndChar

StartChar: o
Encoding: 111 111 80
Width: 525
GlyphClass: 2
Flags: MW
HStem: -6 61<225 299 225 317> 379 61<226.5 298>
VStem: 57 69<176.5 268.5 176.5 278.5> 398 69<176.5 268.5>
LayerCount: 2
Fore
SplineSet
467 216 m 0
 467 90 372 -6 262 -6 c 0
 152 -6 57 89 57 216 c 0
 57 341 150 440 262 440 c 0
 374 440 467 341 467 216 c 0
398 223 m 0
 398 314 334 379 262 379 c 0
 191 379 126 314 126 223 c 0
 126 130 188 55 262 55 c 0
 336 55 398 130 398 223 c 0
EndSplineSet
EndChar

StartChar: p
Encoding: 112 112 81
Width: 525
GlyphClass: 2
Flags: MW
HStem: -222 61<45 97 53 97 166 210 210 211> -6 61<266 314 240 336.5> 376 61<269 324> 411 20G<53 126 126 145>
VStem: 12 154<-207 45 388 402.5> 97 69<-161 45 167 191 191 264> 97 154<-207 370> 419 69<168 259.5>
LayerCount: 2
Fore
SplineSet
488 216 m 0xe9
 488 89 391 -6 282 -6 c 0
 250 -6 207 3 166 45 c 1
 166 -161 l 1xe9
 210 -161 l 2
 226 -161 251 -161 251 -192 c 0xe3
 251 -222 225 -222 211 -222 c 2
 52 -222 l 2
 38 -222 12 -222 12 -192 c 0xe9
 12 -161 37 -161 53 -161 c 2
 97 -161 l 1
 97 370 l 1xe5
 52 370 l 2
 38 370 12 370 12 400 c 0
 12 431 37 431 53 431 c 2
 126 431 l 2xd9
 164 431 166 417 166 388 c 1
 200 419 245 437 293 437 c 0
 399 437 488 339 488 216 c 0xe9
419 216 m 0
 419 303 361 376 287 376 c 0
 224 376 166 323 166 264 c 2
 166 191 l 2
 166 143 201 55 279 55 c 0
 349 55 419 120 419 216 c 0
EndSplineSet
EndChar

StartChar: q
Encoding: 113 113 82
Width: 525
GlyphClass: 2
Flags: MW
HStem: -222 61<322 379 330 379 448 497> -6 61<211 278> 376 61<219 282.5 198 296.5>
VStem: 40 69<170 261 170 278.5> 290 158<-206.5 396> 379 69<-161 54 54 54 194 233 233 266 382 396 -161 401> 379 158<-207 54>
LayerCount: 2
Fore
SplineSet
537 -192 m 0xf2
 537 -222 512 -222 497 -222 c 2
 330 -222 l 2
 314 -222 290 -222 290 -191 c 0xf8
 290 -161 315 -161 330 -161 c 2
 379 -161 l 1
 379 54 l 1
 358 31 312 -6 244 -6 c 0
 134 -6 40 91 40 215 c 0
 40 342 142 437 254 437 c 0
 311 437 352 411 379 382 c 1xf4
 379 420 379 437 414 437 c 0
 448 437 448 415 448 396 c 2
 448 -161 l 1xf8
 497 -161 l 2
 513 -161 537 -161 537 -192 c 0xf2
379 194 m 2
 379 233 l 2
 379 299 334 376 259 376 c 0
 179 376 109 307 109 215 c 0
 109 125 174 55 248 55 c 0
 330 55 379 137 379 194 c 2
EndSplineSet
EndChar

StartChar: r
Encoding: 114 114 83
Width: 525
GlyphClass: 2
Flags: MW
HStem: 0 61<64 153 72 153 222 333> 332 105<432.5 433.5 366.5 456> 376 61<366.5 402> 411 20G<72 182 182 199>
VStem: 32 190<15.5 186 385.5 390> 153 69<61 186 356 370 370 370> 153 221<15 370>
LayerCount: 2
Fore
SplineSet
487 375 m 0xa8
 487 348 467 332 445 332 c 0xc8
 420 332 403 352 402 376 c 1
 281 376 222 280 222 186 c 2
 222 61 l 1xa8
 333 61 l 2
 348 61 374 61 374 30 c 0xc2
 374 0 348 0 333 0 c 2
 72 0 l 2
 56 0 32 0 32 31 c 0xc8
 32 61 57 61 72 61 c 2
 153 61 l 1
 153 370 l 1xc4
 72 370 l 2
 56 370 32 370 32 401 c 0
 32 431 57 431 72 431 c 2
 182 431 l 2x98
 216 431 222 421 222 390 c 2
 222 356 l 1
 277 419 341 437 392 437 c 0
 475 437 487 395 487 375 c 0xa8
EndSplineSet
EndChar

StartChar: s
Encoding: 115 115 84
Width: 525
GlyphClass: 2
Flags: MW
HStem: -6 61<255 315.5 246.5 348> -6 179<89.5 106.5 89.5 348> 289 151<387 411.5> 379 61<212.5 271.5 178.5 301.5>
VStem: 72 61<302.5 335 302.5 340> 398 61<106.5 151.5>
LayerCount: 2
Fore
SplineSet
459 125 m 0x9c
 459 77 427 -6 269 -6 c 0
 241 -6 188 -4 139 32 c 1
 127 -5 111 -6 102 -6 c 0
 72 -6 72 19 72 35 c 2
 72 132 l 2
 72 152 72 173 107 173 c 0x6c
 133 173 137 162 142 144 c 0
 167 66 223 55 270 55 c 0
 361 55 398 88 398 125 c 0
 398 178 318 191 269 199 c 0
 177 213 72 230 72 322 c 0
 72 358 95 440 262 440 c 0
 281 440 325 440 369 419 c 1
 371 426 375 440 399 440 c 0
 429 440 429 415 429 399 c 2
 429 330 l 2
 429 310 429 289 394 289 c 0xac
 363 289 361 306 360 323 c 0
 357 349 343 379 260 379 c 0
 165 379 133 348 133 322 c 0
 133 283 201 271 230 267 c 1
 298 255 l 2
 330 250 459 229 459 125 c 0x9c
EndSplineSet
EndChar

StartChar: t
Encoding: 116 116 85
Width: 525
GlyphClass: 2
Flags: MW
HStem: -6 61<260.5 310.5 260.5 331> -6 171<257.5 431.5> 370 61<57.5 153 66 153 66 153 222 386> 370 184<57.5 205 65 205 170.5 222 170.5 386>
VStem: 25 197 153 69<126 132 132 370 431 513> 380 69<127 135 81.5 135.5>
LayerCount: 2
Fore
SplineSet
449 126 m 0x6a
 449 37 368 -6 294 -6 c 0
 221 -6 153 30 153 126 c 2
 153 370 l 1xa6
 65 370 l 2
 50 370 25 370 25 400 c 0xaa
 25 431 50 431 66 431 c 2
 153 431 l 1xa6
 153 513 l 2
 153 533 153 554 188 554 c 0x96
 222 554 222 532 222 513 c 2
 222 431 l 1
 386 431 l 2
 402 431 426 431 426 400 c 0
 426 370 401 370 386 370 c 2
 222 370 l 1
 222 132 l 2
 222 107 222 55 299 55 c 0xaa
 322 55 379 65 380 127 c 0
 380 144 381 165 414 165 c 0
 449 165 449 144 449 126 c 0x6a
EndSplineSet
EndChar

StartChar: u
Encoding: 117 117 86
Width: 525
GlyphClass: 2
Flags: MW
HStem: -6 61<205.5 259.5> 0 21G<389 398 398 471> 370 61<45 126 53 97 314 358>
VStem: 12 154<385 390> 97 69<114 120 120 370 370 370> 273 154<385 390 61 415.5> 358 69<157 370 370 370> 358 154<15.5 370>
LayerCount: 2
Fore
SplineSet
512 31 m 0xb1
 512 0 487 0 471 0 c 2
 398 0 l 2x71
 380 0 359 0 358 32 c 1
 321 4 280 -6 239 -6 c 0
 166 -6 97 18 97 114 c 2
 97 370 l 1xa9
 52 370 l 2
 38 370 12 370 12 400 c 0
 12 431 37 431 53 431 c 2
 126 431 l 2
 160 431 166 421 166 390 c 2
 166 120 l 2
 166 88 166 55 245 55 c 0
 277 55 358 67 358 157 c 2
 358 370 l 1xb2
 313 370 l 2
 299 370 273 370 273 400 c 0
 273 431 298 431 314 431 c 2
 387 431 l 2
 421 431 427 421 427 390 c 2
 427 61 l 1xb4
 472 61 l 2
 486 61 512 61 512 31 c 0xb1
EndSplineSet
EndChar

StartChar: v
Encoding: 118 118 87
Width: 525
GlyphClass: 2
Flags: MW
HStem: -4 21G<251.5 271.5> 370 61<56.5 181 64 94 153 153 153 181 343 371 430 460 430 430>
VStem: 24 197<385 415.5> 303 197<385.5 415.5 385 416>
LayerCount: 2
Fore
SplineSet
500 400 m 0
 500 370 475 370 460 370 c 2
 430 370 l 1
 315 29 l 2
 304 -4 281 -4 262 -4 c 0
 241 -4 221 -4 209 30 c 2
 94 370 l 1
 64 370 l 2
 49 370 24 370 24 400 c 0
 24 431 48 431 64 431 c 2
 181 431 l 2
 197 431 221 431 221 400 c 0
 221 370 196 370 181 370 c 2
 153 370 l 1
 262 48 l 1
 371 370 l 1
 343 370 l 2
 327 370 303 370 303 401 c 0
 303 431 328 431 343 431 c 2
 460 431 l 2
 476 431 500 431 500 400 c 0
EndSplineSet
EndChar

StartChar: w
Encoding: 119 119 88
Width: 525
GlyphClass: 2
Flags: MW
HStem: -4 21G<154 194 347 371.5> 370 61<58 67 124 124 124 173 351 400 457 466 466 472>
VStem: 16 199<385.5 415.5 385 416> 309 199<385.5 416>
LayerCount: 2
Fore
SplineSet
508 401 m 0
 508 370 487 370 457 370 c 1
 397 34 l 2
 393 12 390 -4 353 -4 c 0
 341 -4 323 -4 311 13 c 1
 307 21 270 138 265 190 c 1
 264 190 l 1
 261 168 260 154 235 66 c 0
 217 5 214 -4 174 -4 c 0
 134 -4 131 11 127 34 c 2
 67 370 l 1
 37 370 16 370 16 401 c 0
 16 431 40 431 58 431 c 2
 173 431 l 2
 192 431 215 431 215 400 c 0
 215 370 191 370 173 370 c 2
 124 370 l 1
 176 72 l 1
 177 72 l 1
 181 92 221 230 224 237 c 0
 235 259 254 259 264 259 c 0
 299 259 302 248 320 185 c 0
 332 144 345 98 349 72 c 1
 350 72 l 1
 400 370 l 1
 351 370 l 2
 332 370 309 370 309 401 c 0
 309 431 333 431 351 431 c 2
 466 431 l 2
 484 431 508 431 508 401 c 0
EndSplineSet
EndChar

StartChar: x
Encoding: 120 120 89
Width: 525
GlyphClass: 2
Flags: MW
HStem: 0 61<61 108 68 108 173 185 334 338 338 348 415 455> 370 61<67 191 74 114 183 191 191 196 324 333 401 401 401 441>
VStem: 33 198<385.5 415.5> 284 198<385.5 415.5 385 416> 298 198<15 45.5>
LayerCount: 2
Fore
SplineSet
496 30 m 0xe8
 496 0 469 0 455 0 c 2
 338 0 l 2
 323 0 298 0 298 30 c 0xe8
 298 61 320 61 348 61 c 1
 259 184 l 1
 173 61 l 1
 204 61 225 61 225 30 c 0
 225 0 200 0 185 0 c 2
 68 0 l 2
 54 0 27 0 27 30 c 0
 27 61 53 61 68 61 c 2
 108 61 l 1
 232 222 l 1
 114 370 l 1
 74 370 l 2
 60 370 33 370 33 400 c 0
 33 431 59 431 74 431 c 2
 191 431 l 2
 206 431 231 431 231 401 c 0
 231 370 209 370 183 370 c 1
 259 269 l 1
 333 370 l 1
 306 370 284 370 284 401 c 0
 284 431 309 431 324 431 c 2
 441 431 l 2
 456 431 482 431 482 400 c 0xf0
 482 370 455 370 441 370 c 2
 401 370 l 1
 287 222 l 1
 415 61 l 1
 455 61 l 2
 470 61 496 61 496 30 c 0xe8
EndSplineSet
EndChar

StartChar: y
Encoding: 121 121 90
Width: 525
GlyphClass: 2
Flags: MW
HStem: -228 126<73.5 176> 370 61<58.5 183 66 97 158 158 158 183 343 371 430 460 430 430>
VStem: 26 197<385 415.5> 43 87<-151.5 -133> 303 197<385.5 415.5 385 416>
LayerCount: 2
Fore
SplineSet
500 400 m 0xe8
 500 370 475 370 460 370 c 2
 430 370 l 1
 275 -85 l 2
 271 -96 226 -228 126 -228 c 0
 77 -228 43 -188 43 -146 c 0
 43 -120 60 -102 87 -102 c 0
 112 -102 130 -120 130 -145 c 0xd8
 130 -158 125 -167 125 -167 c 1
 140 -166 176 -164 205 -109 c 0
 218 -84 243 0 243 0 c 1
 243 0 243 3 239 13 c 2
 97 370 l 1
 66 370 l 2
 51 370 26 370 26 400 c 0
 26 431 50 431 66 431 c 2
 183 431 l 2
 199 431 223 431 223 400 c 0
 223 370 198 370 183 370 c 2
 158 370 l 1
 251 130 l 2
 258 111 267 90 272 71 c 1
 273 71 l 1
 280 102 286 120 299 157 c 2
 371 370 l 1
 343 370 l 2
 327 370 303 370 303 401 c 0
 303 431 328 431 343 431 c 2
 460 431 l 2
 476 431 500 431 500 400 c 0xe8
EndSplineSet
EndChar

StartChar: z
Encoding: 122 122 91
Width: 525
GlyphClass: 2
Flags: MW
HStem: 0 61<137 406 137 453> 0 140<423.5 453> 303 128<90 100.5> 370 61<118 367 118 118>
VStem: 49 69<344 370 334 390 334 406.5> 406 69<61 99 33.5 109>
LayerCount: 2
Fore
SplineSet
475 41 m 2x6c
 475 26 475 6 453 0 c 1
 74 0 l 2
 55 0 33 0 33 34 c 0
 33 51 34 54 55 74 c 2
 367 370 l 1
 118 370 l 1x9c
 118 344 l 2
 118 324 118 303 83 303 c 0
 49 303 49 325 49 344 c 2
 49 390 l 2
 49 423 57 431 90 431 c 2
 430 431 l 2
 449 431 471 431 471 397 c 0
 471 380 470 377 449 357 c 2
 137 61 l 1
 406 61 l 1xac
 406 99 l 2
 406 119 406 140 441 140 c 0
 475 140 475 118 475 99 c 2
 475 41 l 2x6c
EndSplineSet
EndChar

StartChar: braceleft
Encoding: 123 123 92
Width: 525
GlyphClass: 2
Flags: MW
HStem: -83 61<433 434> 613 20G<423.5 444> 674 20G<390 434>
VStem: 57 240 228 69<51 209 419 509 509 520>
LayerCount: 2
Fore
SplineSet
467 -52 m 0xf0
 467 -83 443 -83 425 -83 c 0
 377 -83 322 -76 280 -53 c 0
 228 -24 228 21 228 51 c 2
 228 217 l 1xe8
 226 271 117 274 91 275 c 0
 81 275 57 276 57 306 c 0xf0
 57 330 77 336 83 336 c 0
 106 336 156 337 192 352 c 0
 228 368 228 383 228 419 c 2
 228 509 l 2xe8
 228 537 228 587 229 593 c 0
 246 681 355 694 425 694 c 0
 443 694 467 694 467 663 c 0
 467 639 447 633 441 633 c 0
 406 633 318 631 300 593 c 0
 297 585 297 545 297 520 c 2
 297 388 l 1
 296 363 281 330 239 305 c 1
 294 275 297 234 297 209 c 2
 297 48 l 2
 297 17 297 -19 433 -22 c 0
 442 -22 467 -23 467 -52 c 0xf0
EndSplineSet
EndChar

StartChar: bar
Encoding: 124 124 93
Width: 525
GlyphClass: 2
Flags: MW
HStem: -83 21G<244.5 279.5> 674 20G<244.5 279.5>
VStem: 227 70<-36 647>
LayerCount: 2
Fore
SplineSet
297 -36 m 2
 297 -48 297 -83 262 -83 c 0
 227 -83 227 -48 227 -36 c 2
 227 647 l 2
 227 659 227 694 262 694 c 0
 297 694 297 659 297 647 c 2
 297 -36 l 2
EndSplineSet
EndChar

StartChar: braceright
Encoding: 125 125 94
Width: 525
GlyphClass: 2
Flags: MW
HStem: -83 61<80 142.5> 633 61<83 116.5>
LayerCount: 2
Fore
SplineSet
467 305 m 0
 467 281 447 275 441 275 c 0
 417 275 369 274 333 259 c 0
 297 243 297 228 297 192 c 2
 297 102 l 2
 297 74 297 24 296 18 c 0
 281 -63 186 -83 99 -83 c 0
 82 -83 57 -83 57 -52 c 0
 57 -28 77 -22 83 -22 c 0
 228 -20 228 16 228 45 c 2
 228 223 l 2
 228 227 230 274 286 306 c 1
 243 329 228 361 228 401 c 2
 228 562 l 2
 228 595 228 631 90 633 c 0
 76 633 57 637 57 663 c 0
 57 694 82 694 99 694 c 0
 134 694 197 690 245 664 c 0
 297 635 297 590 297 562 c 2
 297 395 l 1
 299 339 409 337 433 336 c 0
 443 336 467 335 467 305 c 0
EndSplineSet
EndChar

StartChar: asciitilde
Encoding: 126 126 95
Width: 525
GlyphClass: 2
Flags: MW
HStem: 246 120<111 232 201.5 324.5>
LayerCount: 2
Fore
SplineSet
438 334 m 0
 438 316 409 294 389 279 c 0
 366 262 338 246 311 246 c 0
 277 246 257 267 244 280 c 0
 231 292 223 301 213 301 c 0
 199 301 173 285 143 257 c 0
 136 251 130 246 119 246 c 0
 103 246 88 262 88 278 c 0
 88 296 117 318 137 333 c 0
 160 350 188 366 215 366 c 0
 249 366 269 345 282 332 c 0
 295 320 303 311 313 311 c 0
 327 311 353 327 383 355 c 0
 390 361 396 366 407 366 c 0
 423 366 438 350 438 334 c 0
EndSplineSet
EndChar

StartChar: exclamdown
Encoding: 161 161 97
Width: 525
GlyphClass: 2
Flags: MW
HStem: -233 21G<257.5 266.5> 205 84<248 268> 289 100<248 276>
VStem: 212 96
LayerCount: 2
Fore
SplineSet
312 339 m 0xb0
 312 311 290 289 262 289 c 0
 234 289 212 311 212 339 c 0
 212 367 234 389 262 389 c 0
 290 389 312 367 312 339 c 0xb0
312 -176 m 1
 312 -229 271 -233 262 -233 c 0
 253 -233 212 -229 212 -176 c 0
 212 -123 216 -68 217 -16 c 2
 221 157 l 1
 223 197 227 205 262 205 c 0xd0
 274 205 301 205 302 180 c 2
 305 58 l 1
 312 -176 l 1
EndSplineSet
EndChar

StartChar: cent
Encoding: 162 162 98
Width: 525
GlyphClass: 2
Flags: MW
HStem: -93 21G<280.5 297.5> 321 119<320 421> 504 20G<280.5 297.5>
VStem: 73 69<178 237 178 255.5> 258 62<-62 -5 -70.5 -3 -70.5 -3 61 374 374 374 440 493> 258 196<352.5 374 374 374 352.5 493 352.5 501.5> 258 208<-62 123 -3 123 101 123 101 374>
LayerCount: 2
Fore
SplineSet
466 109 m 0xf2
 466 93 436 7 320 -5 c 1
 320 -62 l 2
 320 -79 306 -93 289 -93 c 0
 272 -93 258 -79 258 -62 c 2
 258 -3 l 1
 150 14 73 107 73 216 c 0
 73 295 122 414 258 436 c 1
 258 493 l 2
 258 510 272 524 289 524 c 0
 306 524 320 510 320 493 c 2
 320 440 l 1xf8
 369 439 454 433 454 367 c 0xf4
 454 338 433 321 409 321 c 0
 385 321 366 335 365 370 c 0
 365 377 340 379 320 379 c 1
 320 56 l 1xf8
 377 64 393 103 398 115 c 0
 405 135 415 137 431 137 c 0
 437 137 466 137 466 109 c 0xf2
258 61 m 1
 258 374 l 1
 163 350 142 258 142 216 c 0
 142 140 192 79 258 61 c 1
EndSplineSet
EndChar

StartChar: sterling
Encoding: 163 163 99
Width: 525
GlyphClass: 2
Flags: MW
HStem: -11 70<107 132 107 144 370 411.5> 106 70<131 153 112 154> 271 70<73.5 115 83 115 83 148 218 218 218 346> 407 204<226 423> 541 70<245.5 298.5>
VStem: 18 70<75.5 93.5 75.5 111.5> 96 70<415 461 415 480.5> 367 88<439 457> 437 70<123.5 153.5>
LayerCount: 2
Fore
SplineSet
507 144 m 0xee80
 507 65 465 -11 394 -11 c 0
 341 -11 299 25 257 56 c 1
 231 14 174 -11 114 -11 c 0
 61 -11 18 30 18 82 c 0
 18 141 80 176 144 176 c 0
 162 176 178 172 193 166 c 1
 183 202 165 236 148 271 c 1
 83 271 l 2
 64 271 48 286 48 306 c 0
 48 325 64 341 83 341 c 2
 115 341 l 1
 104 369 96 399 96 431 c 0
 96 530 176 611 276 611 c 0
 371 611 455 543 455 451 c 0
 455 427 435 407 411 407 c 0
 387 407 367 427 367 451 c 0xf7
 367 463 372 473 379 481 c 1
 364 518 321 541 276 541 c 0
 215 541 166 491 166 431 c 0
 166 399 174 369 185 341 c 1
 346 341 l 2
 365 341 381 325 381 306 c 0
 381 286 365 271 346 271 c 2
 218 271 l 1
 243 221 269 171 271 116 c 1
 309 87 346 59 394 59 c 0
 429 59 437 103 437 144 c 0
 437 163 453 179 472 179 c 0
 492 179 507 163 507 144 c 0xee80
199 93 m 1
 182 101 164 106 144 106 c 0
 118 106 88 105 88 82 c 0
 88 69 100 59 114 59 c 0
 150 59 188 68 199 93 c 1
EndSplineSet
EndChar

StartChar: currency
Encoding: 164 164 100
Width: 525
GlyphClass: 2
Flags: MW
HStem: 157 70<248.5 277> 385 70<248.5 277 248.5 284.5>
VStem: 114 70<292 320> 341 70<291.5 320.5 291.5 327.5>
LayerCount: 2
Fore
SplineSet
421 147 m 0
 396 122 372 147 363 155 c 2
 340 179 l 1
 317 165 291 157 263 157 c 0
 234 157 207 165 185 179 c 1
 162 156 l 2
 153 148 128 123 104 148 c 1
 79 172 104 197 112 206 c 2
 135 229 l 1
 122 251 114 278 114 306 c 0
 114 334 122 361 135 383 c 1
 111 407 l 2
 103 416 78 440 103 465 c 0
 128 490 152 465 161 457 c 2
 185 433 l 1
 207 447 234 455 263 455 c 0
 291 455 317 447 340 433 c 1
 362 456 l 2
 371 464 396 489 420 464 c 1
 445 440 420 415 412 406 c 2
 389 384 l 1
 403 361 411 335 411 306 c 0
 411 277 403 251 389 228 c 1
 413 205 l 2
 421 196 446 172 421 147 c 0
341 306 m 0
 341 349 306 385 263 385 c 0
 219 385 184 349 184 306 c 0
 184 263 219 227 263 227 c 0
 306 227 341 263 341 306 c 0
EndSplineSet
EndChar

StartChar: yen
Encoding: 165 165 101
Width: 525
GlyphClass: 2
Flags: MW
HStem: 0 61<195 228 203 228 297 322> 193 70<95.5 219 105 219 105 228 306 420> 349 70<95.5 143 105 143 105 177 250 250 250 278 381 420> 550 61<51 163 59 80 157 163 163 169 361 367 444 465 444 444>
VStem: 19 184<565.5 596> 70 227<61 238 61 393.5> 163 134<15.5 193> 228 69<61 193 61 193> 228 134<15 193> 228 227<61 238 193 238> 321 184<565.5 595.5 565 596>
LayerCount: 2
Fore
SplineSet
505 580 m 0xf920
 505 550 480 550 465 550 c 2
 444 550 l 1
 381 419 l 1
 420 419 l 2
 439 419 455 403 455 384 c 0
 455 364 439 349 420 349 c 2
 347 349 l 1
 306 263 l 1
 420 263 l 2
 439 263 455 248 455 228 c 0xf840
 455 209 439 193 420 193 c 2
 297 193 l 1
 297 61 l 1xf420
 322 61 l 2
 338 61 362 61 362 30 c 0
 362 0 337 0 322 0 c 2
 203 0 l 2xf880
 187 0 163 0 163 31 c 0xf220
 163 61 188 61 203 61 c 2
 228 61 l 1
 228 193 l 1xf920
 105 193 l 2
 86 193 70 209 70 228 c 0
 70 248 86 263 105 263 c 2
 219 263 l 1
 177 349 l 1
 105 349 l 2
 86 349 70 364 70 384 c 0xf420
 70 403 86 419 105 419 c 2
 143 419 l 1
 80 550 l 1
 59 550 l 2
 43 550 19 550 19 581 c 0xf920
 19 611 44 611 59 611 c 2
 163 611 l 2xf220
 178 611 203 611 203 581 c 0
 203 550 181 550 157 550 c 1
 219 419 l 1
 309 419 l 1
 367 550 l 1
 343 550 321 550 321 581 c 0
 321 611 346 611 361 611 c 2
 465 611 l 2
 481 611 505 611 505 580 c 0xf920
278 349 m 1
 250 349 l 1
 255 335 260 323 262 314 c 1
 278 349 l 1
EndSplineSet
EndChar

StartChar: brokenbar
Encoding: 166 166 102
Width: 525
GlyphClass: 2
Flags: MW
HStem: -83 21G<244.5 279.5> 674 20G<244.5 279.5>
VStem: 227 70<-36 204 407 647>
LayerCount: 2
Fore
SplineSet
297 407 m 2
 297 389 281 376 262 376 c 0
 243 376 227 389 227 407 c 2
 227 647 l 2
 227 659 227 694 262 694 c 0
 297 694 297 659 297 647 c 2
 297 407 l 2
297 -36 m 2
 297 -48 297 -83 262 -83 c 0
 227 -83 227 -48 227 -36 c 2
 227 204 l 2
 227 222 243 235 262 235 c 0
 281 235 297 222 297 204 c 2
 297 -36 l 2
EndSplineSet
EndChar

StartChar: section
Encoding: 167 167 103
Width: 525
GlyphClass: 2
Flags: MW
HStem: -122 70<240.5 293.5 240.5 312.5> -122 171<102 312.5> 451 171<213.5 424> 552 70<232.5 285.5>
VStem: 36 70<280.5 318.5 280.5 327> 70 70<462 501.5 452 520.5> 70 88<0 17 0 17> 368 88<483 500> 386 70<-1.5 37.5 -20.5 48> 420 70<181 219.5>
LayerCount: 2
Fore
SplineSet
490 194 m 0x9440
 490 151 467 114 433 92 c 1
 447 73 456 50 456 25 c 0
 456 -66 362 -122 263 -122 c 0
 167 -122 70 -80 70 5 c 0
 70 29 90 49 114 49 c 0
 138 49 158 29 158 5 c 0x63
 158 -5 154 -15 149 -22 c 1
 168 -48 218 -52 263 -52 c 0
 324 -52 386 -28 386 25 c 0
 386 71 333 89 286 105 c 2
 183 140 l 2
 104 167 36 226 36 306 c 0xa880
 36 348 59 386 93 407 c 1
 79 427 70 449 70 475 c 0
 70 566 164 622 263 622 c 0
 359 622 456 580 456 495 c 0
 456 471 436 451 412 451 c 0
 388 451 368 471 368 495 c 0xa3
 368 505 372 515 377 522 c 1
 358 548 308 552 263 552 c 0
 202 552 140 528 140 475 c 0
 140 429 193 411 240 395 c 2
 343 360 l 2
 422 333 490 274 490 194 c 0x9440
420 194 m 0
 420 245 371 276 320 294 c 2
 217 329 l 2
 192 337 168 348 146 361 c 1
 122 355 106 331 106 306 c 0
 106 255 155 224 206 206 c 2
 309 171 l 2
 334 162 358 151 380 138 c 1
 404 145 420 168 420 194 c 0
EndSplineSet
EndChar

StartChar: dieresis
Encoding: 168 168 104
Width: 525
GlyphClass: 2
Flags: MW
HStem: 510 90<167.5 192.5 332.5 357.5>
VStem: 135 90<542.5 568> 300 90<542.5 568>
LayerCount: 2
Fore
SplineSet
225 555 m 0
 225 530 205 510 180 510 c 0
 155 510 135 530 135 555 c 0
 135 581 155 600 180 600 c 0
 205 600 225 581 225 555 c 0
390 555 m 0
 390 530 370 510 345 510 c 0
 320 510 300 530 300 555 c 0
 300 581 320 600 345 600 c 0
 370 600 390 581 390 555 c 0
EndSplineSet
EndChar

StartChar: copyright
Encoding: 169 169 105
Width: 525
GlyphClass: 2
Flags: MW
HStem: 0 38<201 324.5 201 335> 92 33<230.5 266.5 230.5 284.5> 314 119<341 352.5> 400 33<231 266.5 218 271> 487 38<201 324.5>
VStem: 0 38<201 324.5 201 335> 123 37<222.5 303 222.5 312> 325 37 487 38<201 324.5>
LayerCount: 2
Fore
SplineSet
525 263 m 0xdf80
 525 118 407 0 263 0 c 0
 118 0 0 118 0 263 c 0
 0 407 118 525 263 525 c 0
 407 525 525 407 525 263 c 0xdf80
487 263 m 0
 487 386 386 487 263 487 c 0
 139 487 38 386 38 263 c 0
 38 139 139 38 263 38 c 0
 386 38 487 139 487 263 c 0
362 188 m 0
 362 140 316 92 253 92 c 0
 183 92 123 164 123 263 c 0
 123 361 183 433 253 433 c 0
 280 433 305 423 323 407 c 1
 330 421 330 422 331 424 c 0
 334 428 336 433 346 433 c 0
 362 433 362 420 362 411 c 2
 362 336 l 2
 362 325 362 314 343 314 c 0xef80
 327 314 326 323 325 332 c 0
 317 376 287 400 255 400 c 0
 207 400 160 343 160 263 c 0
 160 182 206 125 255 125 c 0
 278 125 321 138 325 190 c 0
 326 206 339 206 343 206 c 0
 349 206 362 206 362 188 c 0
EndSplineSet
EndChar

StartChar: ordfeminine
Encoding: 170 170 106
Width: 525
GlyphClass: 2
Flags: MW
HStem: 237 43<151.5 365 160 365> 310 47 467 41<308 308> 579 43<203 219 194 268.5>
VStem: 98 49<390 421 390 437.5> 117 62<571 574 571 596.5> 308 49<408 467 467 467 508 514 362 533>
LayerCount: 2
Fore
SplineSet
427 336 m 0xf6
 427 314 411 314 392 314 c 0
 365 314 331 315 316 337 c 1
 283 315 240 310 214 310 c 0
 142 310 98 355 98 404 c 0xfa
 98 471 184 506 308 508 c 1
 308 558 272 579 219 579 c 2
 194 579 l 1
 180 577 179 577 179 571 c 0
 178 545 159 539 148 539 c 0
 131 539 117 550 117 571 c 0
 117 622 188 622 218 622 c 0
 319 622 357 563 357 514 c 2
 357 362 l 1
 362 360 369 357 399 357 c 0
 409 357 427 357 427 336 c 0xf6
396 258 m 0
 396 246 382 237 365 237 c 2
 160 237 l 2
 143 237 129 246 129 258 c 0
 129 270 143 280 160 280 c 2
 365 280 l 2
 382 280 396 270 396 258 c 0
308 408 m 2
 308 467 l 1
 207 464 147 438 147 404 c 0
 147 376 175 353 219 353 c 0
 224 353 256 353 281 365 c 0
 308 377 308 392 308 408 c 2
EndSplineSet
EndChar

StartChar: guillemotleft
Encoding: 171 171 107
Width: 525
GlyphClass: 2
Flags: MW
HStem: 81 21G<291.5 299.5 453 461.5> 511 20G<291.5 299.5 453 461.5>
LayerCount: 2
Fore
SplineSet
478 113 m 0
 478 92 467 81 456 81 c 0
 450 81 448 82 438 90 c 2
 220 278 l 2
 214 284 209 294 209 306 c 0
 209 323 217 330 223 336 c 2
 438 522 l 2
 448 530 450 531 456 531 c 0
 467 531 478 520 478 499 c 0
 478 482 470 475 463 469 c 2
 275 306 l 1
 463 143 l 2
 470 137 478 130 478 113 c 0
316 113 m 0
 316 92 305 81 294 81 c 0
 289 81 286 82 276 90 c 2
 58 278 l 2
 52 284 47 294 47 306 c 0
 47 323 55 330 61 336 c 2
 276 522 l 2
 286 530 289 531 294 531 c 0
 305 531 316 520 316 499 c 0
 316 482 308 475 301 469 c 2
 113 306 l 1
 301 143 l 2
 308 137 316 130 316 113 c 0
EndSplineSet
EndChar

StartChar: logicalnot
Encoding: 172 172 108
Width: 525
GlyphClass: 2
Flags: MW
HStem: 195 222<441.5 451 451 460.5> 347 70<63.5 451 73 416>
VStem: 416 70<230 347 347 347>
LayerCount: 2
Fore
SplineSet
486 230 m 2xa0
 486 211 470 195 451 195 c 0xa0
 432 195 416 211 416 230 c 2
 416 347 l 1
 73 347 l 2x60
 54 347 38 363 38 382 c 0
 38 401 54 417 73 417 c 2
 451 417 l 2
 470 417 486 401 486 382 c 2
 486 230 l 2xa0
EndSplineSet
EndChar

StartChar: uni00AD
Encoding: 173 173 109
Width: 525
GlyphClass: 2
Flags: MW
HStem: 271 70<97 421 103 421>
LayerCount: 2
Fore
SplineSet
468 306 m 0
 468 271 433 271 421 271 c 2
 103 271 l 2
 91 271 56 271 56 306 c 0
 56 341 91 341 103 341 c 2
 421 341 l 2
 433 341 468 341 468 306 c 0
EndSplineSet
EndChar

StartChar: registered
Encoding: 174 174 110
Width: 525
GlyphClass: 2
Flags: MW
HStem: 0 38<201 324.5 201 335> 101 27 101 181<160 254 215 228> 397 33<160 260 164 178 215 215 215 254> 487 38<201 324.5>
VStem: 0 38<201 324.5 201 335> 143 72<109 249> 178 37<134 249 134 282 282 397> 178 72<109 397> 313 37<170.5 198 166.5 199.5> 313 99<140.5 199.5> 327 37<329 353> 487 38<201 324.5>
LayerCount: 2
Fore
SplineSet
525 263 m 0xde28
 525 118 407 0 263 0 c 0
 118 0 0 118 0 263 c 0
 0 407 118 525 263 525 c 0
 407 525 525 407 525 263 c 0xde28
487 263 m 0
 487 386 386 487 263 487 c 0
 139 487 38 386 38 263 c 0
 38 139 139 38 263 38 c 0
 386 38 487 139 487 263 c 0
412 151 m 0
 412 130 399 95 365 95 c 0
 347 95 332 103 323 119 c 0
 313 137 313 153 313 188 c 0
 313 211 313 223 301 234 c 0
 283 249 267 249 257 249 c 2
 215 249 l 1
 215 134 l 1xde28
 228 134 l 2
 237 134 250 134 250 117 c 0xdcc8
 250 101 236 101 228 101 c 2
 164 101 l 2
 156 101 143 101 143 117 c 0xde48
 143 134 156 134 164 134 c 2
 178 134 l 1
 178 397 l 1xdd48
 164 397 l 2
 156 397 143 397 143 414 c 0
 143 430 156 430 164 430 c 2
 260 430 l 2
 323 430 364 386 364 340 c 0xde18
 364 318 354 285 319 265 c 1
 326 259 338 247 345 232 c 0
 350 219 350 215 350 181 c 0xde48
 350 152 350 128 365 128 c 0
 374 128 375 148 375 152 c 0
 376 168 388 168 394 168 c 0
 399 168 412 168 412 151 c 0
327 340 m 0xbe18
 327 366 303 397 254 397 c 2
 215 397 l 1
 215 282 l 1
 254 282 l 2
 303 282 327 313 327 340 c 0xbe18
EndSplineSet
EndChar

StartChar: macron
Encoding: 175 175 111
Width: 525
GlyphClass: 2
Flags: MW
HStem: 524 63<114 115 115 412>
LayerCount: 2
Fore
SplineSet
452 555 m 0
 452 524 428 524 412 524 c 2
 115 524 l 2
 98 524 74 524 74 556 c 0
 74 587 98 587 114 587 c 2
 412 587 l 2
 429 587 452 587 452 555 c 0
EndSplineSet
EndChar

StartChar: degree
Encoding: 176 176 112
Width: 525
GlyphClass: 2
Flags: MW
HStem: 319 70<242 283.5 242 303> 541 70<242 283.5>
VStem: 117 70<444 486 444 505.5> 338 70<444 486>
LayerCount: 2
Fore
SplineSet
408 465 m 0
 408 385 343 319 263 319 c 0
 182 319 117 385 117 465 c 0
 117 546 182 611 263 611 c 0
 343 611 408 546 408 465 c 0
338 465 m 0
 338 507 304 541 263 541 c 0
 221 541 187 507 187 465 c 0
 187 423 221 389 263 389 c 0
 304 389 338 423 338 465 c 0
EndSplineSet
EndChar

StartChar: plusminus
Encoding: 177 177 113
Width: 525
GlyphClass: 2
Flags: MW
HStem: 0 70<79 227 85 227 297 439> 190 70<79 227 85 227 297 439> 430 20G<244.5 279.5>
VStem: 227 70<70 190 70 190 260 403>
LayerCount: 2
Fore
SplineSet
486 35 m 0
 486 0 451 0 439 0 c 2
 85 0 l 2
 73 0 38 0 38 35 c 0
 38 70 73 70 85 70 c 2
 227 70 l 1
 227 190 l 1
 85 190 l 2
 73 190 38 190 38 225 c 0
 38 260 73 260 85 260 c 2
 227 260 l 1
 227 403 l 2
 227 415 227 450 262 450 c 0
 297 450 297 415 297 403 c 2
 297 260 l 1
 439 260 l 2
 451 260 486 260 486 225 c 0
 486 190 451 190 439 190 c 2
 297 190 l 1
 297 70 l 1
 439 70 l 2
 451 70 486 70 486 35 c 0
EndSplineSet
EndChar

StartChar: two.superior
Encoding: 178 178 114
Width: 525
GlyphClass: 2
Flags: MW
HStem: 311 31<214 333 214 348> 311 54<342 348> 592 30<240 274.5>
VStem: 158 210<324 330.5 529.5 555> 333 35<342 345 324 349 507.5 547>
LayerCount: 2
Fore
SplineSet
368 332 m 2x68
 368 316 364 311 348 311 c 2
 178 311 l 2
 170 311 158 311 158 327 c 0xb0
 158 334 161 336 165 340 c 2
 276 433 l 2
 309 461 333 490 333 525 c 0xa8
 333 569 295 592 254 592 c 0
 226 592 203 576 195 553 c 1
 200 550 202 543 202 537 c 0
 202 523 191 515 180 515 c 0
 172 515 158 520 158 539 c 0xb0
 158 581 197 622 256 622 c 0
 317 622 368 585 368 525 c 0
 368 485 345 453 313 425 c 1
 292 405 244 367 214 342 c 1
 333 342 l 1xa8
 333 356 333 365 351 365 c 0
 368 365 368 354 368 345 c 2
 368 332 l 2x68
EndSplineSet
EndChar

StartChar: three.superior
Encoding: 179 179 115
Width: 525
GlyphClass: 2
Flags: MW
HStem: 306 30<254 286.5 254 296.5> 461 161<235 239 239 262>
VStem: 168 189<555.5 570.5 538.5 581> 219 138<468.5 570.5> 323 34<543.5 562.5> 337 35<383 412.5>
LayerCount: 2
Fore
SplineSet
372 398 m 0xc4
 372 352 329 306 264 306 c 0
 202 306 154 335 154 379 c 0
 154 395 165 403 176 403 c 0
 189 403 198 393 198 381 c 0
 198 371 195 368 192 365 c 1
 205 342 244 336 264 336 c 0
 309 336 337 368 337 398 c 0xc4
 337 427 312 461 262 461 c 2
 239 461 l 2
 231 461 219 461 219 476 c 0xd0
 219 491 227 491 255 493 c 0
 273 494 286 495 302 508 c 0
 315 519 323 536 323 551 c 0xc8
 323 574 298 592 264 592 c 0
 259 592 224 592 208 576 c 1
 210 575 213 570 213 563 c 0
 213 549 201 540 191 540 c 0
 181 540 168 547 168 564 c 0
 168 598 203 622 263 622 c 0
 321 622 357 589 357 552 c 0xe0
 357 525 343 496 315 478 c 1
 348 463 372 434 372 398 c 0xc4
EndSplineSet
EndChar

StartChar: acute
Encoding: 180 180 116
Width: 525
GlyphClass: 2
Flags: MW
HStem: 488 21G<177 193.5> 602 20G<334 344>
LayerCount: 2
Fore
SplineSet
369 587 m 0
 369 576 365 563 341 552 c 2
 208 493 l 2
 202 490 197 488 190 488 c 0
 164 488 157 520 157 528 c 0
 157 546 168 551 182 557 c 2
 315 617 l 2
 326 622 334 622 334 622 c 1
 354 622 369 607 369 587 c 0
EndSplineSet
EndChar

StartChar: uni00B5
Encoding: 181 181 117
Width: 525
GlyphClass: 2
Flags: MW
HStem: -222 61<45 96 54 96 166 208> -6 61<233.5 252 205.5 264.5> 0 21G<392 401 401 470> 369 61<45 123 54 96 316 358>
VStem: 11 155<-206.5 5 384.5 387> 96 70<-161 5 104 121 121 369 369 369> 96 155<-207 369> 273 155<384.5 387 61 415> 358 70<158 369 369 369> 358 155<15 369>
LayerCount: 2
Fore
SplineSet
513 30 m 0xd840
 513 0 487 0 470 0 c 2
 401 0 l 2xb840
 383 0 359 0 357 31 c 1
 326 8 290 -6 239 -6 c 0
 228 -6 195 -6 166 5 c 1
 166 -161 l 1xd9
 208 -161 l 2
 226 -161 251 -161 251 -192 c 0xd3
 251 -222 225 -222 208 -222 c 2
 54 -222 l 2
 36 -222 11 -222 11 -191 c 0xd9
 11 -161 37 -161 54 -161 c 2
 96 -161 l 1
 96 369 l 1xd5
 54 369 l 2
 36 369 11 369 11 400 c 0
 11 430 37 430 54 430 c 2
 123 430 l 2
 159 430 166 422 166 387 c 2
 166 121 l 2
 166 87 166 55 245 55 c 0
 259 55 293 55 326 81 c 0
 358 107 358 137 358 158 c 2
 358 369 l 1xd880
 316 369 l 2
 298 369 273 369 273 400 c 0
 273 430 299 430 316 430 c 2
 385 430 l 2
 421 430 428 422 428 387 c 2
 428 61 l 1xd9
 470 61 l 2
 488 61 513 61 513 30 c 0xd840
EndSplineSet
EndChar

StartChar: paragraph
Encoding: 182 182 118
Width: 525
GlyphClass: 2
Flags: MW
HStem: -194 21G<308.5 325.5 403 420.5> 654 40<334 394 334 334 429 472 429 429>
VStem: 300 34<-161 230 230 230> 394 35<-161 654> 394 106<-161 684 654 684>
LayerCount: 2
Fore
SplineSet
500 674 m 0xe8
 500 654 484 654 472 654 c 2
 429 654 l 1
 429 -161 l 2xf0
 429 -175 429 -194 412 -194 c 0
 394 -194 394 -175 394 -161 c 2
 394 654 l 1
 334 654 l 1
 334 -161 l 2
 334 -175 334 -194 317 -194 c 0
 300 -194 300 -175 300 -161 c 2
 300 230 l 1
 190 235 48 306 48 463 c 0
 48 589 143 694 263 694 c 2
 472 694 l 2
 484 694 500 694 500 674 c 0xe8
EndSplineSet
EndChar

StartChar: periodcentered
Encoding: 183 183 119
Width: 525
GlyphClass: 2
Flags: MW
HStem: 243 125<246 279 244 281>
VStem: 200 125<289.5 321.5>
LayerCount: 2
Fore
SplineSet
325 305 m 0
 325 274 300 243 262 243 c 0
 230 243 200 269 200 306 c 0
 200 337 225 368 263 368 c 0
 295 368 325 342 325 305 c 0
EndSplineSet
EndChar

StartChar: cedilla
Encoding: 184 184 120
Width: 525
GlyphClass: 2
Flags: MW
HStem: -208 62<203 240.5> -66 111
VStem: 359 69<-126 -96>
LayerCount: 2
Fore
SplineSet
428 -106 m 0
 428 -208 288 -208 193 -208 c 0
 178 -208 162 -200 162 -177 c 0
 162 -146 184 -146 222 -146 c 0
 260 -146 359 -146 359 -106 c 0
 359 -86 336 -68 292 -66 c 0
 260 -64 260 -44 260 -24 c 2
 260 3 l 2
 260 23 260 45 295 45 c 0
 329 45 329 28 329 -9 c 1
 400 -23 428 -67 428 -106 c 0
EndSplineSet
EndChar

StartChar: one.superior
Encoding: 185 185 121
Width: 525
GlyphClass: 2
Flags: MW
HStem: 311 31<197.5 247 201 247 281 327> 602 20G<261.5 281>
VStem: 178 103<539.5 553> 247 34<342 553 553 553>
LayerCount: 2
Fore
SplineSet
347 326 m 0xe0
 347 311 334 311 327 311 c 2
 201 311 l 2
 194 311 181 311 181 326 c 0
 181 342 193 342 201 342 c 2
 247 342 l 1
 247 553 l 1xd0
 225 534 204 531 195 531 c 0
 187 531 178 533 178 546 c 0
 178 560 189 561 197 561 c 0
 206 562 232 568 251 610 c 0
 254 616 257 622 266 622 c 0
 281 622 281 610 281 602 c 2
 281 342 l 1
 327 342 l 2
 335 342 347 342 347 326 c 0xe0
EndSplineSet
EndChar

StartChar: ordmasculine
Encoding: 186 186 122
Width: 525
GlyphClass: 2
Flags: MW
HStem: 237 43<172.5 344 181 344> 310 43<237 288.5 237 301> 579 43<238 288>
VStem: 119 48<437.5 502 437.5 509> 358 48<437.5 502>
LayerCount: 2
Fore
SplineSet
406 465 m 0
 406 377 339 310 263 310 c 0
 186 310 119 376 119 465 c 0
 119 553 184 622 263 622 c 0
 341 622 406 553 406 465 c 0
375 258 m 0
 375 246 361 237 344 237 c 2
 181 237 l 2
 164 237 150 246 150 258 c 0
 150 270 164 280 181 280 c 2
 344 280 l 2
 361 280 375 270 375 258 c 0
358 470 m 0
 358 534 313 579 263 579 c 0
 213 579 167 534 167 470 c 0
 167 405 211 353 263 353 c 0
 314 353 358 405 358 470 c 0
EndSplineSet
EndChar

StartChar: guillemotright
Encoding: 187 187 123
Width: 525
GlyphClass: 2
Flags: MW
HStem: 81 21G<62.5 71 224.5 232.5> 511 20G<62.5 71 224.5 232.5>
LayerCount: 2
Fore
SplineSet
477 306 m 0
 477 294 472 284 466 278 c 2
 248 90 l 2
 238 82 235 81 230 81 c 0
 219 81 208 92 208 113 c 0
 208 130 216 137 223 143 c 2
 411 306 l 1
 223 469 l 2
 216 475 208 482 208 499 c 0
 208 520 219 531 230 531 c 0
 235 531 238 530 248 522 c 2
 463 336 l 2
 469 330 477 323 477 306 c 0
315 306 m 0
 315 294 310 284 304 278 c 2
 86 90 l 2
 76 82 74 81 68 81 c 0
 57 81 46 92 46 113 c 0
 46 130 54 137 61 143 c 2
 249 306 l 1
 61 469 l 2
 54 475 46 482 46 499 c 0
 46 520 57 531 68 531 c 0
 74 531 76 530 86 522 c 2
 301 336 l 2
 307 330 315 323 315 306 c 0
EndSplineSet
EndChar

StartChar: onequarter
Encoding: 188 188 124
Width: 525
GlyphClass: 2
Flags: MW
HStem: -15 21G<121.5 137.5> 0 31<377.5 412 381 412 440 471> 85 30<278.5 412 301 412 301 412 440 479 301 440> 311 31<45.5 95 49 95 129 175> 602 20G<109.5 129> 606 20G<439.5 456>
VStem: 26 103<539.5 553> 95 34<342 553 553 553> 361 79<7.5 85> 412 28<31 85 31 85 115 290 290 290> 412 79<7.5 85 7.5 85>
LayerCount: 2
Fore
SplineSet
195 326 m 0x7a80
 195 311 182 311 175 311 c 2
 49 311 l 2
 42 311 29 311 29 326 c 0
 29 342 41 342 49 342 c 2
 95 342 l 1
 95 553 l 1x7980
 73 534 52 531 43 531 c 0
 35 531 26 533 26 546 c 0
 26 560 37 561 45 561 c 0
 54 562 80 568 99 610 c 0
 102 616 105 622 114 622 c 0
 129 622 129 610 129 602 c 2
 129 342 l 1
 175 342 l 2
 183 342 195 342 195 326 c 0x7a80
499 100 m 0
 499 85 487 85 479 85 c 2
 440 85 l 1
 440 31 l 1x7680
 471 31 l 2
 479 31 491 31 491 15 c 0x7a20
 491 0 479 0 471 0 c 2
 381 0 l 2
 374 0 361 0 361 15 c 0x7a80
 361 31 373 31 381 31 c 2
 412 31 l 1
 412 85 l 1x7a40
 286 85 l 2
 271 85 266 88 266 105 c 0
 266 115 266 116 271 122 c 2
 385 301 l 2
 391 311 394 312 406 312 c 2
 420 312 l 2
 437 312 440 308 440 291 c 2
 440 115 l 1
 479 115 l 2
 487 115 499 115 499 100 c 0
481 591 m 0
 481 585 480 579 477 574 c 2
 162 3 l 2
 156 -8 144 -15 131 -15 c 0xba40
 112 -15 96 1 96 20 c 0
 96 26 98 32 101 37 c 2
 416 608 l 2
 422 619 433 626 446 626 c 0
 466 626 481 610 481 591 c 0
412 115 m 1
 412 290 l 1
 301 115 l 1
 412 115 l 1
EndSplineSet
EndChar

StartChar: onehalf
Encoding: 189 189 125
Width: 525
GlyphClass: 2
Flags: MW
HStem: -15 21G<95.5 111.5> 0 31<346 465 346 479> 0 54<473.5 479> 281 30<371.5 405.5> 311 31<45.5 95 49 95 129 175> 602 20G<109.5 129> 606 20G<413.5 429.5>
VStem: 26 103<539.5 553> 95 34<342 553 553 553> 289 210<13 19.5 218.5 244> 465 34<31 34 13 38 196.5 236>
LayerCount: 2
Fore
SplineSet
195 326 m 0x4d40
 195 311 182 311 175 311 c 2
 49 311 l 2
 42 311 29 311 29 326 c 0
 29 342 41 342 49 342 c 2
 95 342 l 1
 95 553 l 1x2cc0
 73 534 52 531 43 531 c 0
 35 531 26 533 26 546 c 0
 26 560 37 561 45 561 c 0
 54 562 80 568 99 610 c 0
 102 616 105 622 114 622 c 0
 129 622 129 610 129 602 c 2
 129 342 l 1
 175 342 l 2
 183 342 195 342 195 326 c 0x4d40
499 21 m 2
 499 5 496 0 479 0 c 2
 310 0 l 2
 302 0 289 0 289 16 c 0x5340
 289 23 292 25 297 29 c 2
 407 122 l 2
 440 150 465 179 465 214 c 0x5520
 465 258 426 281 385 281 c 0
 358 281 334 265 327 242 c 1
 331 239 334 232 334 226 c 0
 334 212 322 204 312 204 c 0
 303 204 289 209 289 228 c 0x5540
 289 270 329 311 388 311 c 0
 449 311 499 274 499 214 c 0
 499 174 476 142 445 114 c 0
 423 94 375 56 346 31 c 1
 465 31 l 1x5520
 465 45 465 54 482 54 c 0
 499 54 499 43 499 34 c 2
 499 21 l 2
455 591 m 0
 455 585 453 579 451 574 c 2
 136 3 l 2
 130 -8 118 -15 105 -15 c 0x9540
 86 -15 70 1 70 20 c 0
 70 26 72 32 74 37 c 2
 389 608 l 2
 395 619 407 626 420 626 c 0
 439 626 455 610 455 591 c 0
EndSplineSet
EndChar

StartChar: threequarters
Encoding: 190 190 126
Width: 525
GlyphClass: 2
Flags: MW
HStem: -15 21G<121.5 137.5> 0 31<377.5 412 381 412 440 471> 85 30<278.5 412 301 412 301 412 440 479 301 440> 306 30<122 155 122 165> 461 32 461 161<104 108 108 131> 606 20G<439.5 456>
VStem: 22 218<375 387> 37 189<555.5 570.5 538.5 581> 88 138<468.5 570.5> 191 35<543.5 562.5> 206 34<383 412.5> 361 79<7.5 85> 412 28<31 85 31 85 115 290 290 290> 412 79<7.5 85 7.5 85>
LayerCount: 2
Fore
SplineSet
240 398 m 0x7a18
 240 352 198 306 132 306 c 0
 71 306 22 335 22 379 c 0
 22 395 33 403 45 403 c 0
 57 403 67 393 67 381 c 0
 67 371 63 368 61 365 c 1
 74 342 112 336 132 336 c 0
 178 336 206 368 206 398 c 0x7a18
 206 427 180 461 131 461 c 2
 108 461 l 2
 100 461 88 461 88 476 c 0x7a48
 88 491 95 491 124 493 c 0
 142 494 154 495 170 508 c 0
 184 519 191 536 191 551 c 0x7a28
 191 574 166 592 132 592 c 0
 128 592 92 592 77 576 c 1
 78 575 81 570 81 563 c 0
 81 549 70 540 59 540 c 0
 49 540 37 547 37 564 c 0
 37 598 72 622 132 622 c 0
 189 622 226 589 226 552 c 0x7488
 226 525 212 496 184 478 c 1
 217 463 240 434 240 398 c 0x7a18
499 100 m 0
 499 85 487 85 479 85 c 2
 440 85 l 1
 440 31 l 1x7b08
 471 31 l 2
 479 31 491 31 491 15 c 0x7b02
 491 0 479 0 471 0 c 2
 381 0 l 2
 374 0 361 0 361 15 c 0x7b08
 361 31 373 31 381 31 c 2
 412 31 l 1
 412 85 l 1x7b04
 286 85 l 2
 271 85 266 88 266 105 c 0
 266 115 266 116 271 122 c 2
 385 301 l 2
 391 311 394 312 406 312 c 2
 420 312 l 2
 437 312 440 308 440 291 c 2
 440 115 l 1
 479 115 l 2
 487 115 499 115 499 100 c 0
481 591 m 0
 481 585 480 579 477 574 c 2
 162 3 l 2
 156 -8 144 -15 131 -15 c 0xbb04
 112 -15 96 1 96 20 c 0
 96 26 98 32 101 37 c 2
 416 608 l 2
 422 619 433 626 446 626 c 0
 466 626 481 610 481 591 c 0
412 115 m 1
 412 290 l 1
 301 115 l 1
 412 115 l 1
EndSplineSet
EndChar

StartChar: questiondown
Encoding: 191 191 127
Width: 525
GlyphClass: 2
Flags: MW
HStem: -228 61<239 257 239 264> 289 100<233 261>
VStem: 62 69<-116 -90.5 -135.5 -75> 197 100<325 353> 373 89<-109 -90>
LayerCount: 2
Fore
SplineSet
297 339 m 0
 297 311 275 289 247 289 c 0
 219 289 197 311 197 339 c 0
 197 367 219 389 247 389 c 0
 275 389 297 367 297 339 c 0
462 -106 m 0
 462 -228 280 -228 248 -228 c 0
 70 -228 62 -128 62 -104 c 0
 62 -46 104 -18 121 -6 c 0
 203 49 207 115 207 147 c 2
 207 164 l 2
 207 200 217 205 247 205 c 0
 287 205 287 192 287 153 c 0
 287 113 287 28 162 -56 c 0
 150 -64 131 -77 131 -104 c 0
 131 -167 229 -167 249 -167 c 0
 265 -167 348 -167 382 -133 c 1
 375 -125 373 -114 373 -104 c 0
 373 -76 396 -59 417 -59 c 0
 438 -59 462 -74 462 -106 c 0
EndSplineSet
EndChar

StartChar: Agrave
Encoding: 192 192 128
Width: 525
GlyphClass: 2
Flags: MW
HStem: 0 61<61.5 87 80 87 158 172 348 352 352 366 437 444.5> 61 104<80 343 158 343 181 366 181 444.5> 165 61<196 328 196 343 181 328> 787 20G<181 191>
VStem: 27 187<15 36.5> 310 187<15 36.5 15 45.5>
LayerCount: 2
Fore
SplineSet
497 30 m 0x9c
 497 0 471 0 454 0 c 2
 352 0 l 2
 334 0 310 0 310 30 c 0
 310 61 330 61 366 61 c 1x9c
 343 165 l 1
 181 165 l 1x5c
 158 61 l 1
 194 61 214 61 214 30 c 0
 214 0 190 0 172 0 c 2
 70 0 l 2
 53 0 27 0 27 30 c 0
 27 43 33 53 44 59 c 1
 50 61 73 61 87 61 c 1
 208 585 l 2
 217 623 233 623 262 623 c 0
 293 623 307 622 316 584 c 2
 437 61 l 1
 452 61 474 61 480 58 c 0
 492 53 497 43 497 30 c 0x9c
328 226 m 1x3c
 262 540 l 1
 196 226 l 1
 328 226 l 1x3c
368 713 m 0
 368 705 361 673 335 673 c 0
 328 673 323 675 317 678 c 2
 184 737 l 2
 160 748 156 761 156 772 c 0
 156 792 171 807 191 807 c 1
 191 807 199 807 210 802 c 2
 343 742 l 2
 357 736 368 731 368 713 c 0
EndSplineSet
EndChar

StartChar: Aacute
Encoding: 193 193 129
Width: 525
GlyphClass: 2
Flags: MW
HStem: 0 61<61.5 87 80 87 158 172 348 352 352 366 437 444.5> 61 104<80 343 158 343 181 366 181 444.5> 165 61<196 328 196 343 181 328> 787 20G<334 344>
VStem: 27 187<15 36.5> 310 187<15 36.5 15 45.5>
LayerCount: 2
Fore
SplineSet
497 30 m 0x9c
 497 0 471 0 454 0 c 2
 352 0 l 2
 334 0 310 0 310 30 c 0
 310 61 330 61 366 61 c 1x9c
 343 165 l 1
 181 165 l 1x5c
 158 61 l 1
 194 61 214 61 214 30 c 0
 214 0 190 0 172 0 c 2
 70 0 l 2
 53 0 27 0 27 30 c 0
 27 43 33 53 44 59 c 1
 50 61 73 61 87 61 c 1
 208 585 l 2
 217 623 233 623 262 623 c 0
 293 623 307 622 316 584 c 2
 437 61 l 1
 452 61 474 61 480 58 c 0
 492 53 497 43 497 30 c 0x9c
328 226 m 1x3c
 262 540 l 1
 196 226 l 1
 328 226 l 1x3c
369 772 m 0
 369 761 365 748 341 737 c 2
 208 678 l 2
 202 675 197 673 190 673 c 0
 164 673 157 705 157 713 c 0
 157 731 168 736 182 742 c 2
 315 802 l 2
 326 807 334 807 334 807 c 1
 354 807 369 792 369 772 c 0
EndSplineSet
EndChar

StartChar: Acircumflex
Encoding: 194 194 130
Width: 525
GlyphClass: 2
Flags: MW
HStem: 0 61<61.5 87 80 87 158 172 348 352 352 366 437 444.5> 165 61<196 328 196 343 181 328>
VStem: 27 187<15 36.5> 310 187<15 36.5 15 45.5>
LayerCount: 2
Fore
SplineSet
497 30 m 0
 497 0 471 0 454 0 c 2
 352 0 l 2
 334 0 310 0 310 30 c 0
 310 61 330 61 366 61 c 1
 343 165 l 1
 181 165 l 1
 158 61 l 1
 194 61 214 61 214 30 c 0
 214 0 190 0 172 0 c 2
 70 0 l 2
 53 0 27 0 27 30 c 0
 27 43 33 53 44 59 c 1
 50 61 73 61 87 61 c 1
 208 585 l 2
 217 623 233 623 262 623 c 0
 293 623 307 622 316 584 c 2
 437 61 l 1
 452 61 474 61 480 58 c 0
 492 53 497 43 497 30 c 0
328 226 m 1
 262 540 l 1
 196 226 l 1
 328 226 l 1
391 721 m 2
 426 708 408 654 372 665 c 2
 263 698 l 1
 154 665 l 2
 118 654 100 708 136 721 c 2
 254 764 l 2
 260 766 267 766 273 764 c 2
 391 721 l 2
EndSplineSet
EndChar

StartChar: Atilde
Encoding: 195 195 131
Width: 525
GlyphClass: 2
Flags: MW
HStem: 0 61<61.5 87 80 87 158 172 348 352 352 366 437 444.5> 165 61<196 328 196 343 181 328> 663 120<111 232 201.5 324.5>
VStem: 27 187<15 36.5> 310 187<15 36.5 15 45.5>
LayerCount: 2
Fore
SplineSet
497 30 m 0
 497 0 471 0 454 0 c 2
 352 0 l 2
 334 0 310 0 310 30 c 0
 310 61 330 61 366 61 c 1
 343 165 l 1
 181 165 l 1
 158 61 l 1
 194 61 214 61 214 30 c 0
 214 0 190 0 172 0 c 2
 70 0 l 2
 53 0 27 0 27 30 c 0
 27 43 33 53 44 59 c 1
 50 61 73 61 87 61 c 1
 208 585 l 2
 217 623 233 623 262 623 c 0
 293 623 307 622 316 584 c 2
 437 61 l 1
 452 61 474 61 480 58 c 0
 492 53 497 43 497 30 c 0
328 226 m 1
 262 540 l 1
 196 226 l 1
 328 226 l 1
438 751 m 0
 438 733 409 711 389 696 c 0
 366 679 338 663 311 663 c 0
 277 663 257 684 244 697 c 0
 231 709 223 718 213 718 c 0
 199 718 173 702 143 674 c 0
 136 668 130 663 119 663 c 0
 103 663 88 679 88 695 c 0
 88 713 117 735 137 750 c 0
 160 767 188 783 215 783 c 0
 249 783 269 762 282 749 c 0
 295 737 303 728 313 728 c 0
 327 728 353 744 383 772 c 0
 390 778 396 783 407 783 c 0
 423 783 438 767 438 751 c 0
EndSplineSet
EndChar

StartChar: Adieresis
Encoding: 196 196 132
Width: 525
GlyphClass: 2
Flags: MW
HStem: 0 61<61.5 87 80 87 158 172 348 352 352 366 437 444.5> 165 61<196 328 196 343 181 328> 663 90<152.5 177.5 347.5 372.5>
VStem: 27 187<15 36.5> 120 94 310 95 310 187<15 36.5 15 45.5>
LayerCount: 2
Fore
SplineSet
497 30 m 0xf2
 497 0 471 0 454 0 c 2
 352 0 l 2
 334 0 310 0 310 30 c 0
 310 61 330 61 366 61 c 1
 343 165 l 1
 181 165 l 1
 158 61 l 1
 194 61 214 61 214 30 c 0
 214 0 190 0 172 0 c 2
 70 0 l 2
 53 0 27 0 27 30 c 0
 27 43 33 53 44 59 c 1
 50 61 73 61 87 61 c 1
 208 585 l 2
 217 623 233 623 262 623 c 0
 293 623 307 622 316 584 c 2
 437 61 l 1
 452 61 474 61 480 58 c 0
 492 53 497 43 497 30 c 0xf2
328 226 m 1
 262 540 l 1
 196 226 l 1
 328 226 l 1
210 708 m 0
 210 683 190 663 165 663 c 0
 140 663 120 683 120 708 c 0xec
 120 734 140 753 165 753 c 0
 190 753 210 734 210 708 c 0
405 708 m 0
 405 683 385 663 360 663 c 0
 335 663 315 683 315 708 c 0
 315 734 335 753 360 753 c 0
 385 753 405 734 405 708 c 0
EndSplineSet
EndChar

StartChar: Aring
Encoding: 197 197 133
Width: 525
GlyphClass: 2
Flags: MW
HStem: 0 61<61.5 87 80 87 158 172 348 352 352 366 437 444.5> 165 61<196 328 196 343 181 328> 623 38<251.5 274.5 251.5 291 251.5 274.5 251.5 277.5> 729 38<251.5 274.5>
VStem: 27 187<15 36.5> 166 48 310 50<685.5 704.5> 310 187<15 36.5 15 45.5>
LayerCount: 2
Fore
SplineSet
497 30 m 0xf9
 497 0 471 0 454 0 c 2
 352 0 l 2
 334 0 310 0 310 30 c 0
 310 61 330 61 366 61 c 1
 343 165 l 1
 181 165 l 1
 158 61 l 1
 194 61 214 61 214 30 c 0
 214 0 190 0 172 0 c 2
 70 0 l 2
 53 0 27 0 27 30 c 0
 27 43 33 53 44 59 c 1
 50 61 73 61 87 61 c 1
 208 585 l 2
 217 623 233 623 262 623 c 0
 293 623 307 622 316 584 c 2
 437 61 l 1
 452 61 474 61 480 58 c 0
 492 53 497 43 497 30 c 0xf9
328 226 m 1
 262 540 l 1
 196 226 l 1
 328 226 l 1
310 695 m 0
 310 714 286 729 263 729 c 0
 240 729 216 714 216 695 c 0
 216 676 240 661 263 661 c 0
 286 661 310 676 310 695 c 0
360 695 m 0xf6
 360 658 319 623 263 623 c 0
 207 623 166 658 166 695 c 0
 166 732 207 767 263 767 c 0
 319 767 360 732 360 695 c 0xf6
EndSplineSet
EndChar

StartChar: AE
Encoding: 198 198 134
Width: 525
GlyphClass: 2
Flags: MW
HStem: 0 61<58 63 63 71 128 134 257 264 320 443> 0 171<457 459> 183 61<165 264 165 264 153 264> 286 61<320 435 320 435> 456 155<449 451 451 468 170 477> 550 61<162 451 227 227 227 264 320 320 320 435>
VStem: 23 151<15 45.5> 130 190 224 96<15.5 286> 264 56<61 183 183 183 244 286 347 550> 264 211<61 331.5 183 331.5 301 331.5 301 550> 443 56<61 130>
LayerCount: 2
Fore
SplineSet
499 41 m 2x7a90
 499 9 492 0 459 0 c 2
 265 0 l 2
 249 0 224 0 224 31 c 0xba90
 224 61 250 61 264 61 c 1
 264 183 l 1
 153 183 l 1
 128 61 l 1
 151 61 174 61 174 30 c 0
 174 0 149 0 134 0 c 2
 63 0 l 2
 48 0 23 0 23 30 c 0
 23 61 45 61 71 61 c 1
 170 550 l 1xb650
 154 550 130 550 130 581 c 0
 130 611 155 611 170 611 c 2
 451 611 l 2
 485 611 491 601 491 570 c 2
 491 497 l 2
 491 483 491 456 463 456 c 0xb910
 435 456 435 483 435 497 c 2
 435 550 l 1
 320 550 l 1
 320 347 l 1xb510
 435 347 l 2
 451 347 475 347 475 316 c 0xba20
 475 286 450 286 435 286 c 2
 320 286 l 1
 320 61 l 1
 443 61 l 1xb910
 443 130 l 2
 443 144 443 171 471 171 c 0
 499 171 499 144 499 130 c 2
 499 41 l 2x7a90
264 244 m 1xb650
 264 550 l 1
 227 550 l 1
 165 244 l 1
 264 244 l 1xb650
EndSplineSet
EndChar

StartChar: Ccedilla
Encoding: 199 199 135
Width: 525
GlyphClass: 2
Flags: MW
HStem: -208 62<216 253.5> -66 116 -11 61<273 273> 401 221<445 466.5> 561 61<240.5 306.5 216.5 315>
VStem: 40 69<231 380.5 231 397> 372 69<-126 -96> 415 69
LayerCount: 2
Fore
SplineSet
484 168 m 0xad
 484 94 427 21 342 -3 c 1
 342 -9 l 1
 413 -23 441 -67 441 -106 c 0
 441 -208 301 -208 206 -208 c 0
 191 -208 175 -200 175 -177 c 0
 175 -146 197 -146 235 -146 c 0
 273 -146 372 -146 372 -106 c 0
 372 -86 349 -68 305 -66 c 0xd6
 273 -64 273 -44 273 -24 c 2
 273 -11 l 1
 147 -5 40 127 40 306 c 0
 40 488 152 622 281 622 c 0
 332 622 378 602 411 574 c 1
 424 599 424 601 426 605 c 0
 431 612 436 622 454 622 c 0
 484 622 484 597 484 581 c 2
 484 442 l 2
 484 422 484 401 449 401 c 0xb5
 419 401 417 417 414 434 c 0
 400 515 345 561 285 561 c 0
 196 561 109 455 109 306 c 0
 109 156 195 50 286 50 c 0
 327 50 408 74 415 172 c 0
 417 201 440 201 449 201 c 0
 460 201 484 201 484 168 c 0xad
EndSplineSet
EndChar

StartChar: Egrave
Encoding: 200 200 136
Width: 525
GlyphClass: 2
Flags: MW
HStem: 0 61<59.5 97 67 97 166 433> 171 58 229 118<166 349> 286 61<166 297 166 297> 404 52 404 146<314.5 349> 456 155<428 440 440 457 67 462.5> 550 61<59.5 440 67 97 166 166 166 411> 611 62<331.5 348 331.5 440> 787 20G<181 191>
VStem: 26 140<15 286> 97 69<61 286 347 550> 297 69<265.5 270 270 286 347 363> 411 69<497 550 550 550> 433 69<61 130>
LayerCount: 2
Fore
SplineSet
502 41 m 2xd4ea
 502 9 495 0 462 0 c 2
 67 0 l 2
 52 0 26 0 26 30 c 0xa4ea
 26 61 51 61 67 61 c 2
 97 61 l 1
 97 550 l 1
 67 550 l 2xa95a
 52 550 26 550 26 581 c 0
 26 611 52 611 67 611 c 2
 440 611 l 2
 474 611 480 601 480 570 c 2
 480 497 l 2
 480 477 480 456 445 456 c 0xa26c
 411 456 411 478 411 497 c 2
 411 550 l 1xa96c
 166 550 l 1
 166 347 l 1
 297 347 l 1
 297 388 297 404 332 404 c 0
 366 404 366 382 366 363 c 2
 366 270 l 2
 366 251 366 229 332 229 c 0
 297 229 297 245 297 286 c 1
 166 286 l 1
 166 61 l 1
 433 61 l 1
 433 130 l 2
 433 150 433 171 468 171 c 0
 502 171 502 149 502 130 c 2
 502 41 l 2xd4ea
368 713 m 0
 368 705 361 673 335 673 c 0
 328 673 323 675 317 678 c 2
 184 737 l 2
 160 748 156 761 156 772 c 0
 156 792 171 807 191 807 c 1
 191 807 199 807 210 802 c 2
 343 742 l 2
 357 736 368 731 368 713 c 0
EndSplineSet
EndChar

StartChar: Eacute
Encoding: 201 201 137
Width: 525
GlyphClass: 2
Flags: MW
HStem: 0 61<59.5 97 67 97 166 433> 171 58 229 118<166 349> 286 61<166 297 166 297> 404 52 404 146<314.5 349> 456 155<428 440 440 457 67 462.5> 550 61<59.5 440 67 97 166 166 166 411> 611 62<177 193.5 177 440> 787 20G<334 344>
VStem: 26 140<15 286> 97 69<61 286 347 550> 297 69<265.5 270 270 286 347 363> 411 69<497 550 550 550> 433 69<61 130>
LayerCount: 2
Fore
SplineSet
502 41 m 2xd4ea
 502 9 495 0 462 0 c 2
 67 0 l 2
 52 0 26 0 26 30 c 0xa4ea
 26 61 51 61 67 61 c 2
 97 61 l 1
 97 550 l 1
 67 550 l 2xa95c
 52 550 26 550 26 581 c 0
 26 611 52 611 67 611 c 2
 440 611 l 2
 474 611 480 601 480 570 c 2
 480 497 l 2
 480 477 480 456 445 456 c 0xa26c
 411 456 411 478 411 497 c 2
 411 550 l 1xa96c
 166 550 l 1
 166 347 l 1
 297 347 l 1
 297 388 297 404 332 404 c 0
 366 404 366 382 366 363 c 2
 366 270 l 2
 366 251 366 229 332 229 c 0
 297 229 297 245 297 286 c 1
 166 286 l 1
 166 61 l 1
 433 61 l 1
 433 130 l 2
 433 150 433 171 468 171 c 0
 502 171 502 149 502 130 c 2
 502 41 l 2xd4ea
369 772 m 0
 369 761 365 748 341 737 c 2
 208 678 l 2
 202 675 197 673 190 673 c 0
 164 673 157 705 157 713 c 0
 157 731 168 736 182 742 c 2
 315 802 l 2
 326 807 334 807 334 807 c 1
 354 807 369 792 369 772 c 0
EndSplineSet
EndChar

StartChar: Ecircumflex
Encoding: 202 202 138
Width: 525
GlyphClass: 2
Flags: MW
HStem: 0 61<59.5 97 67 97 166 433> 0 171<450.5 462> 229 118<166 349> 286 61<166 297 166 297> 286 118<166 349> 456 155<428 440 440 457 67 462.5> 550 61<59.5 440 67 97 166 166 166 411>
VStem: 26 140<15 286> 97 69<61 286 347 550> 297 69<265.5 270 270 286 347 363> 411 69<497 550 550 550> 433 69<61 130>
LayerCount: 2
Fore
SplineSet
502 41 m 2x6550
 502 9 495 0 462 0 c 2
 67 0 l 2
 52 0 26 0 26 30 c 0xa550
 26 61 51 61 67 61 c 2
 97 61 l 1
 97 550 l 1
 67 550 l 2xa2e0
 52 550 26 550 26 581 c 0
 26 611 52 611 67 611 c 2
 440 611 l 2
 474 611 480 601 480 570 c 2
 480 497 l 2
 480 477 480 456 445 456 c 0xa560
 411 456 411 478 411 497 c 2
 411 550 l 1
 166 550 l 1
 166 347 l 1
 297 347 l 1xa360
 297 388 297 404 332 404 c 0x8d60
 366 404 366 382 366 363 c 2
 366 270 l 2
 366 251 366 229 332 229 c 0xa560
 297 229 297 245 297 286 c 1
 166 286 l 1
 166 61 l 1
 433 61 l 1x9550
 433 130 l 2
 433 150 433 171 468 171 c 0
 502 171 502 149 502 130 c 2
 502 41 l 2x6550
391 721 m 2
 426 708 408 654 372 665 c 2
 263 698 l 1
 154 665 l 2
 118 654 100 708 136 721 c 2
 254 764 l 2
 260 766 267 766 273 764 c 2
 391 721 l 2
EndSplineSet
EndChar

StartChar: Edieresis
Encoding: 203 203 139
Width: 525
GlyphClass: 2
Flags: MW
HStem: 0 61<59.5 97 67 97 166 433> 0 171<450.5 462> 229 118<166 349> 286 61<166 297 166 297> 286 118<166 349> 456 155<428 440 440 457 67 462.5> 550 61<59.5 440 67 97 166 166 166 411> 663 90<152.5 177.5 347.5 372.5>
VStem: 26 140<15 286> 97 69<61 286 347 550> 120 90<695.5 721> 297 69<265.5 270 270 286 347 363> 315 90<695.5 721> 411 69<497 550 550 550> 433 69<61 130>
LayerCount: 2
Fore
SplineSet
502 41 m 2x6592
 502 9 495 0 462 0 c 2
 67 0 l 2
 52 0 26 0 26 30 c 0xa592
 26 61 51 61 67 61 c 2
 97 61 l 1
 97 550 l 1
 67 550 l 2xa354
 52 550 26 550 26 581 c 0
 26 611 52 611 67 611 c 2
 440 611 l 2
 474 611 480 601 480 570 c 2
 480 497 l 2
 480 477 480 456 445 456 c 0xa594
 411 456 411 478 411 497 c 2
 411 550 l 1
 166 550 l 1
 166 347 l 1
 297 347 l 1xa394
 297 388 297 404 332 404 c 0x8d94
 366 404 366 382 366 363 c 2
 366 270 l 2
 366 251 366 229 332 229 c 0xa594
 297 229 297 245 297 286 c 1
 166 286 l 1
 166 61 l 1
 433 61 l 1x9592
 433 130 l 2
 433 150 433 171 468 171 c 0
 502 171 502 149 502 130 c 2
 502 41 l 2x6592
210 708 m 0xa52c
 210 683 190 663 165 663 c 0
 140 663 120 683 120 708 c 0
 120 734 140 753 165 753 c 0
 190 753 210 734 210 708 c 0xa52c
405 708 m 0
 405 683 385 663 360 663 c 0
 335 663 315 683 315 708 c 0
 315 734 335 753 360 753 c 0
 385 753 405 734 405 708 c 0
EndSplineSet
EndChar

StartChar: Igrave
Encoding: 204 204 140
Width: 525
GlyphClass: 2
Flags: MW
HStem: 0 61<112.5 228 120 228 297 405> 550 61<112.5 405 120 228 297 297 297 405> 611 62<331.5 348 331.5 405 331.5 412.5> 787 20G<181 191>
VStem: 79 218<15.5 550 61 596> 228 218<15 550>
LayerCount: 2
Fore
SplineSet
446 30 m 0xd4
 446 0 420 0 405 0 c 2
 120 0 l 2
 105 0 79 0 79 31 c 0xd8
 79 61 105 61 120 61 c 2
 228 61 l 1
 228 550 l 1xd4
 120 550 l 2
 105 550 79 550 79 581 c 0xd8
 79 611 105 611 120 611 c 2
 405 611 l 2
 420 611 446 611 446 580 c 0xd4
 446 550 420 550 405 550 c 2
 297 550 l 1
 297 61 l 1xd8
 405 61 l 2
 420 61 446 61 446 30 c 0xd4
368 713 m 0
 368 705 361 673 335 673 c 0
 328 673 323 675 317 678 c 2
 184 737 l 2
 160 748 156 761 156 772 c 0
 156 792 171 807 191 807 c 1
 191 807 199 807 210 802 c 2
 343 742 l 2
 357 736 368 731 368 713 c 0
EndSplineSet
EndChar

StartChar: Iacute
Encoding: 205 205 141
Width: 525
GlyphClass: 2
Flags: MW
HStem: 0 61<112.5 228 120 228 297 405> 550 61<112.5 405 120 228 297 297 297 405> 611 62<177 193.5 177 405> 787 20G<334 344>
VStem: 79 218<15.5 550 61 596> 228 69<61 550 61 550> 228 218<15 550>
LayerCount: 2
Fore
SplineSet
446 30 m 0xd2
 446 0 420 0 405 0 c 2
 120 0 l 2
 105 0 79 0 79 31 c 0xd8
 79 61 105 61 120 61 c 2
 228 61 l 1
 228 550 l 1xd4
 120 550 l 2
 105 550 79 550 79 581 c 0xd8
 79 611 105 611 120 611 c 2
 405 611 l 2
 420 611 446 611 446 580 c 0xd2
 446 550 420 550 405 550 c 2
 297 550 l 1
 297 61 l 1xd8
 405 61 l 2
 420 61 446 61 446 30 c 0xd2
369 772 m 0
 369 761 365 748 341 737 c 2
 208 678 l 2
 202 675 197 673 190 673 c 0
 164 673 157 705 157 713 c 0
 157 731 168 736 182 742 c 2
 315 802 l 2
 326 807 334 807 334 807 c 1
 354 807 369 792 369 772 c 0
EndSplineSet
EndChar

StartChar: Icircumflex
Encoding: 206 206 142
Width: 525
GlyphClass: 2
Flags: MW
HStem: 0 61<112.5 228 120 228 297 405> 550 61<112.5 405 120 228 297 297 297 405>
VStem: 79 218<15.5 550 61 596> 228 69<61 550 61 550> 228 218<15 550>
LayerCount: 2
Fore
SplineSet
446 30 m 0xc8
 446 0 420 0 405 0 c 2
 120 0 l 2
 105 0 79 0 79 31 c 0xe0
 79 61 105 61 120 61 c 2
 228 61 l 1
 228 550 l 1xd0
 120 550 l 2
 105 550 79 550 79 581 c 0xe0
 79 611 105 611 120 611 c 2
 405 611 l 2
 420 611 446 611 446 580 c 0xc8
 446 550 420 550 405 550 c 2
 297 550 l 1
 297 61 l 1xe0
 405 61 l 2
 420 61 446 61 446 30 c 0xc8
391 721 m 2
 426 708 408 654 372 665 c 2
 263 698 l 1
 154 665 l 2
 118 654 100 708 136 721 c 2
 254 764 l 2
 260 766 267 766 273 764 c 2
 391 721 l 2
EndSplineSet
EndChar

StartChar: Idieresis
Encoding: 207 207 143
Width: 525
GlyphClass: 2
Flags: MW
HStem: 0 61<112.5 228 120 228 297 405> 550 61<112.5 405 120 228 297 297 297 405> 663 90<152.5 177.5 347.5 372.5>
VStem: 79 218<15.5 550 61 596> 120 90<611 721 695.5 721> 228 69<61 550 61 550> 228 218<15 550> 315 90<695.5 721>
LayerCount: 2
Fore
SplineSet
446 30 m 0xea
 446 0 420 0 405 0 c 2
 120 0 l 2xed
 105 0 79 0 79 31 c 0xf1
 79 61 105 61 120 61 c 2
 228 61 l 1
 228 550 l 1
 120 550 l 2xed
 105 550 79 550 79 581 c 0xf1
 79 611 105 611 120 611 c 2
 405 611 l 2xed
 420 611 446 611 446 580 c 0xea
 446 550 420 550 405 550 c 2
 297 550 l 1
 297 61 l 1
 405 61 l 2xf1
 420 61 446 61 446 30 c 0xea
210 708 m 0
 210 683 190 663 165 663 c 0
 140 663 120 683 120 708 c 0
 120 734 140 753 165 753 c 0
 190 753 210 734 210 708 c 0
405 708 m 0xf1
 405 683 385 663 360 663 c 0
 335 663 315 683 315 708 c 0
 315 734 335 753 360 753 c 0
 385 753 405 734 405 708 c 0xf1
EndSplineSet
EndChar

StartChar: Eth
Encoding: 208 208 144
Width: 525
GlyphClass: 2
Flags: MW
HStem: 0 61<52.5 82 60 82 151 247 247 266> 275 62<45.5 82 54 82 151 210> 550 61<52.5 266 60 82 151 151 151 247>
VStem: 19 132<15 275> 82 69<61 275 61 275 337 550> 82 159<61 314.5 275 314.5 297 550> 416 69<242.5 359>
LayerCount: 2
Fore
SplineSet
485 301 m 0xf2
 485 140 397 0 266 0 c 2
 60 0 l 2
 45 0 19 0 19 30 c 0xf2
 19 61 44 61 60 61 c 2
 82 61 l 1
 82 275 l 1
 54 275 l 2
 37 275 23 288 23 306 c 0
 23 323 37 337 54 337 c 2
 82 337 l 1
 82 550 l 1xea
 60 550 l 2
 45 550 19 550 19 580 c 0
 19 611 44 611 60 611 c 2
 266 611 l 2
 399 611 485 461 485 301 c 0xf2
416 301 m 0
 416 417 360 550 247 550 c 2
 151 550 l 1
 151 337 l 1xf2
 210 337 l 2
 227 337 241 323 241 306 c 0xe6
 241 288 227 275 210 275 c 2
 151 275 l 1
 151 61 l 1
 247 61 l 2
 358 61 416 184 416 301 c 0
EndSplineSet
EndChar

StartChar: Ntilde
Encoding: 209 209 145
Width: 525
GlyphClass: 2
Flags: MW
HStem: 0 61<60 93 68 93 149 174> 550 61<60 136 68 93 350 375 431 456 431 431> 663 120<111 232 201.5 324.5>
VStem: 28 121<15.5 536 61 596> 93 56<61 536 61 550 61 550> 93 121<15 550> 310 121 375 56<75 550> 375 121<75 595.5 550 595.5>
LayerCount: 2
Fore
SplineSet
496 580 m 0xf080
 496 550 471 550 456 550 c 2
 431 550 l 1
 431 41 l 2
 431 3 419 0 389 0 c 0
 363 0 347 1 334 36 c 2
 150 536 l 1
 149 536 l 1
 149 61 l 1xf2
 174 61 l 2
 190 61 214 61 214 30 c 0xe6
 214 0 189 0 174 0 c 2
 68 0 l 2
 52 0 28 0 28 31 c 0xf2
 28 61 53 61 68 61 c 2
 93 61 l 1
 93 550 l 1xea
 68 550 l 2
 52 550 28 550 28 581 c 0
 28 611 53 611 68 611 c 2
 136 611 l 2
 163 611 178 608 190 575 c 2
 374 75 l 1
 375 75 l 1
 375 550 l 1xf1
 350 550 l 2
 335 550 310 550 310 580 c 0xf2
 310 611 334 611 350 611 c 2
 456 611 l 2
 472 611 496 611 496 580 c 0xf080
438 751 m 0
 438 733 409 711 389 696 c 0
 366 679 338 663 311 663 c 0
 277 663 257 684 244 697 c 0
 231 709 223 718 213 718 c 0
 199 718 173 702 143 674 c 0
 136 668 130 663 119 663 c 0
 103 663 88 679 88 695 c 0
 88 713 117 735 137 750 c 0
 160 767 188 783 215 783 c 0
 249 783 269 762 282 749 c 0
 295 737 303 728 313 728 c 0
 327 728 353 744 383 772 c 0
 390 778 396 783 407 783 c 0
 423 783 438 767 438 751 c 0
EndSplineSet
EndChar

StartChar: Ograve
Encoding: 210 210 146
Width: 525
GlyphClass: 2
Flags: MW
HStem: -11 61<218 306.5 218 354> 561 61<221 299.5> 622 51<331.5 348 331.5 354.5> 787 20G<181 191>
VStem: 56 69<286.5 345 286.5 450> 399 69<283 344.5>
LayerCount: 2
Fore
SplineSet
468 305 m 0xdc
 468 16 446 -11 262 -11 c 0
 77 -11 56 16 56 305 c 0
 56 595 77 622 262 622 c 0
 447 622 468 594 468 305 c 0xdc
399 314 m 0
 399 375 399 450 387 497 c 0
 372 552 337 561 262 561 c 0
 180 561 149 549 136 490 c 0
 125 444 125 376 125 314 c 0
 125 259 125 172 137 121 c 0
 149 71 174 50 262 50 c 0
 351 50 377 71 388 127 c 0
 399 181 399 252 399 314 c 0
368 713 m 0
 368 705 361 673 335 673 c 0xbc
 328 673 323 675 317 678 c 2
 184 737 l 2
 160 748 156 761 156 772 c 0
 156 792 171 807 191 807 c 1
 191 807 199 807 210 802 c 2
 343 742 l 2
 357 736 368 731 368 713 c 0
EndSplineSet
EndChar

StartChar: Oacute
Encoding: 211 211 147
Width: 525
GlyphClass: 2
Flags: MW
HStem: -11 61<218 306.5 218 354> 561 61<221 299.5> 622 51<177 193.5 177 354.5> 787 20G<334 344>
VStem: 56 69<286.5 345 286.5 450> 399 69<283 344.5>
LayerCount: 2
Fore
SplineSet
468 305 m 0xdc
 468 16 446 -11 262 -11 c 0
 77 -11 56 16 56 305 c 0
 56 595 77 622 262 622 c 0
 447 622 468 594 468 305 c 0xdc
399 314 m 0
 399 375 399 450 387 497 c 0
 372 552 337 561 262 561 c 0
 180 561 149 549 136 490 c 0
 125 444 125 376 125 314 c 0
 125 259 125 172 137 121 c 0
 149 71 174 50 262 50 c 0
 351 50 377 71 388 127 c 0
 399 181 399 252 399 314 c 0
369 772 m 0
 369 761 365 748 341 737 c 2
 208 678 l 2
 202 675 197 673 190 673 c 0xbc
 164 673 157 705 157 713 c 0
 157 731 168 736 182 742 c 2
 315 802 l 2
 326 807 334 807 334 807 c 1
 354 807 369 792 369 772 c 0
EndSplineSet
EndChar

StartChar: Ocircumflex
Encoding: 212 212 148
Width: 525
GlyphClass: 2
Flags: MW
HStem: -11 61<218 306.5 218 354> 561 61<221 299.5>
VStem: 56 69<286.5 345 286.5 450> 399 69<283 344.5>
LayerCount: 2
Fore
SplineSet
468 305 m 0
 468 16 446 -11 262 -11 c 0
 77 -11 56 16 56 305 c 0
 56 595 77 622 262 622 c 0
 447 622 468 594 468 305 c 0
399 314 m 0
 399 375 399 450 387 497 c 0
 372 552 337 561 262 561 c 0
 180 561 149 549 136 490 c 0
 125 444 125 376 125 314 c 0
 125 259 125 172 137 121 c 0
 149 71 174 50 262 50 c 0
 351 50 377 71 388 127 c 0
 399 181 399 252 399 314 c 0
391 721 m 2
 426 708 408 654 372 665 c 2
 263 698 l 1
 154 665 l 2
 118 654 100 708 136 721 c 2
 254 764 l 2
 260 766 267 766 273 764 c 2
 391 721 l 2
EndSplineSet
EndChar

StartChar: Otilde
Encoding: 213 213 149
Width: 525
GlyphClass: 2
Flags: MW
HStem: -11 61<218 306.5 218 354> 561 61<221 299.5> 663 120<111 232 201.5 324.5>
VStem: 56 69<286.5 345 286.5 450> 399 69<283 344.5>
LayerCount: 2
Fore
SplineSet
468 305 m 0
 468 16 446 -11 262 -11 c 0
 77 -11 56 16 56 305 c 0
 56 595 77 622 262 622 c 0
 447 622 468 594 468 305 c 0
399 314 m 0
 399 375 399 450 387 497 c 0
 372 552 337 561 262 561 c 0
 180 561 149 549 136 490 c 0
 125 444 125 376 125 314 c 0
 125 259 125 172 137 121 c 0
 149 71 174 50 262 50 c 0
 351 50 377 71 388 127 c 0
 399 181 399 252 399 314 c 0
438 751 m 0
 438 733 409 711 389 696 c 0
 366 679 338 663 311 663 c 0
 277 663 257 684 244 697 c 0
 231 709 223 718 213 718 c 0
 199 718 173 702 143 674 c 0
 136 668 130 663 119 663 c 0
 103 663 88 679 88 695 c 0
 88 713 117 735 137 750 c 0
 160 767 188 783 215 783 c 0
 249 783 269 762 282 749 c 0
 295 737 303 728 313 728 c 0
 327 728 353 744 383 772 c 0
 390 778 396 783 407 783 c 0
 423 783 438 767 438 751 c 0
EndSplineSet
EndChar

StartChar: Odieresis
Encoding: 214 214 150
Width: 525
GlyphClass: 2
Flags: MW
HStem: -11 61<218 306.5 218 354> 561 61<221 299.5> 663 90<152.5 177.5 347.5 372.5>
VStem: 56 69<286.5 345 286.5 450> 120 90<695.5 721> 315 90<695.5 721> 399 69<283 344.5>
LayerCount: 2
Fore
SplineSet
468 305 m 0xf2
 468 16 446 -11 262 -11 c 0
 77 -11 56 16 56 305 c 0
 56 595 77 622 262 622 c 0
 447 622 468 594 468 305 c 0xf2
399 314 m 0
 399 375 399 450 387 497 c 0
 372 552 337 561 262 561 c 0
 180 561 149 549 136 490 c 0
 125 444 125 376 125 314 c 0
 125 259 125 172 137 121 c 0
 149 71 174 50 262 50 c 0
 351 50 377 71 388 127 c 0
 399 181 399 252 399 314 c 0
210 708 m 0xec
 210 683 190 663 165 663 c 0
 140 663 120 683 120 708 c 0
 120 734 140 753 165 753 c 0
 190 753 210 734 210 708 c 0xec
405 708 m 0
 405 683 385 663 360 663 c 0
 335 663 315 683 315 708 c 0
 315 734 335 753 360 753 c 0
 385 753 405 734 405 708 c 0
EndSplineSet
EndChar

StartChar: multiply
Encoding: 215 215 151
Width: 525
GlyphClass: 2
Flags: W
LayerCount: 2
Fore
SplineSet
421 147 m 0
 396 122 372 147 363 155 c 2
 262 257 l 1
 162 156 l 2
 153 148 128 123 104 148 c 1
 79 172 104 197 112 206 c 2
 213 306 l 1
 111 407 l 2
 103 416 78 440 103 465 c 0
 128 490 152 465 161 457 c 2
 262 355 l 1
 362 456 l 2
 371 464 396 489 420 464 c 1
 445 440 420 415 412 406 c 2
 311 306 l 1
 413 205 l 2
 421 196 446 172 421 147 c 0
EndSplineSet
EndChar

StartChar: Oslash
Encoding: 216 216 152
Width: 525
GlyphClass: 2
Flags: MW
HStem: -85 21G<147 157.5> -11 61<250.5 301.5 249 354> 561 61<222.5 273.5 169.5 275> 676 20G<366.5 377>
VStem: 56 56<282.5 335.5 203.5 450> 412 56<275.5 407.5>
LayerCount: 2
Fore
SplineSet
468 305 m 0
 468 16 446 -11 262 -11 c 0
 239 -11 218 -11 192 -9 c 1
 177 -55 l 2
 173 -68 168 -85 147 -85 c 1
 147 -85 115 -83 115 -55 c 1
 115 -55 115 -47 132 4 c 1
 82 26 69 69 61 147 c 0
 56 195 56 260 56 305 c 0
 56 595 77 622 262 622 c 0
 285 622 306 622 332 620 c 1
 347 666 l 2
 351 679 356 696 377 696 c 1
 377 696 409 694 409 666 c 1
 409 666 409 658 392 607 c 1
 457 579 468 510 468 305 c 0
412 306 m 0
 412 509 391 524 370 540 c 1
 212 53 l 1
 212 53 218 51 223 51 c 0
 234 50 236 50 262 50 c 0
 341 50 382 57 399 117 c 0
 412 165 412 245 412 306 c 0
312 558 m 1
 312 558 306 560 301 560 c 0
 290 561 288 561 262 561 c 0
 183 561 142 554 125 494 c 0
 112 446 112 366 112 305 c 0
 112 102 133 87 154 71 c 1
 312 558 l 1
EndSplineSet
EndChar

StartChar: Ugrave
Encoding: 217 217 153
Width: 525
GlyphClass: 2
Flags: MW
HStem: -11 61<235.5 288 235.5 312> 550 61<37.5 174 45 75 144 144 144 174 350 380 449 479 449 449> 611 62<331.5 479> 787 20G<181 191>
VStem: 4 140 75 69<204 209 209 550> 75 140<204 596 550 596> 380 69<209 550> 380 140<209 596 550 596>
LayerCount: 2
Fore
SplineSet
520 581 m 0xd880
 520 550 495 550 479 550 c 2
 449 550 l 1
 449 204 l 2
 449 81 362 -11 262 -11 c 0
 162 -11 75 81 75 204 c 2
 75 550 l 1xd5
 45 550 l 2
 30 550 4 550 4 581 c 0xd880
 4 611 30 611 45 611 c 2
 174 611 l 2
 189 611 215 611 215 581 c 0xd280
 215 550 189 550 174 550 c 2
 144 550 l 1
 144 209 l 2
 144 102 209 50 262 50 c 0
 314 50 380 102 380 209 c 2
 380 550 l 1
 350 550 l 2
 335 550 309 550 309 581 c 0
 309 611 335 611 350 611 c 2
 479 611 l 2
 494 611 520 611 520 581 c 0xd880
368 713 m 0
 368 705 361 673 335 673 c 0
 328 673 323 675 317 678 c 2
 184 737 l 2
 160 748 156 761 156 772 c 0
 156 792 171 807 191 807 c 1
 191 807 199 807 210 802 c 2
 343 742 l 2
 357 736 368 731 368 713 c 0
EndSplineSet
EndChar

StartChar: Uacute
Encoding: 218 218 154
Width: 525
GlyphClass: 2
Flags: MW
HStem: -11 61<235.5 288 235.5 312> 550 61<37.5 174 45 75 144 144 144 174 350 380 449 479 449 449> 611 62<45 193.5 177 181.5> 787 20G<334 344>
VStem: 4 140 75 69<204 209 209 550> 75 140<204 596 550 596> 309 140 380 69<209 550> 380 140<209 596 550 596>
LayerCount: 2
Fore
SplineSet
520 581 m 0xd840
 520 550 495 550 479 550 c 2
 449 550 l 1
 449 204 l 2
 449 81 362 -11 262 -11 c 0
 162 -11 75 81 75 204 c 2
 75 550 l 1xd5
 45 550 l 2
 30 550 4 550 4 581 c 0xd9
 4 611 30 611 45 611 c 2
 174 611 l 2
 189 611 215 611 215 581 c 0xd3
 215 550 189 550 174 550 c 2
 144 550 l 1
 144 209 l 2
 144 102 209 50 262 50 c 0
 314 50 380 102 380 209 c 2
 380 550 l 1xd880
 350 550 l 2
 335 550 309 550 309 581 c 0xd9
 309 611 335 611 350 611 c 2
 479 611 l 2
 494 611 520 611 520 581 c 0xd840
369 772 m 0
 369 761 365 748 341 737 c 2
 208 678 l 2
 202 675 197 673 190 673 c 0
 164 673 157 705 157 713 c 0
 157 731 168 736 182 742 c 2
 315 802 l 2
 326 807 334 807 334 807 c 1
 354 807 369 792 369 772 c 0
EndSplineSet
EndChar

StartChar: Ucircumflex
Encoding: 219 219 155
Width: 525
GlyphClass: 2
Flags: MW
HStem: -11 61<235.5 288 235.5 312> 550 61<37.5 174 45 75 144 144 144 174 350 380 449 479 449 449>
VStem: 4 140 75 69<204 209 209 550> 75 140<204 596 550 596> 309 140 380 69<209 550> 380 140<209 596 550 596>
LayerCount: 2
Fore
SplineSet
520 581 m 0xe1
 520 550 495 550 479 550 c 2
 449 550 l 1
 449 204 l 2
 449 81 362 -11 262 -11 c 0
 162 -11 75 81 75 204 c 2
 75 550 l 1xd4
 45 550 l 2
 30 550 4 550 4 581 c 0xe4
 4 611 30 611 45 611 c 2
 174 611 l 2
 189 611 215 611 215 581 c 0xcc
 215 550 189 550 174 550 c 2
 144 550 l 1
 144 209 l 2
 144 102 209 50 262 50 c 0
 314 50 380 102 380 209 c 2
 380 550 l 1xe2
 350 550 l 2
 335 550 309 550 309 581 c 0xe4
 309 611 335 611 350 611 c 2
 479 611 l 2
 494 611 520 611 520 581 c 0xe1
391 721 m 2
 426 708 408 654 372 665 c 2
 263 698 l 1
 154 665 l 2
 118 654 100 708 136 721 c 2
 254 764 l 2
 260 766 267 766 273 764 c 2
 391 721 l 2
EndSplineSet
EndChar

StartChar: Udieresis
Encoding: 220 220 156
Width: 525
GlyphClass: 2
Flags: MW
HStem: -11 61<235.5 288 235.5 312> 550 61<37.5 174 45 75 144 144 144 174 350 380 449 479 449 449> 663 90<152.5 177.5 347.5 372.5>
VStem: 4 140 75 69<204 209 209 550> 120 95 309 96 380 69<209 550> 380 140<209 596 550 596>
LayerCount: 2
Fore
SplineSet
520 581 m 0xf080
 520 550 495 550 479 550 c 2
 449 550 l 1
 449 204 l 2
 449 81 362 -11 262 -11 c 0
 162 -11 75 81 75 204 c 2
 75 550 l 1xe9
 45 550 l 2
 30 550 4 550 4 581 c 0xf2
 4 611 30 611 45 611 c 2
 174 611 l 2
 189 611 215 611 215 581 c 0xe6
 215 550 189 550 174 550 c 2
 144 550 l 1
 144 209 l 2
 144 102 209 50 262 50 c 0
 314 50 380 102 380 209 c 2
 380 550 l 1xf1
 350 550 l 2
 335 550 309 550 309 581 c 0xf2
 309 611 335 611 350 611 c 2
 479 611 l 2
 494 611 520 611 520 581 c 0xf080
210 708 m 0
 210 683 190 663 165 663 c 0
 140 663 120 683 120 708 c 0
 120 734 140 753 165 753 c 0
 190 753 210 734 210 708 c 0
405 708 m 0xf2
 405 683 385 663 360 663 c 0
 335 663 315 683 315 708 c 0
 315 734 335 753 360 753 c 0
 385 753 405 734 405 708 c 0xf2
EndSplineSet
EndChar

StartChar: Yacute
Encoding: 221 221 157
Width: 525
GlyphClass: 2
Flags: MW
HStem: 0 61<195 228 203 228 297 322> 550 61<51 163 59 80 157 163 163 169 361 367 444 465 444 444> 611 62<59 193.5 163 193.5> 787 20G<334 344>
VStem: 19 184<565.5 596> 163 134<15.5 244> 228 69<61 244 61 244> 228 134<15 244> 321 184<565.5 595.5 565 596>
LayerCount: 2
Fore
SplineSet
505 580 m 0xda80
 505 550 480 550 465 550 c 2
 444 550 l 1
 297 244 l 1
 297 61 l 1xd480
 322 61 l 2
 338 61 362 61 362 30 c 0
 362 0 337 0 322 0 c 2
 203 0 l 2xd9
 187 0 163 0 163 31 c 0xd480
 163 61 188 61 203 61 c 2
 228 61 l 1
 228 244 l 1
 80 550 l 1
 59 550 l 2
 43 550 19 550 19 581 c 0xda80
 19 611 44 611 59 611 c 2
 163 611 l 2xd480
 178 611 203 611 203 581 c 0
 203 550 181 550 157 550 c 1
 167 529 248 365 262 314 c 1
 367 550 l 1
 343 550 321 550 321 581 c 0
 321 611 346 611 361 611 c 2
 465 611 l 2
 481 611 505 611 505 580 c 0xda80
369 772 m 0
 369 761 365 748 341 737 c 2
 208 678 l 2
 202 675 197 673 190 673 c 0xba80
 164 673 157 705 157 713 c 0
 157 731 168 736 182 742 c 2
 315 802 l 2
 326 807 334 807 334 807 c 1
 354 807 369 792 369 772 c 0
EndSplineSet
EndChar

StartChar: Thorn
Encoding: 222 222 158
Width: 525
GlyphClass: 2
Flags: MW
HStem: 0 61<65 74 74 108 178 187> 159 61<178 268 268 293 178 268> 446 61<178 278 178 292> 550 61<99 108 178 178 178 212 212 221 74 230>
VStem: 31 147<15 159> 108 70<61 159 61 220 220 446 507 550> 108 147<15 550> 406 70<309.5 354.5>
LayerCount: 2
Fore
SplineSet
476 333 m 0xf9
 476 249 410 159 293 159 c 2
 178 159 l 1
 178 61 l 1xf9
 196 61 229 61 233 60 c 0
 255 55 255 35 255 30 c 0xf3
 255 0 230 0 212 0 c 2
 74 0 l 2
 56 0 31 0 31 30 c 0xf9
 31 58 54 60 56 61 c 1
 108 61 l 1
 108 550 l 1xf5
 90 550 57 550 53 551 c 0
 31 556 31 576 31 581 c 0xf9
 31 611 56 611 74 611 c 2
 212 611 l 2
 230 611 255 611 255 581 c 0xf3
 255 553 232 551 230 550 c 1
 178 550 l 1
 178 507 l 1
 292 507 l 2
 413 507 476 415 476 333 c 0xf9
406 333 m 0
 406 376 374 446 278 446 c 2
 178 446 l 1
 178 220 l 1
 268 220 l 2
 367 220 406 286 406 333 c 0
EndSplineSet
EndChar

StartChar: germandbls
Encoding: 223 223 159
Width: 525
GlyphClass: 2
Flags: MW
HStem: -6 21G<278 358> 0 55 0 111<57 257.5> 370 61<49.5 111 57 111> 556 61<275 319>
VStem: 17 163<25 41 41 45.5 385 415.5> 111 69<61 370 370 370 431 494> 238 228<387.5 540.5> 397 69<496 519> 426 69<136.5 199.5 120 202.5>
LayerCount: 2
Fore
SplineSet
495 175 m 0x5c40
 495 65 404 -6 312 -6 c 0x9c40
 244 -6 210 32 210 69 c 0
 210 96 230 111 251 111 c 0x3d
 264 111 276 104 283 95 c 0
 290 85 290 83 290 59 c 1
 296 56 305 55 312 55 c 0
 365 55 426 98 426 175 c 0x5c40
 426 230 397 362 262 370 c 1
 262 370 238 375 238 400 c 0x5d
 238 423 254 430 266 431 c 0
 368 434 397 485 397 507 c 0
 397 531 350 556 288 556 c 0
 262 556 237 552 214 542 c 0
 180 527 180 514 180 494 c 2
 180 41 l 2
 180 9 173 0 140 0 c 2
 57 0 l 2
 42 0 17 0 17 30 c 0x5c80
 17 61 41 61 57 61 c 2
 111 61 l 1
 111 370 l 1x5b
 57 370 l 2
 42 370 17 370 17 400 c 0x5d
 17 431 41 431 57 431 c 2
 111 431 l 1
 111 501 l 2
 111 594 225 617 289 617 c 0
 385 617 466 573 466 508 c 0x5a80
 466 478 452 432 383 395 c 1
 480 327 495 224 495 175 c 0x5c40
EndSplineSet
EndChar

StartChar: agrave
Encoding: 224 224 160
Width: 525
GlyphClass: 2
Flags: MW
HStem: -6 67 0 21G<450 483> 218 59<350 350> 277 44 277 102 440 48<199.5 348> 602 20G<181 191>
VStem: 50 69<108.5 152.5 108.5 176> 76 89<367 371 367 403.5> 350 69<134 218 218 218 277 285 69 312.5>
LayerCount: 2
Fore
SplineSet
519 31 m 0x96c0
 519 0 497 0 469 0 c 0x6740
 431 0 383 1 361 32 c 1
 314 1 252 -6 215 -6 c 0
 113 -6 50 59 50 128 c 0
 50 224 173 274 350 277 c 1
 350 348 298 379 222 379 c 0x8f40
 213 379 200 379 186 378 c 0
 166 376 165 375 165 367 c 0
 164 330 136 321 121 321 c 0
 97 321 76 337 76 367 c 0
 76 440 178 440 221 440 c 0
 365 440 419 356 419 285 c 2
 419 69 l 1
 427 66 437 61 479 61 c 0
 494 61 519 61 519 31 c 0x96c0
350 134 m 2
 350 218 l 1
 205 214 119 177 119 128 c 0
 119 89 160 55 222 55 c 0
 230 55 275 55 311 72 c 0
 350 90 350 111 350 134 c 2
368 528 m 0
 368 520 361 488 335 488 c 0
 328 488 323 490 317 493 c 2
 184 552 l 2
 160 563 156 576 156 587 c 0
 156 607 171 622 191 622 c 1
 191 622 199 622 210 617 c 2
 343 557 l 2
 357 551 368 546 368 528 c 0
EndSplineSet
EndChar

StartChar: aacute
Encoding: 225 225 161
Width: 525
GlyphClass: 2
Flags: MW
HStem: -6 67 0 21G<450 483> 218 59<350 350> 277 44 277 102 440 48<177 293> 602 20G<334 344>
VStem: 50 69<108.5 152.5 108.5 176> 76 89<367 371 367 403.5> 350 69<134 218 218 218 277 285 69 312.5>
LayerCount: 2
Fore
SplineSet
519 31 m 0x96c0
 519 0 497 0 469 0 c 0x6740
 431 0 383 1 361 32 c 1
 314 1 252 -6 215 -6 c 0
 113 -6 50 59 50 128 c 0
 50 224 173 274 350 277 c 1
 350 348 298 379 222 379 c 0x8f40
 213 379 200 379 186 378 c 0
 166 376 165 375 165 367 c 0
 164 330 136 321 121 321 c 0
 97 321 76 337 76 367 c 0
 76 440 178 440 221 440 c 0
 365 440 419 356 419 285 c 2
 419 69 l 1
 427 66 437 61 479 61 c 0
 494 61 519 61 519 31 c 0x96c0
350 134 m 2
 350 218 l 1
 205 214 119 177 119 128 c 0
 119 89 160 55 222 55 c 0
 230 55 275 55 311 72 c 0
 350 90 350 111 350 134 c 2
369 587 m 0
 369 576 365 563 341 552 c 2
 208 493 l 2
 202 490 197 488 190 488 c 0
 164 488 157 520 157 528 c 0
 157 546 168 551 182 557 c 2
 315 617 l 2
 326 622 334 622 334 622 c 1
 354 622 369 607 369 587 c 0
EndSplineSet
EndChar

StartChar: acircumflex
Encoding: 226 226 162
Width: 525
GlyphClass: 2
Flags: MW
HStem: -6 67 0 21G<450 483> 218 59<350 350> 379 61<217.5 260>
VStem: 50 69<108.5 152.5 108.5 176> 76 89<367 371 367 403.5> 350 69<134 218 218 218 277 285 69 312.5>
LayerCount: 2
Fore
SplineSet
519 31 m 0xb6
 519 0 497 0 469 0 c 0x7a
 431 0 383 1 361 32 c 1
 314 1 252 -6 215 -6 c 0
 113 -6 50 59 50 128 c 0xba
 50 224 173 274 350 277 c 1
 350 348 298 379 222 379 c 0
 213 379 200 379 186 378 c 0
 166 376 165 375 165 367 c 0
 164 330 136 321 121 321 c 0
 97 321 76 337 76 367 c 0
 76 440 178 440 221 440 c 0
 365 440 419 356 419 285 c 2
 419 69 l 1
 427 66 437 61 479 61 c 0
 494 61 519 61 519 31 c 0xb6
350 134 m 2
 350 218 l 1
 205 214 119 177 119 128 c 0
 119 89 160 55 222 55 c 0
 230 55 275 55 311 72 c 0
 350 90 350 111 350 134 c 2
397 542 m 2
 430 521 399 473 366 493 c 2
 263 555 l 1
 160 493 l 2
 127 473 96 522 129 543 c 2
 247 618 l 2
 256 624 268 624 277 618 c 2
 397 542 l 2
EndSplineSet
EndChar

StartChar: atilde
Encoding: 227 227 163
Width: 525
GlyphClass: 2
Flags: MW
HStem: -6 67 0 21G<450 483> 218 59<350 350> 379 61<217.5 260> 495 120<111 232 201.5 324.5>
VStem: 50 69<108.5 152.5 108.5 176> 76 89<367 371 367 403.5> 350 69<134 218 218 218 277 285 69 312.5>
LayerCount: 2
Fore
SplineSet
519 31 m 0xbb
 519 0 497 0 469 0 c 0x7d
 431 0 383 1 361 32 c 1
 314 1 252 -6 215 -6 c 0
 113 -6 50 59 50 128 c 0xbd
 50 224 173 274 350 277 c 1
 350 348 298 379 222 379 c 0
 213 379 200 379 186 378 c 0
 166 376 165 375 165 367 c 0
 164 330 136 321 121 321 c 0
 97 321 76 337 76 367 c 0
 76 440 178 440 221 440 c 0
 365 440 419 356 419 285 c 2
 419 69 l 1
 427 66 437 61 479 61 c 0
 494 61 519 61 519 31 c 0xbb
350 134 m 2
 350 218 l 1
 205 214 119 177 119 128 c 0
 119 89 160 55 222 55 c 0
 230 55 275 55 311 72 c 0
 350 90 350 111 350 134 c 2
438 583 m 0
 438 565 409 543 389 528 c 0
 366 511 338 495 311 495 c 0
 277 495 257 516 244 529 c 0
 231 541 223 550 213 550 c 0
 199 550 173 534 143 506 c 0
 136 500 130 495 119 495 c 0
 103 495 88 511 88 527 c 0
 88 545 117 567 137 582 c 0
 160 599 188 615 215 615 c 0
 249 615 269 594 282 581 c 0
 295 569 303 560 313 560 c 0
 327 560 353 576 383 604 c 0
 390 610 396 615 407 615 c 0
 423 615 438 599 438 583 c 0
EndSplineSet
EndChar

StartChar: adieresis
Encoding: 228 228 164
Width: 525
GlyphClass: 2
Flags: MW
HStem: -6 67 0 21G<450 483> 218 59<350 350> 379 61<217.5 260> 510 90<167.5 192.5 332.5 357.5>
VStem: 50 69<108.5 152.5 108.5 176> 76 89<367 371 367 403.5> 135 90<542.5 568> 300 90<542.5 568> 350 69<134 218 218 218 277 285 69 312.5>
LayerCount: 2
Fore
SplineSet
519 31 m 0xba40
 519 0 497 0 469 0 c 0x7d40
 431 0 383 1 361 32 c 1
 314 1 252 -6 215 -6 c 0
 113 -6 50 59 50 128 c 0xbd80
 50 224 173 274 350 277 c 1
 350 348 298 379 222 379 c 0
 213 379 200 379 186 378 c 0
 166 376 165 375 165 367 c 0
 164 330 136 321 121 321 c 0
 97 321 76 337 76 367 c 0
 76 440 178 440 221 440 c 0
 365 440 419 356 419 285 c 2
 419 69 l 1
 427 66 437 61 479 61 c 0
 494 61 519 61 519 31 c 0xba40
350 134 m 2
 350 218 l 1
 205 214 119 177 119 128 c 0
 119 89 160 55 222 55 c 0
 230 55 275 55 311 72 c 0
 350 90 350 111 350 134 c 2
225 555 m 0
 225 530 205 510 180 510 c 0
 155 510 135 530 135 555 c 0
 135 581 155 600 180 600 c 0
 205 600 225 581 225 555 c 0
390 555 m 0xbd80
 390 530 370 510 345 510 c 0
 320 510 300 530 300 555 c 0
 300 581 320 600 345 600 c 0
 370 600 390 581 390 555 c 0xbd80
EndSplineSet
EndChar

StartChar: aring
Encoding: 229 229 165
Width: 525
GlyphClass: 2
Flags: MW
HStem: -6 67 0 21G<450 483> 218 59<350 350> 379 61<217.5 260> 492 38<251.5 274.5 251.5 291> 598 38<251.5 274.5>
VStem: 50 69<108.5 152.5 108.5 176> 76 89<367 371 367 403.5> 166 50<554.5 573.5 554.5 582.5> 310 50<554.5 573.5> 350 69<134 218 218 218 277 285 69 312.5>
LayerCount: 2
Fore
SplineSet
519 31 m 0xbda0
 519 0 497 0 469 0 c 0x7ea0
 431 0 383 1 361 32 c 1
 314 1 252 -6 215 -6 c 0
 113 -6 50 59 50 128 c 0xbec0
 50 224 173 274 350 277 c 1
 350 348 298 379 222 379 c 0
 213 379 200 379 186 378 c 0
 166 376 165 375 165 367 c 0
 164 330 136 321 121 321 c 0
 97 321 76 337 76 367 c 0
 76 440 178 440 221 440 c 0
 365 440 419 356 419 285 c 2
 419 69 l 1
 427 66 437 61 479 61 c 0
 494 61 519 61 519 31 c 0xbda0
350 134 m 2
 350 218 l 1
 205 214 119 177 119 128 c 0
 119 89 160 55 222 55 c 0
 230 55 275 55 311 72 c 0
 350 90 350 111 350 134 c 2
310 564 m 0xbec0
 310 583 286 598 263 598 c 0
 240 598 216 583 216 564 c 0
 216 545 240 530 263 530 c 0
 286 530 310 545 310 564 c 0xbec0
360 564 m 0
 360 527 319 492 263 492 c 0
 207 492 166 527 166 564 c 0
 166 601 207 636 263 636 c 0
 319 636 360 601 360 564 c 0
EndSplineSet
EndChar

StartChar: ae
Encoding: 230 230 166
Width: 525
GlyphClass: 2
Flags: MW
HStem: -6 61<132.5 156.5 132.5 172 372 405> -6 143<356.5 484> 191 60<292 447 292 464 292 447> 321 119<73 184> 379 61<148 178.5 361.5 394>
VStem: 33 56<104 140.5 104 159.5> 33 96 447 57<251 251>
LayerCount: 2
Fore
SplineSet
504 109 m 0x75
 504 89 474 -6 389 -6 c 0
 324 -6 283 53 276 63 c 1
 250 19 197 -6 147 -6 c 0
 75 -6 33 59 33 118 c 0
 33 201 122 247 234 248 c 1
 234 281 l 2
 234 344 203 379 154 379 c 0xad
 142 379 128 379 128 375 c 0
 128 372 129 369 129 366 c 0
 126 324 93 321 85 321 c 0
 61 321 40 337 40 367 c 0
 40 400 65 440 157 440 c 0
 211 440 248 411 272 368 c 1
 302 420 344 440 379 440 c 0
 451 440 504 366 504 233 c 0
 504 202 500 191 464 191 c 2
 292 191 l 1
 300 106 350 55 394 55 c 0xb3
 416 55 438 73 448 112 c 0
 450 118 454 137 476 137 c 0
 492 137 504 124 504 109 c 0x75
447 251 m 1
 442 347 409 379 379 379 c 0
 336 379 298 315 292 251 c 1
 447 251 l 1
234 189 m 1
 155 186 89 162 89 119 c 0
 89 89 112 55 153 55 c 0
 160 55 188 57 211 76 c 0
 233 94 233 115 233 134 c 0
 233 163 233 178 234 189 c 1
EndSplineSet
EndChar

StartChar: ccedilla
Encoding: 231 231 167
Width: 525
GlyphClass: 2
Flags: MW
HStem: -208 62<216 253.5> -66 121 321 119<219 421> 379 61<237.5 315.5>
VStem: 73 69<170.5 240 170.5 260> 365 76 365 89<370 374.5>
LayerCount: 2
Fore
SplineSet
466 109 m 0xda
 466 94 440 18 342 -1 c 1
 342 -9 l 1
 413 -23 441 -67 441 -106 c 0xec
 441 -208 301 -208 206 -208 c 0
 191 -208 175 -200 175 -177 c 0
 175 -146 197 -146 235 -146 c 0
 273 -146 372 -146 372 -106 c 0
 372 -86 349 -68 305 -66 c 0
 273 -64 273 -44 273 -24 c 2
 273 -5 l 1
 157 5 73 102 73 216 c 0
 73 304 133 440 305 440 c 0
 350 440 454 440 454 367 c 0
 454 338 433 321 409 321 c 0xea
 385 321 366 335 365 370 c 0
 365 379 326 379 305 379 c 0
 170 379 142 264 142 216 c 0
 142 125 214 55 299 55 c 0
 373 55 392 102 398 115 c 1
 405 135 415 137 431 137 c 0
 437 137 466 137 466 109 c 0xda
EndSplineSet
EndChar

StartChar: egrave
Encoding: 232 232 168
Width: 525
GlyphClass: 2
Flags: MW
HStem: -6 61<254.5 306 254.5 351> 55 136<254.5 306> 191 60<127 393 127 424 126 393> 379 61<235 296> 440 48<331.5 335> 602 20G<181 191>
LayerCount: 2
Fore
SplineSet
464 109 m 0x54
 464 84 417 -6 285 -6 c 0xb4
 156 -6 55 95 55 217 c 0
 55 340 151 440 270 440 c 0
 400 440 464 342 464 228 c 0
 464 191 445 191 424 191 c 2
 126 191 l 1
 142 105 217 55 292 55 c 0
 320 55 374 64 396 115 c 1
 403 134 411 137 429 137 c 0
 435 137 464 137 464 109 c 0x54
393 251 m 1
 384 354 322 379 270 379 c 0
 200 379 141 324 127 251 c 1
 393 251 l 1
368 528 m 0
 368 520 361 488 335 488 c 0xac
 328 488 323 490 317 493 c 2
 184 552 l 2
 160 563 156 576 156 587 c 0
 156 607 171 622 191 622 c 1
 191 622 199 622 210 617 c 2
 343 557 l 2
 357 551 368 546 368 528 c 0
EndSplineSet
EndChar

StartChar: eacute
Encoding: 233 233 169
Width: 525
GlyphClass: 2
Flags: MW
HStem: -6 61<254.5 306 254.5 351> 55 136<254.5 306> 191 60<127 393 127 424 126 393> 379 61<235 296> 440 48<177 335> 602 20G<334 344>
LayerCount: 2
Fore
SplineSet
464 109 m 0x54
 464 84 417 -6 285 -6 c 0xb4
 156 -6 55 95 55 217 c 0
 55 340 151 440 270 440 c 0
 400 440 464 342 464 228 c 0
 464 191 445 191 424 191 c 2
 126 191 l 1
 142 105 217 55 292 55 c 0
 320 55 374 64 396 115 c 1
 403 134 411 137 429 137 c 0
 435 137 464 137 464 109 c 0x54
393 251 m 1
 384 354 322 379 270 379 c 0
 200 379 141 324 127 251 c 1
 393 251 l 1
369 587 m 0
 369 576 365 563 341 552 c 2
 208 493 l 2
 202 490 197 488 190 488 c 0xac
 164 488 157 520 157 528 c 0
 157 546 168 551 182 557 c 2
 315 617 l 2
 326 622 334 622 334 622 c 1
 354 622 369 607 369 587 c 0
EndSplineSet
EndChar

StartChar: ecircumflex
Encoding: 234 234 170
Width: 525
GlyphClass: 2
Flags: MW
HStem: -6 61<254.5 306 254.5 351> 191 60<127 393 127 424 126 393> 379 61<235 296>
LayerCount: 2
Fore
SplineSet
464 109 m 0
 464 84 417 -6 285 -6 c 0
 156 -6 55 95 55 217 c 0
 55 340 151 440 270 440 c 0
 400 440 464 342 464 228 c 0
 464 191 445 191 424 191 c 2
 126 191 l 1
 142 105 217 55 292 55 c 0
 320 55 374 64 396 115 c 1
 403 134 411 137 429 137 c 0
 435 137 464 137 464 109 c 0
393 251 m 1
 384 354 322 379 270 379 c 0
 200 379 141 324 127 251 c 1
 393 251 l 1
397 542 m 2
 430 521 399 473 366 493 c 2
 263 555 l 1
 160 493 l 2
 127 473 96 522 129 543 c 2
 247 618 l 2
 256 624 268 624 277 618 c 2
 397 542 l 2
EndSplineSet
EndChar

StartChar: edieresis
Encoding: 235 235 171
Width: 525
GlyphClass: 2
Flags: MW
HStem: -6 61<254.5 306 254.5 351> 191 60<127 393 127 424 126 393> 379 61<235 296> 510 90<167.5 192.5 332.5 357.5>
VStem: 135 90<542.5 568> 300 90<542.5 568>
LayerCount: 2
Fore
SplineSet
464 109 m 0
 464 84 417 -6 285 -6 c 0
 156 -6 55 95 55 217 c 0
 55 340 151 440 270 440 c 0
 400 440 464 342 464 228 c 0
 464 191 445 191 424 191 c 2
 126 191 l 1
 142 105 217 55 292 55 c 0
 320 55 374 64 396 115 c 1
 403 134 411 137 429 137 c 0
 435 137 464 137 464 109 c 0
393 251 m 1
 384 354 322 379 270 379 c 0
 200 379 141 324 127 251 c 1
 393 251 l 1
225 555 m 0
 225 530 205 510 180 510 c 0
 155 510 135 530 135 555 c 0
 135 581 155 600 180 600 c 0
 205 600 225 581 225 555 c 0
390 555 m 0
 390 530 370 510 345 510 c 0
 320 510 300 530 300 555 c 0
 300 581 320 600 345 600 c 0
 370 600 390 581 390 555 c 0
EndSplineSet
EndChar

StartChar: igrave
Encoding: 236 236 172
Width: 525
GlyphClass: 2
Flags: MW
HStem: 0 61<111.5 240 119 240 309 414> 370 61<119.5 269 127 240> 602 20G<181 191>
VStem: 86 223<385.5 390 61 416> 240 215<15 370>
LayerCount: 2
Fore
SplineSet
455 30 m 0xe8
 455 0 429 0 414 0 c 2
 119 0 l 2
 104 0 78 0 78 30 c 0
 78 61 103 61 119 61 c 2
 240 61 l 1
 240 370 l 1xe8
 127 370 l 2
 112 370 86 370 86 401 c 0
 86 431 112 431 127 431 c 2
 269 431 l 2
 303 431 309 421 309 390 c 2
 309 61 l 1xf0
 414 61 l 2
 429 61 455 61 455 30 c 0xe8
368 528 m 0
 368 520 361 488 335 488 c 0
 328 488 323 490 317 493 c 2
 184 552 l 2
 160 563 156 576 156 587 c 0
 156 607 171 622 191 622 c 1
 191 622 199 622 210 617 c 2
 343 557 l 2
 357 551 368 546 368 528 c 0
EndSplineSet
EndChar

StartChar: iacute
Encoding: 237 237 173
Width: 525
GlyphClass: 2
Flags: MW
HStem: 0 61<111.5 240 119 240 309 414> 370 61<119.5 269 127 240> 431 57<177 193.5 177 269> 602 20G<334 344>
VStem: 86 223<385.5 390 61 416> 240 69<61 370 370 370> 240 215<15 370>
LayerCount: 2
Fore
SplineSet
455 30 m 0xd2
 455 0 429 0 414 0 c 2
 119 0 l 2
 104 0 78 0 78 30 c 0
 78 61 103 61 119 61 c 2
 240 61 l 1
 240 370 l 1xd4
 127 370 l 2
 112 370 86 370 86 401 c 0
 86 431 112 431 127 431 c 2
 269 431 l 2
 303 431 309 421 309 390 c 2
 309 61 l 1xd8
 414 61 l 2
 429 61 455 61 455 30 c 0xd2
369 587 m 0
 369 576 365 563 341 552 c 2
 208 493 l 2
 202 490 197 488 190 488 c 0
 164 488 157 520 157 528 c 0
 157 546 168 551 182 557 c 2
 315 617 l 2
 326 622 334 622 334 622 c 1
 354 622 369 607 369 587 c 0
EndSplineSet
EndChar

StartChar: icircumflex
Encoding: 238 238 174
Width: 525
GlyphClass: 2
Flags: MW
HStem: 0 61<111.5 240 119 240 309 414> 370 61<119.5 269 127 240>
VStem: 86 223<385.5 390 61 416> 240 69<61 370 370 370> 240 215<15 370>
LayerCount: 2
Fore
SplineSet
455 30 m 0xc8
 455 0 429 0 414 0 c 2
 119 0 l 2
 104 0 78 0 78 30 c 0
 78 61 103 61 119 61 c 2
 240 61 l 1
 240 370 l 1xd0
 127 370 l 2
 112 370 86 370 86 401 c 0
 86 431 112 431 127 431 c 2
 269 431 l 2
 303 431 309 421 309 390 c 2
 309 61 l 1xe0
 414 61 l 2
 429 61 455 61 455 30 c 0xc8
397 542 m 2
 430 521 399 473 366 493 c 2
 263 555 l 1
 160 493 l 2
 127 473 96 522 129 543 c 2
 247 618 l 2
 256 624 268 624 277 618 c 2
 397 542 l 2
EndSplineSet
EndChar

StartChar: idieresis
Encoding: 239 239 175
Width: 525
GlyphClass: 2
Flags: MW
HStem: 0 61<111.5 240 119 240 309 414> 370 61<119.5 269 127 240> 510 90<167.5 192.5 332.5 357.5>
VStem: 86 223<385.5 390 61 416> 135 90<542.5 568> 240 69<61 370 370 370> 240 215<15 370> 300 90<542.5 568>
LayerCount: 2
Fore
SplineSet
455 30 m 0xea
 455 0 429 0 414 0 c 2
 119 0 l 2
 104 0 78 0 78 30 c 0
 78 61 103 61 119 61 c 2
 240 61 l 1
 240 370 l 1xec
 127 370 l 2
 112 370 86 370 86 401 c 0
 86 431 112 431 127 431 c 2
 269 431 l 2
 303 431 309 421 309 390 c 2
 309 61 l 1xf0
 414 61 l 2
 429 61 455 61 455 30 c 0xea
225 555 m 0
 225 530 205 510 180 510 c 0
 155 510 135 530 135 555 c 0
 135 581 155 600 180 600 c 0
 205 600 225 581 225 555 c 0
390 555 m 0xe9
 390 530 370 510 345 510 c 0
 320 510 300 530 300 555 c 0
 300 581 320 600 345 600 c 0
 370 600 390 581 390 555 c 0xe9
EndSplineSet
EndChar

StartChar: eth
Encoding: 240 240 176
Width: 525
GlyphClass: 2
Flags: MW
HStem: -6 61<226.5 286.5> 378 61<227.5 279.5 206.5 302> 378 233<91 302>
VStem: 57 71<176 268 176 278> 398 69<213.5 253.5 213.5 259>
LayerCount: 2
Fore
SplineSet
467 231 m 0xb8
 467 196 467 130 414 67 c 0
 369 14 311 -6 262 -6 c 0
 151 -6 57 91 57 215 c 0
 57 341 151 439 262 439 c 0xd8
 297 439 325 428 331 426 c 1
 311 453 282 478 264 491 c 1
 249 500 l 1
 161 464 l 2
 156 462 151 461 146 461 c 0
 128 461 114 474 114 490 c 0
 114 504 124 516 138 522 c 2
 173 536 l 1
 159 540 145 544 131 546 c 0
 117 548 105 549 95 549 c 0
 64 550 64 577 64 577 c 1
 64 589 76 611 106 611 c 0
 160 611 213 597 261 572 c 1
 351 608 l 2
 356 610 361 611 366 611 c 0
 384 611 398 599 398 583 c 0
 398 569 388 556 374 551 c 2
 323 530 l 1
 467 413 467 276 467 231 c 0xb8
398 219 m 0
 398 299 341 378 263 378 c 0
 192 378 128 313 128 223 c 0
 128 129 190 55 263 55 c 0
 341 55 398 137 398 219 c 0
EndSplineSet
EndChar

StartChar: ntilde
Encoding: 241 241 177
Width: 525
GlyphClass: 2
Flags: MW
HStem: 0 61<45 97 53 97 166 210 210 211 319 358 427 471 471 472> 376 61<265.5 317.5> 411 20G<53 126 126 146> 495 120<111 232 201.5 324.5>
VStem: 12 154<15 238 385 400> 97 69<61 238 61 370> 97 154<15 370> 278 149<15 293> 358 69<61 288 288 293 61 318> 358 154<15 288>
LayerCount: 2
Fore
SplineSet
512 30 m 0xd840
 512 0 486 0 472 0 c 2
 319 0 l 2
 305 0 278 0 278 30 c 0xd9
 278 61 303 61 319 61 c 2
 358 61 l 1
 358 288 l 2
 358 348 344 376 291 376 c 0
 240 376 166 338 166 238 c 2
 166 61 l 1xd880
 210 61 l 2
 226 61 251 61 251 30 c 0xd3
 251 0 225 0 211 0 c 2
 52 0 l 2
 38 0 12 0 12 30 c 0xd9
 12 61 37 61 53 61 c 2
 97 61 l 1
 97 370 l 1xd5
 52 370 l 2
 38 370 12 370 12 400 c 0
 12 431 37 431 53 431 c 2
 126 431 l 2xb9
 166 431 166 416 166 384 c 1
 185 403 230 437 297 437 c 0
 376 437 427 394 427 293 c 2
 427 61 l 1xd9
 471 61 l 2
 487 61 512 61 512 30 c 0xd840
438 583 m 0
 438 565 409 543 389 528 c 0
 366 511 338 495 311 495 c 0
 277 495 257 516 244 529 c 0
 231 541 223 550 213 550 c 0
 199 550 173 534 143 506 c 0
 136 500 130 495 119 495 c 0
 103 495 88 511 88 527 c 0
 88 545 117 567 137 582 c 0
 160 599 188 615 215 615 c 0
 249 615 269 594 282 581 c 0
 295 569 303 560 313 560 c 0
 327 560 353 576 383 604 c 0
 390 610 396 615 407 615 c 0
 423 615 438 599 438 583 c 0
EndSplineSet
EndChar

StartChar: ograve
Encoding: 242 242 178
Width: 525
GlyphClass: 2
Flags: MW
HStem: -6 61<225 299 225 317> 379 61<226.5 298> 440 48<206 348> 602 20G<181 191>
VStem: 57 69<176.5 268.5 176.5 278.5> 398 69<176.5 268.5>
LayerCount: 2
Fore
SplineSet
467 216 m 0xdc
 467 90 372 -6 262 -6 c 0
 152 -6 57 89 57 216 c 0
 57 341 150 440 262 440 c 0
 374 440 467 341 467 216 c 0xdc
398 223 m 0
 398 314 334 379 262 379 c 0
 191 379 126 314 126 223 c 0
 126 130 188 55 262 55 c 0
 336 55 398 130 398 223 c 0
368 528 m 0
 368 520 361 488 335 488 c 0xbc
 328 488 323 490 317 493 c 2
 184 552 l 2
 160 563 156 576 156 587 c 0
 156 607 171 622 191 622 c 1
 191 622 199 622 210 617 c 2
 343 557 l 2
 357 551 368 546 368 528 c 0
EndSplineSet
EndChar

StartChar: oacute
Encoding: 243 243 179
Width: 525
GlyphClass: 2
Flags: MW
HStem: -6 61<225 299 225 317> 379 61<226.5 298> 440 48<177 318> 602 20G<334 344>
VStem: 57 69<176.5 268.5 176.5 278.5> 398 69<176.5 268.5>
LayerCount: 2
Fore
SplineSet
467 216 m 0xdc
 467 90 372 -6 262 -6 c 0
 152 -6 57 89 57 216 c 0
 57 341 150 440 262 440 c 0
 374 440 467 341 467 216 c 0xdc
398 223 m 0
 398 314 334 379 262 379 c 0
 191 379 126 314 126 223 c 0
 126 130 188 55 262 55 c 0
 336 55 398 130 398 223 c 0
369 587 m 0
 369 576 365 563 341 552 c 2
 208 493 l 2
 202 490 197 488 190 488 c 0xbc
 164 488 157 520 157 528 c 0
 157 546 168 551 182 557 c 2
 315 617 l 2
 326 622 334 622 334 622 c 1
 354 622 369 607 369 587 c 0
EndSplineSet
EndChar

StartChar: ocircumflex
Encoding: 244 244 180
Width: 525
GlyphClass: 2
Flags: MW
HStem: -6 61<225 299 225 317> 379 61<226.5 298>
VStem: 57 69<176.5 268.5 176.5 278.5> 398 69<176.5 268.5>
LayerCount: 2
Fore
SplineSet
467 216 m 0
 467 90 372 -6 262 -6 c 0
 152 -6 57 89 57 216 c 0
 57 341 150 440 262 440 c 0
 374 440 467 341 467 216 c 0
398 223 m 0
 398 314 334 379 262 379 c 0
 191 379 126 314 126 223 c 0
 126 130 188 55 262 55 c 0
 336 55 398 130 398 223 c 0
397 542 m 2
 430 521 399 473 366 493 c 2
 263 555 l 1
 160 493 l 2
 127 473 96 522 129 543 c 2
 247 618 l 2
 256 624 268 624 277 618 c 2
 397 542 l 2
EndSplineSet
EndChar

StartChar: otilde
Encoding: 245 245 181
Width: 525
GlyphClass: 2
Flags: MW
HStem: -6 61<225 299 225 317> 379 61<226.5 298> 495 120<111 232 201.5 324.5>
VStem: 57 69<176.5 268.5 176.5 278.5> 398 69<176.5 268.5>
LayerCount: 2
Fore
SplineSet
467 216 m 0
 467 90 372 -6 262 -6 c 0
 152 -6 57 89 57 216 c 0
 57 341 150 440 262 440 c 0
 374 440 467 341 467 216 c 0
398 223 m 0
 398 314 334 379 262 379 c 0
 191 379 126 314 126 223 c 0
 126 130 188 55 262 55 c 0
 336 55 398 130 398 223 c 0
438 583 m 0
 438 565 409 543 389 528 c 0
 366 511 338 495 311 495 c 0
 277 495 257 516 244 529 c 0
 231 541 223 550 213 550 c 0
 199 550 173 534 143 506 c 0
 136 500 130 495 119 495 c 0
 103 495 88 511 88 527 c 0
 88 545 117 567 137 582 c 0
 160 599 188 615 215 615 c 0
 249 615 269 594 282 581 c 0
 295 569 303 560 313 560 c 0
 327 560 353 576 383 604 c 0
 390 610 396 615 407 615 c 0
 423 615 438 599 438 583 c 0
EndSplineSet
EndChar

StartChar: odieresis
Encoding: 246 246 182
Width: 525
GlyphClass: 2
Flags: MW
HStem: -6 61<225 299 225 317> 379 61<226.5 298> 510 90<167.5 192.5 332.5 357.5>
VStem: 57 69<176.5 268.5 176.5 278.5> 135 90<542.5 568> 300 90<542.5 568> 398 69<176.5 268.5>
LayerCount: 2
Fore
SplineSet
467 216 m 0
 467 90 372 -6 262 -6 c 0
 152 -6 57 89 57 216 c 0
 57 341 150 440 262 440 c 0
 374 440 467 341 467 216 c 0
398 223 m 0
 398 314 334 379 262 379 c 0
 191 379 126 314 126 223 c 0
 126 130 188 55 262 55 c 0
 336 55 398 130 398 223 c 0
225 555 m 0
 225 530 205 510 180 510 c 0
 155 510 135 530 135 555 c 0
 135 581 155 600 180 600 c 0
 205 600 225 581 225 555 c 0
390 555 m 0
 390 530 370 510 345 510 c 0
 320 510 300 530 300 555 c 0
 300 581 320 600 345 600 c 0
 370 600 390 581 390 555 c 0
EndSplineSet
EndChar

StartChar: divide
Encoding: 247 247 183
Width: 525
GlyphClass: 2
Flags: MW
HStem: 31 125<245 278 243 280> 271 70<77 435 89 435 435 441> 455 125<245 278 243 280>
VStem: 199 125<77.5 109.5 501.5 533.5>
LayerCount: 2
Fore
SplineSet
486 306 m 0
 486 271 453 271 441 271 c 2
 83 271 l 2
 71 271 38 271 38 306 c 0
 38 341 75 341 89 341 c 2
 435 341 l 2
 449 341 486 341 486 306 c 0
324 517 m 0
 324 486 299 455 261 455 c 0
 229 455 199 481 199 518 c 0
 199 549 224 580 262 580 c 0
 294 580 324 554 324 517 c 0
324 93 m 0
 324 62 299 31 261 31 c 0
 229 31 199 57 199 94 c 0
 199 125 224 156 262 156 c 0
 294 156 324 130 324 93 c 0
EndSplineSet
EndChar

StartChar: oslash
Encoding: 248 248 184
Width: 525
GlyphClass: 2
Flags: MW
HStem: -140 21G<69 83> -6 61<253 306 248.5 321> 379 61<218 276> 551 20G<441 455>
VStem: 45 56<198.5 261 198.5 277> 423 56<171 234>
LayerCount: 2
Fore
SplineSet
481 541 m 0
 481 538 481 532 474 520 c 2
 399 390 l 1
 448 345 479 283 479 216 c 0
 479 92 380 -6 262 -6 c 0
 244 -6 213 -4 179 11 c 1
 102 -121 l 2
 98 -129 91 -140 75 -140 c 0
 63 -140 43 -130 43 -110 c 0
 43 -102 53 -84 60 -72 c 2
 126 42 l 1
 67 93 45 158 45 216 c 0
 45 338 141 440 262 440 c 0
 302 440 330 429 347 422 c 1
 422 552 l 2
 427 561 433 571 449 571 c 0
 461 571 481 561 481 541 c 0
423 216 m 0
 423 252 410 301 368 338 c 1
 210 63 l 1
 229 57 235 55 262 55 c 0
 350 55 423 126 423 216 c 0
316 370 m 1
 296 377 290 379 262 379 c 0
 174 379 101 306 101 216 c 0
 101 181 112 135 156 94 c 1
 316 370 l 1
EndSplineSet
EndChar

StartChar: ugrave
Encoding: 249 249 185
Width: 525
GlyphClass: 2
Flags: MW
HStem: -6 61<205.5 259.5> 0 21G<389 398 398 471> 370 61<45 126 53 97 314 358> 431 57<331.5 348 331.5 387 331.5 404> 602 20G<181 191>
VStem: 12 154<385 390> 97 69<114 120 120 370 370 370> 358 69<157 370 370 370> 358 154<15.5 370>
LayerCount: 2
Fore
SplineSet
512 31 m 0xac80
 512 0 487 0 471 0 c 2
 398 0 l 2x5c80
 380 0 359 0 358 32 c 1
 321 4 280 -6 239 -6 c 0
 166 -6 97 18 97 114 c 2
 97 370 l 1xaa80
 52 370 l 2
 38 370 12 370 12 400 c 0
 12 431 37 431 53 431 c 2
 126 431 l 2
 160 431 166 421 166 390 c 2
 166 120 l 2
 166 88 166 55 245 55 c 0
 277 55 358 67 358 157 c 2
 358 370 l 1
 313 370 l 2
 299 370 273 370 273 400 c 0
 273 431 298 431 314 431 c 2
 387 431 l 2
 421 431 427 421 427 390 c 2
 427 61 l 1xad
 472 61 l 2
 486 61 512 61 512 31 c 0xac80
368 528 m 0
 368 520 361 488 335 488 c 0
 328 488 323 490 317 493 c 2
 184 552 l 2
 160 563 156 576 156 587 c 0
 156 607 171 622 191 622 c 1
 191 622 199 622 210 617 c 2
 343 557 l 2
 357 551 368 546 368 528 c 0
EndSplineSet
EndChar

StartChar: uacute
Encoding: 250 250 186
Width: 525
GlyphClass: 2
Flags: MW
HStem: -6 61<205.5 259.5> 0 21G<389 398 398 471> 370 61<45 126 53 97 314 358> 431 57<53 193.5 126 193.5> 602 20G<334 344>
VStem: 12 154<385 390> 97 69<114 120 120 370 370 370> 273 154<385 390 61 415.5> 358 69<157 370 370 370> 358 154<15.5 370>
LayerCount: 2
Fore
SplineSet
512 31 m 0xac40
 512 0 487 0 471 0 c 2
 398 0 l 2x5c40
 380 0 359 0 358 32 c 1
 321 4 280 -6 239 -6 c 0
 166 -6 97 18 97 114 c 2
 97 370 l 1xaa40
 52 370 l 2
 38 370 12 370 12 400 c 0
 12 431 37 431 53 431 c 2
 126 431 l 2
 160 431 166 421 166 390 c 2
 166 120 l 2
 166 88 166 55 245 55 c 0
 277 55 358 67 358 157 c 2
 358 370 l 1xac80
 313 370 l 2
 299 370 273 370 273 400 c 0
 273 431 298 431 314 431 c 2
 387 431 l 2
 421 431 427 421 427 390 c 2
 427 61 l 1xad
 472 61 l 2
 486 61 512 61 512 31 c 0xac40
369 587 m 0
 369 576 365 563 341 552 c 2
 208 493 l 2
 202 490 197 488 190 488 c 0
 164 488 157 520 157 528 c 0
 157 546 168 551 182 557 c 2
 315 617 l 2
 326 622 334 622 334 622 c 1
 354 622 369 607 369 587 c 0
EndSplineSet
EndChar

StartChar: ucircumflex
Encoding: 251 251 187
Width: 525
GlyphClass: 2
Flags: MW
HStem: -6 61<205.5 259.5> 0 21G<389 398 398 471> 370 61<45 126 53 97 314 358>
VStem: 12 154<385 390> 97 69<114 120 120 370 370 370> 273 154<385 390 61 415.5> 358 69<157 370 370 370> 358 154<15.5 370>
LayerCount: 2
Fore
SplineSet
512 31 m 0xb1
 512 0 487 0 471 0 c 2
 398 0 l 2x71
 380 0 359 0 358 32 c 1
 321 4 280 -6 239 -6 c 0
 166 -6 97 18 97 114 c 2
 97 370 l 1xa9
 52 370 l 2
 38 370 12 370 12 400 c 0
 12 431 37 431 53 431 c 2
 126 431 l 2
 160 431 166 421 166 390 c 2
 166 120 l 2
 166 88 166 55 245 55 c 0
 277 55 358 67 358 157 c 2
 358 370 l 1xb2
 313 370 l 2
 299 370 273 370 273 400 c 0
 273 431 298 431 314 431 c 2
 387 431 l 2
 421 431 427 421 427 390 c 2
 427 61 l 1xb4
 472 61 l 2
 486 61 512 61 512 31 c 0xb1
397 542 m 2
 430 521 399 473 366 493 c 2
 263 555 l 1
 160 493 l 2
 127 473 96 522 129 543 c 2
 247 618 l 2
 256 624 268 624 277 618 c 2
 397 542 l 2
EndSplineSet
EndChar

StartChar: udieresis
Encoding: 252 252 188
Width: 525
GlyphClass: 2
Flags: MW
HStem: -6 61<205.5 259.5> 0 21G<389 398 398 471> 370 61<45 126 53 97 314 358> 510 90<167.5 192.5 332.5 357.5>
VStem: 12 154<385 390> 97 69<114 120 120 370 370 370> 135 90<542.5 568> 273 154<385 390 61 415.5> 300 90<542.5 568> 358 69<157 370 370 370> 358 154<15.5 370>
LayerCount: 2
Fore
SplineSet
512 31 m 0xb820
 512 0 487 0 471 0 c 2
 398 0 l 2x7220
 380 0 359 0 358 32 c 1
 321 4 280 -6 239 -6 c 0
 166 -6 97 18 97 114 c 2
 97 370 l 1xb420
 52 370 l 2
 38 370 12 370 12 400 c 0
 12 431 37 431 53 431 c 2
 126 431 l 2
 160 431 166 421 166 390 c 2
 166 120 l 2
 166 88 166 55 245 55 c 0
 277 55 358 67 358 157 c 2
 358 370 l 1xb840
 313 370 l 2
 299 370 273 370 273 400 c 0
 273 431 298 431 314 431 c 2
 387 431 l 2
 421 431 427 421 427 390 c 2
 427 61 l 1xb9
 472 61 l 2
 486 61 512 61 512 31 c 0xb820
225 555 m 0
 225 530 205 510 180 510 c 0
 155 510 135 530 135 555 c 0
 135 581 155 600 180 600 c 0
 205 600 225 581 225 555 c 0
390 555 m 0xb880
 390 530 370 510 345 510 c 0
 320 510 300 530 300 555 c 0
 300 581 320 600 345 600 c 0
 370 600 390 581 390 555 c 0xb880
EndSplineSet
EndChar

StartChar: yacute
Encoding: 253 253 189
Width: 525
GlyphClass: 2
Flags: MW
HStem: -228 126<73.5 176> 370 61<58.5 183 66 97 158 158 158 183 343 371 430 460 430 430> 431 57<177 183 183 191> 602 20G<334 344>
VStem: 26 197<385 415.5> 43 87<-151.5 -133> 303 197<385.5 415.5 385 416>
LayerCount: 2
Fore
SplineSet
500 400 m 0xda
 500 370 475 370 460 370 c 2
 430 370 l 1
 275 -85 l 2
 271 -96 226 -228 126 -228 c 0
 77 -228 43 -188 43 -146 c 0
 43 -120 60 -102 87 -102 c 0
 112 -102 130 -120 130 -145 c 0xd6
 130 -158 125 -167 125 -167 c 1
 140 -166 176 -164 205 -109 c 0
 218 -84 243 0 243 0 c 1
 243 0 243 3 239 13 c 2
 97 370 l 1
 66 370 l 2
 51 370 26 370 26 400 c 0
 26 431 50 431 66 431 c 2
 183 431 l 2
 199 431 223 431 223 400 c 0
 223 370 198 370 183 370 c 2
 158 370 l 1
 251 130 l 2
 258 111 267 90 272 71 c 1
 273 71 l 1
 280 102 286 120 299 157 c 2
 371 370 l 1
 343 370 l 2
 327 370 303 370 303 401 c 0
 303 431 328 431 343 431 c 2
 460 431 l 2
 476 431 500 431 500 400 c 0xda
369 587 m 0
 369 576 365 563 341 552 c 2
 208 493 l 2
 202 490 197 488 190 488 c 0xba
 164 488 157 520 157 528 c 0
 157 546 168 551 182 557 c 2
 315 617 l 2
 326 622 334 622 334 622 c 1
 354 622 369 607 369 587 c 0
EndSplineSet
EndChar

StartChar: thorn
Encoding: 254 254 190
Width: 525
GlyphClass: 2
Flags: MW
HStem: -222 61<45 97 53 97 166 210 210 211> -6 61<266 314 240 336.5> 376 61<269 324> 550 61<45 126 53 97>
VStem: 12 154<-207 45 565 570> 97 69<-161 45 167 191 191 264 388 550 550 550> 97 154<-207 550> 419 69<168 259.5>
LayerCount: 2
Fore
SplineSet
488 216 m 0xf9
 488 89 391 -6 282 -6 c 0
 250 -6 207 3 166 45 c 1
 166 -161 l 1xf9
 210 -161 l 2
 226 -161 251 -161 251 -192 c 0xf3
 251 -222 225 -222 211 -222 c 2
 52 -222 l 2
 38 -222 12 -222 12 -192 c 0xf9
 12 -161 37 -161 53 -161 c 2
 97 -161 l 1
 97 550 l 1xf5
 52 550 l 2
 38 550 12 550 12 580 c 0
 12 611 37 611 53 611 c 2
 126 611 l 2
 160 611 166 601 166 570 c 2
 166 388 l 1
 200 419 245 437 293 437 c 0
 399 437 488 339 488 216 c 0xf9
419 216 m 0
 419 303 361 376 287 376 c 0
 224 376 166 323 166 264 c 2
 166 191 l 2
 166 143 201 55 279 55 c 0
 349 55 419 120 419 216 c 0
EndSplineSet
EndChar

StartChar: ydieresis
Encoding: 255 255 191
Width: 525
GlyphClass: 2
Flags: MW
HStem: -228 126<73.5 176> 370 61<58.5 183 66 97 158 158 158 183 343 371 430 460 430 430> 510 90<167.5 192.5 332.5 357.5>
VStem: 26 197<385 415.5> 43 87<-151.5 -133> 135 88 303 87 303 197<385.5 415.5 385 416>
LayerCount: 2
Fore
SplineSet
500 400 m 0xf1
 500 370 475 370 460 370 c 2
 430 370 l 1
 275 -85 l 2
 271 -96 226 -228 126 -228 c 0
 77 -228 43 -188 43 -146 c 0
 43 -120 60 -102 87 -102 c 0
 112 -102 130 -120 130 -145 c 0xed
 130 -158 125 -167 125 -167 c 1
 140 -166 176 -164 205 -109 c 0
 218 -84 243 0 243 0 c 1
 243 0 243 3 239 13 c 2
 97 370 l 1
 66 370 l 2
 51 370 26 370 26 400 c 0
 26 431 50 431 66 431 c 2
 183 431 l 2
 199 431 223 431 223 400 c 0
 223 370 198 370 183 370 c 2
 158 370 l 1
 251 130 l 2
 258 111 267 90 272 71 c 1
 273 71 l 1
 280 102 286 120 299 157 c 2
 371 370 l 1
 343 370 l 2
 327 370 303 370 303 401 c 0
 303 431 328 431 343 431 c 2
 460 431 l 2
 476 431 500 431 500 400 c 0xf1
225 555 m 0
 225 530 205 510 180 510 c 0
 155 510 135 530 135 555 c 0
 135 581 155 600 180 600 c 0
 205 600 225 581 225 555 c 0
390 555 m 0xf2
 390 530 370 510 345 510 c 0
 320 510 300 530 300 555 c 0
 300 581 320 600 345 600 c 0
 370 600 390 581 390 555 c 0xf2
EndSplineSet
EndChar

StartChar: Amacron
Encoding: 256 256 192
Width: 525
GlyphClass: 2
Flags: MW
HStem: 0 61<61.5 87 80 87 158 172 348 352 352 366 437 444.5> 165 61<196 328 196 343 181 328> 683 63<114 115 115 412>
VStem: 27 187<15 36.5> 310 187<15 36.5 15 45.5>
LayerCount: 2
Fore
SplineSet
497 30 m 0
 497 0 471 0 454 0 c 2
 352 0 l 2
 334 0 310 0 310 30 c 0
 310 61 330 61 366 61 c 1
 343 165 l 1
 181 165 l 1
 158 61 l 1
 194 61 214 61 214 30 c 0
 214 0 190 0 172 0 c 2
 70 0 l 2
 53 0 27 0 27 30 c 0
 27 43 33 53 44 59 c 1
 50 61 73 61 87 61 c 1
 208 585 l 2
 217 623 233 623 262 623 c 0
 293 623 307 622 316 584 c 2
 437 61 l 1
 452 61 474 61 480 58 c 0
 492 53 497 43 497 30 c 0
328 226 m 1
 262 540 l 1
 196 226 l 1
 328 226 l 1
452 714 m 0
 452 683 428 683 412 683 c 2
 115 683 l 2
 98 683 74 683 74 715 c 0
 74 746 98 746 114 746 c 2
 412 746 l 2
 429 746 452 746 452 714 c 0
EndSplineSet
EndChar

StartChar: amacron
Encoding: 257 257 193
Width: 525
GlyphClass: 2
Flags: MW
HStem: -6 67 0 21G<450 483> 218 59<350 350> 379 61<217.5 260> 524 63<114 115 115 412>
VStem: 50 69<108.5 152.5 108.5 176> 76 89<367 371 367 403.5> 350 69<134 218 218 218 277 285 69 312.5>
LayerCount: 2
Fore
SplineSet
519 31 m 0xbb
 519 0 497 0 469 0 c 0x7d
 431 0 383 1 361 32 c 1
 314 1 252 -6 215 -6 c 0
 113 -6 50 59 50 128 c 0xbd
 50 224 173 274 350 277 c 1
 350 348 298 379 222 379 c 0
 213 379 200 379 186 378 c 0
 166 376 165 375 165 367 c 0
 164 330 136 321 121 321 c 0
 97 321 76 337 76 367 c 0
 76 440 178 440 221 440 c 0
 365 440 419 356 419 285 c 2
 419 69 l 1
 427 66 437 61 479 61 c 0
 494 61 519 61 519 31 c 0xbb
350 134 m 2
 350 218 l 1
 205 214 119 177 119 128 c 0
 119 89 160 55 222 55 c 0
 230 55 275 55 311 72 c 0
 350 90 350 111 350 134 c 2
452 555 m 0
 452 524 428 524 412 524 c 2
 115 524 l 2
 98 524 74 524 74 556 c 0
 74 587 98 587 114 587 c 2
 412 587 l 2
 429 587 452 587 452 555 c 0
EndSplineSet
EndChar

StartChar: Abreve
Encoding: 258 258 194
Width: 525
GlyphClass: 2
Flags: MW
HStem: 0 61<61.5 87 80 87 158 172 348 352 352 366 437 444.5> 165 61<196 328 196 343 181 328> 673 64<241.5 284 241.5 296> 673 113<108.5 296>
VStem: 27 187<15 36.5> 310 187<15 36.5 15 45.5>
LayerCount: 2
Fore
SplineSet
497 30 m 0xdc
 497 0 471 0 454 0 c 2
 352 0 l 2
 334 0 310 0 310 30 c 0
 310 61 330 61 366 61 c 1
 343 165 l 1
 181 165 l 1
 158 61 l 1
 194 61 214 61 214 30 c 0
 214 0 190 0 172 0 c 2
 70 0 l 2
 53 0 27 0 27 30 c 0
 27 43 33 53 44 59 c 1
 50 61 73 61 87 61 c 1
 208 585 l 2
 217 623 233 623 262 623 c 0
 293 623 307 622 316 584 c 2
 437 61 l 1
 452 61 474 61 480 58 c 0
 492 53 497 43 497 30 c 0xdc
328 226 m 1
 262 540 l 1
 196 226 l 1
 328 226 l 1
439 755 m 0
 439 673 329 673 263 673 c 0
 197 673 87 673 87 755 c 0
 87 774 99 786 118 786 c 0xdc
 142 786 146 769 148 757 c 0
 153 737 220 737 263 737 c 0xec
 305 737 373 737 378 757 c 0
 380 769 384 786 408 786 c 0
 428 786 439 774 439 755 c 0
EndSplineSet
EndChar

StartChar: abreve
Encoding: 259 259 195
Width: 525
GlyphClass: 2
Flags: MW
HStem: -6 67 0 21G<450 483> 218 59<350 350> 379 61<217.5 260> 499 64<241.5 284 241.5 296> 499 113<108.5 296>
VStem: 50 69<108.5 152.5 108.5 176> 76 89<367 371 367 403.5> 350 69<134 218 218 218 277 285 69 312.5>
LayerCount: 2
Fore
SplineSet
519 31 m 0xb980
 519 0 497 0 469 0 c 0x7680
 431 0 383 1 361 32 c 1
 314 1 252 -6 215 -6 c 0
 113 -6 50 59 50 128 c 0xba80
 50 224 173 274 350 277 c 1
 350 348 298 379 222 379 c 0
 213 379 200 379 186 378 c 0
 166 376 165 375 165 367 c 0
 164 330 136 321 121 321 c 0
 97 321 76 337 76 367 c 0
 76 440 178 440 221 440 c 0
 365 440 419 356 419 285 c 2
 419 69 l 1
 427 66 437 61 479 61 c 0
 494 61 519 61 519 31 c 0xb980
350 134 m 2
 350 218 l 1
 205 214 119 177 119 128 c 0
 119 89 160 55 222 55 c 0
 230 55 275 55 311 72 c 0
 350 90 350 111 350 134 c 2
439 581 m 0
 439 499 329 499 263 499 c 0
 197 499 87 499 87 581 c 0
 87 600 99 612 118 612 c 0xb680
 142 612 146 595 148 583 c 0
 153 563 220 563 263 563 c 0xba80
 305 563 373 563 378 583 c 0
 380 595 384 612 408 612 c 0
 428 612 439 600 439 581 c 0
EndSplineSet
EndChar

StartChar: Aogonek
Encoding: 260 260 196
Width: 525
GlyphClass: 2
Flags: MW
HStem: -203 54<381 400 381 405> 0 61<61.5 87 80 87 158 172 348 352 437 444.5> 165 61<196 328 196 343 181 328> 603 20G<247.5 277.5>
VStem: 27 187<15 36.5> 287 59<-122 -88.5 -122 -84.5> 310 36 310 187<15 36.5 15 45.5>
LayerCount: 2
Fore
SplineSet
497 30 m 0xfa
 497 0 471 0 454 0 c 2
 433 0 l 1
 380 -31 346 -67 346 -110 c 0
 346 -134 372 -149 390 -149 c 0
 410 -149 433 -128 444 -112 c 1
 450 -106 472 -102 481 -107 c 1
 489 -114 493 -135 486 -144 c 0
 462 -177 424 -203 386 -203 c 0
 323 -203 287 -151 287 -108 c 0xfc
 287 -61 313 -25 352 0 c 1
 334 0 310 0 310 30 c 0
 310 61 330 61 366 61 c 1
 343 165 l 1
 181 165 l 1
 158 61 l 1
 194 61 214 61 214 30 c 0
 214 0 190 0 172 0 c 2
 70 0 l 2
 53 0 27 0 27 30 c 0
 27 43 33 53 44 59 c 1
 50 61 73 61 87 61 c 1
 208 585 l 2
 217 623 233 623 262 623 c 0
 293 623 307 622 316 584 c 2
 437 61 l 1
 452 61 474 61 480 58 c 0
 492 53 497 43 497 30 c 0xfa
328 226 m 1
 262 540 l 1
 196 226 l 1
 328 226 l 1
EndSplineSet
EndChar

StartChar: aogonek
Encoding: 261 261 197
Width: 525
GlyphClass: 2
Flags: MW
HStem: -203 54<412 431 412 436> -6 67 0 21G<469 483> 218 59<350 350> 379 61<217.5 260>
VStem: 50 69<108.5 152.5 108.5 176> 76 89<367 371 367 403.5> 318 59<-122 -88.5 -122 -84.5> 318 201<-129.5 46> 350 69<134 218 218 218 277 285 69 312.5>
LayerCount: 2
Fore
SplineSet
519 31 m 0xdc80
 519 0 497 0 469 0 c 1xbc80
 416 -31 377 -67 377 -110 c 0
 377 -134 403 -149 421 -149 c 0
 441 -149 464 -128 475 -112 c 1
 481 -106 503 -102 512 -107 c 1
 520 -114 524 -135 517 -144 c 0
 493 -177 455 -203 417 -203 c 0
 354 -203 318 -151 318 -108 c 0
 318 -61 355 -16 394 9 c 1
 381 13 369 21 361 32 c 1
 314 1 252 -6 215 -6 c 0
 113 -6 50 59 50 128 c 0xdd
 50 224 173 274 350 277 c 1
 350 348 298 379 222 379 c 0
 213 379 200 379 186 378 c 0
 166 376 165 375 165 367 c 0
 164 330 136 321 121 321 c 0
 97 321 76 337 76 367 c 0
 76 440 178 440 221 440 c 0
 365 440 419 356 419 285 c 2
 419 69 l 1xda40
 427 66 437 61 479 61 c 0
 494 61 519 61 519 31 c 0xdc80
350 134 m 2xdc40
 350 218 l 1
 205 214 119 177 119 128 c 0
 119 89 160 55 222 55 c 0
 230 55 275 55 311 72 c 0
 350 90 350 111 350 134 c 2xdc40
EndSplineSet
EndChar

StartChar: Cacute
Encoding: 262 262 198
Width: 525
GlyphClass: 2
Flags: MW
HStem: -11 61<240.5 306.5 240.5 340> 401 221<445 466.5> 561 61<240.5 306.5 216.5 315> 622 51<216.5 220.5 204 306.5> 787 20G<361 371>
VStem: 40 69<231 380.5 231 397> 415 69
LayerCount: 2
Fore
SplineSet
484 168 m 0xae
 484 78 398 -11 282 -11 c 0
 152 -11 40 123 40 306 c 0
 40 488 152 622 281 622 c 0
 332 622 378 602 411 574 c 1
 424 599 424 601 426 605 c 0
 431 612 436 622 454 622 c 0
 484 622 484 597 484 581 c 2
 484 442 l 2
 484 422 484 401 449 401 c 0xce
 419 401 417 417 414 434 c 0
 400 515 345 561 285 561 c 0
 196 561 109 455 109 306 c 0
 109 156 195 50 286 50 c 0
 327 50 408 74 415 172 c 0
 417 201 440 201 449 201 c 0
 460 201 484 201 484 168 c 0xae
396 772 m 0
 396 761 392 748 368 737 c 2
 235 678 l 2
 229 675 224 673 217 673 c 0x9e
 191 673 184 705 184 713 c 0
 184 731 195 736 209 742 c 2
 342 802 l 2
 353 807 361 807 361 807 c 1
 381 807 396 792 396 772 c 0
EndSplineSet
EndChar

StartChar: cacute
Encoding: 263 263 199
Width: 525
GlyphClass: 2
Flags: MW
HStem: -6 61<256.5 336 256.5 362.5> 321 119<219 421> 379 61<237.5 315.5> 440 48<219 220.5 204 327.5> 602 20G<361 371>
VStem: 73 69<170.5 240 170.5 260>
LayerCount: 2
Fore
SplineSet
466 109 m 0xac
 466 92 432 -6 293 -6 c 0
 167 -6 73 96 73 216 c 0
 73 304 133 440 305 440 c 0
 350 440 454 440 454 367 c 0
 454 338 433 321 409 321 c 0xcc
 385 321 366 335 365 370 c 0
 365 379 326 379 305 379 c 0
 170 379 142 264 142 216 c 0
 142 125 214 55 299 55 c 0
 373 55 392 102 398 115 c 1
 405 135 415 137 431 137 c 0
 437 137 466 137 466 109 c 0xac
396 587 m 0
 396 576 392 563 368 552 c 2
 235 493 l 2
 229 490 224 488 217 488 c 0x9c
 191 488 184 520 184 528 c 0
 184 546 195 551 209 557 c 2
 342 617 l 2
 353 622 361 622 361 622 c 1
 381 622 396 607 396 587 c 0
EndSplineSet
EndChar

StartChar: Ccircumflex
Encoding: 264 264 200
Width: 525
GlyphClass: 2
Flags: MW
HStem: -11 61<240.5 306.5 240.5 340> 401 221<445 466.5> 561 61<240.5 306.5 216.5 315>
VStem: 40 69<231 380.5 231 397> 415 69
LayerCount: 2
Fore
SplineSet
484 168 m 0xb8
 484 78 398 -11 282 -11 c 0
 152 -11 40 123 40 306 c 0
 40 488 152 622 281 622 c 0
 332 622 378 602 411 574 c 1
 424 599 424 601 426 605 c 0
 431 612 436 622 454 622 c 0
 484 622 484 597 484 581 c 2
 484 442 l 2
 484 422 484 401 449 401 c 0xd8
 419 401 417 417 414 434 c 0
 400 515 345 561 285 561 c 0
 196 561 109 455 109 306 c 0
 109 156 195 50 286 50 c 0
 327 50 408 74 415 172 c 0
 417 201 440 201 449 201 c 0
 460 201 484 201 484 168 c 0xb8
418 721 m 2
 453 708 435 654 399 665 c 2
 290 698 l 1
 181 665 l 2
 145 654 127 708 163 721 c 2
 281 764 l 2
 287 766 294 766 300 764 c 2
 418 721 l 2
EndSplineSet
EndChar

StartChar: ccircumflex
Encoding: 265 265 201
Width: 525
GlyphClass: 2
Flags: MW
HStem: -6 61<256.5 336 256.5 362.5> 321 119<219 421> 379 61<237.5 315.5>
VStem: 73 69<170.5 240 170.5 260>
LayerCount: 2
Fore
SplineSet
466 109 m 0xb0
 466 92 432 -6 293 -6 c 0
 167 -6 73 96 73 216 c 0
 73 304 133 440 305 440 c 0
 350 440 454 440 454 367 c 0
 454 338 433 321 409 321 c 0xd0
 385 321 366 335 365 370 c 0
 365 379 326 379 305 379 c 0
 170 379 142 264 142 216 c 0
 142 125 214 55 299 55 c 0
 373 55 392 102 398 115 c 1
 405 135 415 137 431 137 c 0
 437 137 466 137 466 109 c 0xb0
424 542 m 2
 457 521 426 473 393 493 c 2
 290 555 l 1
 187 493 l 2
 154 473 123 522 156 543 c 2
 274 618 l 2
 283 624 295 624 304 618 c 2
 424 542 l 2
EndSplineSet
EndChar

StartChar: Cdotaccent
Encoding: 266 266 202
Width: 525
GlyphClass: 2
Flags: MW
HStem: -11 61<240.5 306.5 240.5 340> 401 221<445 466.5> 561 61<240.5 306.5 216.5 315> 674 100<276 304>
VStem: 40 69<231 380.5 231 397> 240 100<710 738> 415 69
LayerCount: 2
Fore
SplineSet
484 168 m 0xbe
 484 78 398 -11 282 -11 c 0
 152 -11 40 123 40 306 c 0
 40 488 152 622 281 622 c 0
 332 622 378 602 411 574 c 1
 424 599 424 601 426 605 c 0
 431 612 436 622 454 622 c 0
 484 622 484 597 484 581 c 2
 484 442 l 2
 484 422 484 401 449 401 c 0xde
 419 401 417 417 414 434 c 0
 400 515 345 561 285 561 c 0
 196 561 109 455 109 306 c 0
 109 156 195 50 286 50 c 0
 327 50 408 74 415 172 c 0
 417 201 440 201 449 201 c 0
 460 201 484 201 484 168 c 0xbe
340 724 m 0
 340 696 318 674 290 674 c 0
 262 674 240 696 240 724 c 0
 240 752 262 774 290 774 c 0
 318 774 340 752 340 724 c 0
EndSplineSet
EndChar

StartChar: cdotaccent
Encoding: 267 267 203
Width: 525
GlyphClass: 2
Flags: MW
HStem: -6 61<256.5 336 256.5 362.5> 321 119<219 421> 379 61<237.5 315.5> 505 100<276 304>
VStem: 73 69<170.5 240 170.5 260> 240 100<541 569> 240 214<352.5 569>
LayerCount: 2
Fore
SplineSet
466 109 m 0xbc
 466 92 432 -6 293 -6 c 0
 167 -6 73 96 73 216 c 0
 73 304 133 440 305 440 c 0
 350 440 454 440 454 367 c 0
 454 338 433 321 409 321 c 0xda
 385 321 366 335 365 370 c 0
 365 379 326 379 305 379 c 0
 170 379 142 264 142 216 c 0
 142 125 214 55 299 55 c 0
 373 55 392 102 398 115 c 1
 405 135 415 137 431 137 c 0
 437 137 466 137 466 109 c 0xbc
340 555 m 0xdc
 340 527 318 505 290 505 c 0
 262 505 240 527 240 555 c 0
 240 583 262 605 290 605 c 0
 318 605 340 583 340 555 c 0xdc
EndSplineSet
EndChar

StartChar: Ccaron
Encoding: 268 268 204
Width: 525
GlyphClass: 2
Flags: MW
HStem: -11 61<240.5 306.5 240.5 340> 401 221<445 466.5> 561 61<240.5 306.5 216.5 315>
VStem: 40 69<231 380.5 231 397> 415 69
LayerCount: 2
Fore
SplineSet
484 168 m 0xb8
 484 78 398 -11 282 -11 c 0
 152 -11 40 123 40 306 c 0
 40 488 152 622 281 622 c 0
 332 622 378 602 411 574 c 1
 424 599 424 601 426 605 c 0
 431 612 436 622 454 622 c 0
 484 622 484 597 484 581 c 2
 484 442 l 2
 484 422 484 401 449 401 c 0xd8
 419 401 417 417 414 434 c 0
 400 515 345 561 285 561 c 0
 196 561 109 455 109 306 c 0
 109 156 195 50 286 50 c 0
 327 50 408 74 415 172 c 0
 417 201 440 201 449 201 c 0
 460 201 484 201 484 168 c 0xb8
417 708 m 2
 299 665 l 2
 293 663 286 663 280 665 c 2
 162 708 l 2
 127 721 145 775 181 764 c 2
 290 731 l 1
 399 764 l 2
 435 775 453 721 417 708 c 2
EndSplineSet
EndChar

StartChar: ccaron
Encoding: 269 269 205
Width: 525
GlyphClass: 2
Flags: MW
HStem: -6 61<256.5 336 256.5 362.5> 321 119<219 421> 379 61<237.5 315.5>
VStem: 73 69<170.5 240 170.5 260>
LayerCount: 2
Fore
SplineSet
466 109 m 0xb0
 466 92 432 -6 293 -6 c 0
 167 -6 73 96 73 216 c 0
 73 304 133 440 305 440 c 0
 350 440 454 440 454 367 c 0
 454 338 433 321 409 321 c 0xd0
 385 321 366 335 365 370 c 0
 365 379 326 379 305 379 c 0
 170 379 142 264 142 216 c 0
 142 125 214 55 299 55 c 0
 373 55 392 102 398 115 c 1
 405 135 415 137 431 137 c 0
 437 137 466 137 466 109 c 0xb0
424 567 m 2
 306 492 l 2
 297 486 285 486 276 492 c 2
 156 568 l 2
 123 589 154 637 187 617 c 2
 290 555 l 1
 393 617 l 2
 426 637 457 588 424 567 c 2
EndSplineSet
EndChar

StartChar: Dcaron
Encoding: 270 270 206
Width: 525
GlyphClass: 2
Flags: MW
HStem: 0 61<52.5 82 60 82 151 247 247 266> 550 61<52.5 266 60 82 151 151 151 247>
VStem: 19 132<15 550 61 595.5> 82 69<61 550 61 550> 416 69<242.5 359>
LayerCount: 2
Fore
SplineSet
485 301 m 0xe8
 485 140 397 0 266 0 c 2
 60 0 l 2
 45 0 19 0 19 30 c 0xe8
 19 61 44 61 60 61 c 2
 82 61 l 1
 82 550 l 1xd8
 60 550 l 2
 45 550 19 550 19 580 c 0
 19 611 44 611 60 611 c 2
 266 611 l 2
 399 611 485 461 485 301 c 0xe8
416 301 m 0
 416 417 360 550 247 550 c 2
 151 550 l 1
 151 61 l 1
 247 61 l 2
 358 61 416 184 416 301 c 0
327 708 m 2
 209 665 l 2
 203 663 196 663 190 665 c 2
 72 708 l 2
 37 721 55 775 91 764 c 2
 200 731 l 1
 309 764 l 2
 345 775 363 721 327 708 c 2
EndSplineSet
EndChar

StartChar: dcaron
Encoding: 271 271 207
Width: 525
GlyphClass: 2
Flags: MW
HStem: -6 61<200.5 260> 0 21G<378 398 398 471> 376 61<210 262.5 186.5 277> 413 198<314 502> 517 94<515.5 530> 550 61<306 387 314 358>
VStem: 36 69<170.5 263 170.5 278.5> 273 154<565 570 61 595.5> 358 69<32 570 194 265 265 292.5 392 550 550 550> 358 154<32 46 15.5 50 15.5 265> 466 125<431.5 559> 481 110<550.5 559 495 577>
LayerCount: 2
Fore
SplineSet
512 31 m 0xaa40
 512 0 487 0 471 0 c 2
 398 0 l 2x6a40
 358 0 358 14 358 50 c 1
 330 21 288 -6 232 -6 c 0
 126 -6 36 91 36 215 c 0
 36 342 132 437 241 437 c 0
 284 437 325 421 358 392 c 1
 358 550 l 1
 313 550 l 2xa6a0
 299 550 273 550 273 580 c 0
 273 611 298 611 314 611 c 2
 387 611 l 2
 421 611 427 601 427 570 c 2
 427 61 l 1x9320
 472 61 l 2
 486 61 512 61 512 31 c 0xaa40
358 194 m 2
 358 265 l 2
 358 320 309 376 245 376 c 0
 175 376 105 311 105 215 c 0
 105 126 165 55 236 55 c 0xaa90
 313 55 358 138 358 194 c 2
591 536 m 0
 591 454 514 413 490 413 c 0x9310
 478 413 466 426 466 437 c 0xab20
 466 452 480 456 487 458 c 0
 496 461 532 473 543 520 c 1
 538 518 532 517 528 517 c 0
 503 517 481 536 481 565 c 0
 481 589 499 611 529 611 c 0xab10
 562 611 591 582 591 536 c 0
EndSplineSet
EndChar

StartChar: Dcroat
Encoding: 272 272 208
Width: 525
GlyphClass: 2
Flags: MW
HStem: 0 61<52.5 82 60 82 151 247 247 266> 275 62<45.5 82 54 82 151 210> 550 61<52.5 266 60 82 151 151 151 247>
VStem: 19 132<15 275> 82 69<61 275 61 275 337 550> 82 159<61 314.5 275 314.5 297 550> 416 69<242.5 359>
LayerCount: 2
Fore
SplineSet
485 301 m 0xf2
 485 140 397 0 266 0 c 2
 60 0 l 2
 45 0 19 0 19 30 c 0xf2
 19 61 44 61 60 61 c 2
 82 61 l 1
 82 275 l 1
 54 275 l 2
 37 275 23 288 23 306 c 0
 23 323 37 337 54 337 c 2
 82 337 l 1
 82 550 l 1xea
 60 550 l 2
 45 550 19 550 19 580 c 0
 19 611 44 611 60 611 c 2
 266 611 l 2
 399 611 485 461 485 301 c 0xf2
416 301 m 0
 416 417 360 550 247 550 c 2
 151 550 l 1
 151 337 l 1xf2
 210 337 l 2
 227 337 241 323 241 306 c 0xe6
 241 288 227 275 210 275 c 2
 151 275 l 1
 151 61 l 1
 247 61 l 2
 358 61 416 184 416 301 c 0
EndSplineSet
EndChar

StartChar: dcroat
Encoding: 273 273 209
Width: 525
GlyphClass: 2
Flags: MW
HStem: -6 61<200.5 260> 0 21G<378 398 398 471> 376 61<210 262.5 186.5 277> 459 62<201.5 358 210 358 427 477> 550 61<306 387 314 358>
VStem: 36 69<170.5 263 170.5 278.5> 179 248<61 498.5> 273 154<565 570 61 595.5> 358 69<32 459 194 265 265 292.5 392 459 61 459 521 550 550 550> 358 154<32 46 15.5 50 15.5 265>
LayerCount: 2
Fore
SplineSet
512 31 m 0xbc40
 512 0 487 0 471 0 c 2
 398 0 l 2x7c40
 358 0 358 14 358 50 c 1
 330 21 288 -6 232 -6 c 0
 126 -6 36 91 36 215 c 0
 36 342 132 437 241 437 c 0
 284 437 325 421 358 392 c 1
 358 459 l 1xbc80
 210 459 l 2
 193 459 179 473 179 490 c 0xbe
 179 507 193 521 210 521 c 2
 358 521 l 1
 358 550 l 1xbc80
 313 550 l 2
 299 550 273 550 273 580 c 0xbd
 273 611 298 611 314 611 c 2
 387 611 l 2
 421 611 427 601 427 570 c 2
 427 521 l 1
 477 521 l 2
 494 521 508 507 508 490 c 0
 508 473 494 459 477 459 c 2
 427 459 l 1
 427 61 l 1xbe
 472 61 l 2
 486 61 512 61 512 31 c 0xbc40
358 194 m 2
 358 265 l 2
 358 320 309 376 245 376 c 0
 175 376 105 311 105 215 c 0
 105 126 165 55 236 55 c 0xbc80
 313 55 358 138 358 194 c 2
EndSplineSet
EndChar

StartChar: Emacron
Encoding: 274 274 210
Width: 525
GlyphClass: 2
Flags: MW
HStem: 0 61<59.5 97 67 97 166 433> 0 171<450.5 462> 229 118<166 349> 286 61<166 297 166 297> 286 118<166 349> 456 155<428 440 440 457 67 462.5> 550 61<59.5 440 67 97 166 166 166 411> 683 63<114 115 115 412>
VStem: 26 140<15 286> 97 69<61 286 347 550> 297 69<265.5 270 270 286 347 363> 411 69<497 550 550 550> 433 69<61 130>
LayerCount: 2
Fore
SplineSet
502 41 m 2x65a8
 502 9 495 0 462 0 c 2
 67 0 l 2
 52 0 26 0 26 30 c 0xa5a8
 26 61 51 61 67 61 c 2
 97 61 l 1
 97 550 l 1
 67 550 l 2xa370
 52 550 26 550 26 581 c 0
 26 611 52 611 67 611 c 2
 440 611 l 2
 474 611 480 601 480 570 c 2
 480 497 l 2
 480 477 480 456 445 456 c 0xa5b0
 411 456 411 478 411 497 c 2
 411 550 l 1
 166 550 l 1
 166 347 l 1
 297 347 l 1xa3b0
 297 388 297 404 332 404 c 0x8db0
 366 404 366 382 366 363 c 2
 366 270 l 2
 366 251 366 229 332 229 c 0xa5b0
 297 229 297 245 297 286 c 1
 166 286 l 1
 166 61 l 1
 433 61 l 1x95a8
 433 130 l 2
 433 150 433 171 468 171 c 0
 502 171 502 149 502 130 c 2
 502 41 l 2x65a8
452 714 m 0
 452 683 428 683 412 683 c 2
 115 683 l 2
 98 683 74 683 74 715 c 0
 74 746 98 746 114 746 c 2
 412 746 l 2
 429 746 452 746 452 714 c 0
EndSplineSet
EndChar

StartChar: emacron
Encoding: 275 275 211
Width: 525
GlyphClass: 2
Flags: MW
HStem: -6 61<254.5 306 254.5 351> 191 60<127 393 127 424 126 393> 379 61<235 296> 524 63<114 115 115 412>
LayerCount: 2
Fore
SplineSet
464 109 m 0
 464 84 417 -6 285 -6 c 0
 156 -6 55 95 55 217 c 0
 55 340 151 440 270 440 c 0
 400 440 464 342 464 228 c 0
 464 191 445 191 424 191 c 2
 126 191 l 1
 142 105 217 55 292 55 c 0
 320 55 374 64 396 115 c 1
 403 134 411 137 429 137 c 0
 435 137 464 137 464 109 c 0
393 251 m 1
 384 354 322 379 270 379 c 0
 200 379 141 324 127 251 c 1
 393 251 l 1
452 555 m 0
 452 524 428 524 412 524 c 2
 115 524 l 2
 98 524 74 524 74 556 c 0
 74 587 98 587 114 587 c 2
 412 587 l 2
 429 587 452 587 452 555 c 0
EndSplineSet
EndChar

StartChar: Ebreve
Encoding: 276 276 212
Width: 525
GlyphClass: 2
Flags: MW
HStem: 0 61<59.5 97 67 97 166 433> 0 171<450.5 462> 229 118<166 349> 286 61<166 297 166 297> 286 118<166 349> 456 155<428 440 440 457 67 462.5> 550 61<59.5 440 67 97 166 166 166 411> 673 64<241.5 284 241.5 296> 673 113<108.5 296>
VStem: 26 140<15 286> 97 69<61 286 347 550> 297 69<265.5 270 270 286 347 363> 411 69<497 550 550 550> 433 69<61 130>
LayerCount: 2
Fore
SplineSet
502 41 m 2x6554
 502 9 495 0 462 0 c 2
 67 0 l 2
 52 0 26 0 26 30 c 0xa4d4
 26 61 51 61 67 61 c 2
 97 61 l 1
 97 550 l 1
 67 550 l 2xa338
 52 550 26 550 26 581 c 0
 26 611 52 611 67 611 c 2
 440 611 l 2
 474 611 480 601 480 570 c 2
 480 497 l 2
 480 477 480 456 445 456 c 0xa558
 411 456 411 478 411 497 c 2
 411 550 l 1
 166 550 l 1
 166 347 l 1
 297 347 l 1xa358
 297 388 297 404 332 404 c 0x8d58
 366 404 366 382 366 363 c 2
 366 270 l 2
 366 251 366 229 332 229 c 0xa558
 297 229 297 245 297 286 c 1
 166 286 l 1
 166 61 l 1
 433 61 l 1x9554
 433 130 l 2
 433 150 433 171 468 171 c 0
 502 171 502 149 502 130 c 2
 502 41 l 2x6554
439 755 m 0
 439 673 329 673 263 673 c 0
 197 673 87 673 87 755 c 0
 87 774 99 786 118 786 c 0xa4d8
 142 786 146 769 148 757 c 0
 153 737 220 737 263 737 c 0xa558
 305 737 373 737 378 757 c 0
 380 769 384 786 408 786 c 0
 428 786 439 774 439 755 c 0
EndSplineSet
EndChar

StartChar: ebreve
Encoding: 277 277 213
Width: 525
GlyphClass: 2
Flags: MW
HStem: -6 61<254.5 306 254.5 351> 191 60<127 393 127 424 126 393> 379 61<235 296> 499 64<241.5 284 241.5 296> 499 113<108.5 296>
LayerCount: 2
Fore
SplineSet
464 109 m 0xe8
 464 84 417 -6 285 -6 c 0
 156 -6 55 95 55 217 c 0
 55 340 151 440 270 440 c 0
 400 440 464 342 464 228 c 0
 464 191 445 191 424 191 c 2
 126 191 l 1
 142 105 217 55 292 55 c 0
 320 55 374 64 396 115 c 1
 403 134 411 137 429 137 c 0
 435 137 464 137 464 109 c 0xe8
393 251 m 1
 384 354 322 379 270 379 c 0
 200 379 141 324 127 251 c 1
 393 251 l 1
439 581 m 0
 439 499 329 499 263 499 c 0
 197 499 87 499 87 581 c 0
 87 600 99 612 118 612 c 0xe8
 142 612 146 595 148 583 c 0
 153 563 220 563 263 563 c 0xf0
 305 563 373 563 378 583 c 0
 380 595 384 612 408 612 c 0
 428 612 439 600 439 581 c 0
EndSplineSet
EndChar

StartChar: Edotaccent
Encoding: 278 278 214
Width: 525
GlyphClass: 2
Flags: MW
HStem: 0 61<59.5 97 67 97 166 433> 0 171<450.5 462> 229 118<166 349> 286 61<166 297 166 297> 286 118<166 349> 456 155<428 440 440 457 67 462.5> 550 61<59.5 440 67 97 166 166 166 411> 674 100<249 277>
VStem: 26 140<15 286> 97 69<61 286 347 550> 213 100<710 738> 297 69<265.5 270 270 286 347 363> 411 69<497 550 550 550> 433 69<61 130>
LayerCount: 2
Fore
SplineSet
502 41 m 2x65a4
 502 9 495 0 462 0 c 2
 67 0 l 2
 52 0 26 0 26 30 c 0xa5a4
 26 61 51 61 67 61 c 2
 97 61 l 1
 97 550 l 1
 67 550 l 2xa368
 52 550 26 550 26 581 c 0
 26 611 52 611 67 611 c 2
 440 611 l 2
 474 611 480 601 480 570 c 2
 480 497 l 2
 480 477 480 456 445 456 c 0xa5a8
 411 456 411 478 411 497 c 2
 411 550 l 1
 166 550 l 1
 166 347 l 1
 297 347 l 1xa398
 297 388 297 404 332 404 c 0x8da8
 366 404 366 382 366 363 c 2
 366 270 l 2
 366 251 366 229 332 229 c 0xa598
 297 229 297 245 297 286 c 1
 166 286 l 1
 166 61 l 1
 433 61 l 1x9594
 433 130 l 2
 433 150 433 171 468 171 c 0
 502 171 502 149 502 130 c 2
 502 41 l 2x65a4
313 724 m 0
 313 696 291 674 263 674 c 0
 235 674 213 696 213 724 c 0
 213 752 235 774 263 774 c 0
 291 774 313 752 313 724 c 0
EndSplineSet
EndChar

StartChar: edotaccent
Encoding: 279 279 215
Width: 525
GlyphClass: 2
Flags: MW
HStem: -6 61<254.5 306 254.5 351> 191 60<127 393 127 424 126 393> 379 61<235 296> 505 100<249 277>
VStem: 213 100<541 569>
LayerCount: 2
Fore
SplineSet
464 109 m 0
 464 84 417 -6 285 -6 c 0
 156 -6 55 95 55 217 c 0
 55 340 151 440 270 440 c 0
 400 440 464 342 464 228 c 0
 464 191 445 191 424 191 c 2
 126 191 l 1
 142 105 217 55 292 55 c 0
 320 55 374 64 396 115 c 1
 403 134 411 137 429 137 c 0
 435 137 464 137 464 109 c 0
393 251 m 1
 384 354 322 379 270 379 c 0
 200 379 141 324 127 251 c 1
 393 251 l 1
313 555 m 0
 313 527 291 505 263 505 c 0
 235 505 213 527 213 555 c 0
 213 583 235 605 263 605 c 0
 291 605 313 583 313 555 c 0
EndSplineSet
EndChar

StartChar: Eogonek
Encoding: 280 280 216
Width: 525
GlyphClass: 2
Flags: MW
HStem: -203 54<381 400 381 405> 0 61<59.5 97 67 97 166 352> 0 171<67 485 450.5 462 433 485> 229 118<166 349> 286 61<166 297 166 297> 286 118<166 349> 456 155<428 440 440 457 67 462.5> 550 61<59.5 440 67 97 166 166 166 411>
VStem: 26 140<15 286> 97 69<61 286 347 550> 297 49 297 69<265.5 270 270 286 347 363> 411 69<497 550 550 550> 433 69<0 41 61 130>
LayerCount: 2
Fore
SplineSet
502 41 m 2xb2a4
 502 9 495 0 462 0 c 2
 433 0 l 1
 380 -31 346 -67 346 -110 c 0
 346 -134 372 -149 390 -149 c 0
 410 -149 433 -128 444 -112 c 1
 450 -106 472 -102 481 -107 c 1
 489 -114 493 -135 486 -144 c 0
 462 -177 424 -203 386 -203 c 0
 323 -203 287 -151 287 -108 c 0
 287 -61 313 -25 352 0 c 1
 67 0 l 2
 52 0 26 0 26 30 c 0xd2a4
 26 61 51 61 67 61 c 2
 97 61 l 1
 97 550 l 1
 67 550 l 2xd168
 52 550 26 550 26 581 c 0
 26 611 52 611 67 611 c 2
 440 611 l 2
 474 611 480 601 480 570 c 2
 480 497 l 2
 480 477 480 456 445 456 c 0xd2a8
 411 456 411 478 411 497 c 2
 411 550 l 1
 166 550 l 1
 166 347 l 1
 297 347 l 1xd1a8
 297 388 297 404 332 404 c 0xc6a8
 366 404 366 382 366 363 c 2
 366 270 l 2
 366 251 366 229 332 229 c 0xd298
 297 229 297 245 297 286 c 1
 166 286 l 1
 166 61 l 1
 433 61 l 1xca94
 433 130 l 2
 433 150 433 171 468 171 c 0
 502 171 502 149 502 130 c 2
 502 41 l 2xb2a4
EndSplineSet
EndChar

StartChar: eogonek
Encoding: 281 281 217
Width: 525
GlyphClass: 2
Flags: MW
HStem: -203 54<301 320 301 325> 191 60<127 393 127 424 126 393> 379 61<235 296>
VStem: 55 211 207 59<-122 -88.5 -122 -84.5>
LayerCount: 2
Fore
SplineSet
464 109 m 0xf0
 464 89 434 28 353 4 c 1
 300 -27 266 -67 266 -110 c 0
 266 -134 292 -149 310 -149 c 0
 330 -149 353 -128 364 -112 c 1
 370 -106 392 -102 401 -107 c 1
 409 -114 413 -135 406 -144 c 0
 382 -177 344 -203 306 -203 c 0
 243 -203 207 -151 207 -108 c 0xe8
 207 -61 225 -30 264 -5 c 1
 145 5 55 102 55 217 c 0
 55 340 151 440 270 440 c 0
 400 440 464 342 464 228 c 0
 464 191 445 191 424 191 c 2
 126 191 l 1
 142 105 217 55 292 55 c 0
 320 55 374 64 396 115 c 1
 403 134 411 137 429 137 c 0
 435 137 464 137 464 109 c 0xf0
393 251 m 1
 384 354 322 379 270 379 c 0
 200 379 141 324 127 251 c 1
 393 251 l 1
EndSplineSet
EndChar

StartChar: Ecaron
Encoding: 282 282 218
Width: 525
GlyphClass: 2
Flags: MW
HStem: 0 61<59.5 97 67 97 166 433> 0 171<450.5 462> 229 118<166 349> 286 61<166 297 166 297> 286 118<166 349> 456 155<428 440 440 457 67 462.5> 550 61<59.5 440 67 97 166 166 166 411>
VStem: 26 140<15 286> 97 69<61 286 347 550> 297 69<265.5 270 270 286 347 363> 411 69<497 550 550 550> 433 69<61 130>
LayerCount: 2
Fore
SplineSet
502 41 m 2x6550
 502 9 495 0 462 0 c 2
 67 0 l 2
 52 0 26 0 26 30 c 0xa550
 26 61 51 61 67 61 c 2
 97 61 l 1
 97 550 l 1
 67 550 l 2xa2e0
 52 550 26 550 26 581 c 0
 26 611 52 611 67 611 c 2
 440 611 l 2
 474 611 480 601 480 570 c 2
 480 497 l 2
 480 477 480 456 445 456 c 0xa560
 411 456 411 478 411 497 c 2
 411 550 l 1
 166 550 l 1
 166 347 l 1
 297 347 l 1xa360
 297 388 297 404 332 404 c 0x8d60
 366 404 366 382 366 363 c 2
 366 270 l 2
 366 251 366 229 332 229 c 0xa560
 297 229 297 245 297 286 c 1
 166 286 l 1
 166 61 l 1
 433 61 l 1x9550
 433 130 l 2
 433 150 433 171 468 171 c 0
 502 171 502 149 502 130 c 2
 502 41 l 2x6550
390 708 m 2
 272 665 l 2
 266 663 259 663 253 665 c 2
 135 708 l 2
 100 721 118 775 154 764 c 2
 263 731 l 1
 372 764 l 2
 408 775 426 721 390 708 c 2
EndSplineSet
EndChar

StartChar: ecaron
Encoding: 283 283 219
Width: 525
GlyphClass: 2
Flags: MW
HStem: -6 61<254.5 306 254.5 351> 191 60<127 393 127 424 126 393> 379 61<235 296>
LayerCount: 2
Fore
SplineSet
464 109 m 0
 464 84 417 -6 285 -6 c 0
 156 -6 55 95 55 217 c 0
 55 340 151 440 270 440 c 0
 400 440 464 342 464 228 c 0
 464 191 445 191 424 191 c 2
 126 191 l 1
 142 105 217 55 292 55 c 0
 320 55 374 64 396 115 c 1
 403 134 411 137 429 137 c 0
 435 137 464 137 464 109 c 0
393 251 m 1
 384 354 322 379 270 379 c 0
 200 379 141 324 127 251 c 1
 393 251 l 1
397 567 m 2
 279 492 l 2
 270 486 258 486 249 492 c 2
 129 568 l 2
 96 589 127 637 160 617 c 2
 263 555 l 1
 366 617 l 2
 399 637 430 588 397 567 c 2
EndSplineSet
EndChar

StartChar: Gcircumflex
Encoding: 284 284 220
Width: 525
GlyphClass: 2
Flags: MW
HStem: -11 61<223.5 289.5> 0 21G<397.5 432> 209 61<328 455 336 378 449 455 455 461> 401 221<408.5 431.5> 561 61<226 282 201 282.5>
VStem: 38 69<231.5 381.5 231.5 396.5> 296 153 296 200<224.5 255>
LayerCount: 2
Fore
SplineSet
496 240 m 0xae
 496 209 473 209 449 209 c 1
 449 41 l 2
 449 22 449 0 415 0 c 0x76
 380 0 380 20 380 42 c 1
 360 19 318 -11 261 -11 c 0
 142 -11 38 122 38 306 c 0
 38 487 141 622 261 622 c 0
 303 622 343 607 378 577 c 1
 393 611 398 622 419 622 c 0
 449 622 449 597 449 581 c 2
 449 442 l 2
 449 422 449 401 414 401 c 0xb6
 388 401 382 413 380 430 c 0
 363 538 300 561 265 561 c 0
 187 561 107 458 107 305 c 0
 107 158 183 50 264 50 c 0
 317 50 366 97 378 209 c 1
 336 209 l 2
 320 209 296 209 296 240 c 0
 296 270 321 270 336 270 c 2
 455 270 l 2
 470 270 496 270 496 240 c 0xae
391 721 m 2
 426 708 408 654 372 665 c 2
 263 698 l 1
 154 665 l 2
 118 654 100 708 136 721 c 2
 254 764 l 2
 260 766 267 766 273 764 c 2
 391 721 l 2
EndSplineSet
EndChar

StartChar: gcircumflex
Encoding: 285 285 221
Width: 525
GlyphClass: 2
Flags: MW
HStem: -229 60<212 312 212 326> 4 57<211 279.5> 116 60<208.5 259 206 279> 347 95<430.5 477.5> 377 65 417 20G<186 256>
VStem: 29 58<-104 -76.5> 68 69<255.5 304.5> 80 57<113 115 113 129> 329 69<248.5 292 232.5 303.5> 329 180<248.5 399.5> 437 58<-104 -63.5 -124.5 -39>
LayerCount: 2
Fore
SplineSet
509 388 m 0xf220
 509 359 486 347 469 347 c 0
 459 347 436 354 430 381 c 1
 417 380 393 376 372 364 c 1
 389 336 398 307 398 277 c 0
 398 188 325 116 233 116 c 0
 184 116 146 139 143 141 c 1
 139 131 137 117 137 113 c 1xf150
 137 113 138 91 149 77 c 0
 161 63 167 63 182 63 c 1
 190 61 203 61 211 61 c 2
 281 61 l 2
 371 61 413 39 426 32 c 0
 477 5 495 -45 495 -82 c 0
 495 -167 390 -229 262 -229 c 0
 134 -229 29 -168 29 -82 c 0xf250
 29 -71 29 -3 103 42 c 1
 94 54 80 79 80 114 c 0xf0d0
 80 144 89 166 100 182 c 1
 85 201 68 234 68 277 c 0
 68 362 139 437 233 437 c 0xe550
 279 437 314 418 330 407 c 1
 376 441 425 442 436 442 c 0
 490 442 509 411 509 388 c 0xf220
329 277 m 0
 329 330 287 377 233 377 c 0
 181 377 137 333 137 276 c 0
 137 223 179 176 233 176 c 0
 285 176 329 220 329 277 c 0
437 -82 m 0xf250
 437 4 324 4 235 4 c 0
 162 4 153 4 128 -12 c 0
 96 -32 87 -64 87 -82 c 0
 87 -126 162 -169 262 -169 c 0
 362 -169 437 -126 437 -82 c 0xf250
361 542 m 2
 394 521 363 473 330 493 c 2
 227 555 l 1
 124 493 l 2
 91 473 60 522 93 543 c 2
 211 618 l 2
 220 624 232 624 241 618 c 2
 361 542 l 2
EndSplineSet
EndChar

StartChar: Gbreve
Encoding: 286 286 222
Width: 525
GlyphClass: 2
Flags: MW
HStem: -11 61<223.5 289.5> 0 21G<397.5 432> 209 61<328 455 336 378 449 455 455 461> 401 221<408.5 431.5> 561 61<226 282 201 282.5> 673 64<241.5 284 241.5 296> 673 113<108.5 296>
VStem: 38 69<231.5 381.5 231.5 396.5> 87 20 296 153 296 200<224.5 255>
LayerCount: 2
Fore
SplineSet
496 240 m 0xad40
 496 209 473 209 449 209 c 1
 449 41 l 2
 449 22 449 0 415 0 c 0x7540
 380 0 380 20 380 42 c 1
 360 19 318 -11 261 -11 c 0
 142 -11 38 122 38 306 c 0
 38 487 141 622 261 622 c 0
 303 622 343 607 378 577 c 1
 393 611 398 622 419 622 c 0
 449 622 449 597 449 581 c 2
 449 442 l 2
 449 422 449 401 414 401 c 0xb540
 388 401 382 413 380 430 c 0
 363 538 300 561 265 561 c 0
 187 561 107 458 107 305 c 0
 107 158 183 50 264 50 c 0
 317 50 366 97 378 209 c 1
 336 209 l 2
 320 209 296 209 296 240 c 0
 296 270 321 270 336 270 c 2
 455 270 l 2
 470 270 496 270 496 240 c 0xad40
439 755 m 0
 439 673 329 673 263 673 c 0
 197 673 87 673 87 755 c 0
 87 774 99 786 118 786 c 0xb2c0
 142 786 146 769 148 757 c 0
 153 737 220 737 263 737 c 0xb540
 305 737 373 737 378 757 c 0
 380 769 384 786 408 786 c 0
 428 786 439 774 439 755 c 0
EndSplineSet
EndChar

StartChar: gbreve
Encoding: 287 287 223
Width: 525
GlyphClass: 2
Flags: MW
HStem: -229 60<212 312 212 326> 4 57<211 279.5> 116 60<208.5 259 206 279> 347 95<430.5 477.5> 377 65 417 20G<186 256> 499 64<205.5 248 205.5 260> 499 113<72.5 260>
VStem: 29 58<-104 -76.5> 51 86 68 69<255.5 304.5> 80 57<113 115 113 129> 329 69<248.5 292 232.5 303.5> 329 180<248.5 399.5> 437 58<-104 -63.5 -124.5 -39>
LayerCount: 2
Fore
SplineSet
509 388 m 0xf284
 509 359 486 347 469 347 c 0
 459 347 436 354 430 381 c 1
 417 380 393 376 372 364 c 1
 389 336 398 307 398 277 c 0
 398 188 325 116 233 116 c 0
 184 116 146 139 143 141 c 1
 139 131 137 117 137 113 c 1xf24a
 137 113 138 91 149 77 c 0
 161 63 167 63 182 63 c 1
 190 61 203 61 211 61 c 2
 281 61 l 2
 371 61 413 39 426 32 c 0
 477 5 495 -45 495 -82 c 0
 495 -167 390 -229 262 -229 c 0
 134 -229 29 -168 29 -82 c 0xf28a
 29 -71 29 -3 103 42 c 1
 94 54 80 79 80 114 c 0xf21a
 80 144 89 166 100 182 c 1
 85 201 68 234 68 277 c 0
 68 362 139 437 233 437 c 0xe62a
 279 437 314 418 330 407 c 1
 376 441 425 442 436 442 c 0
 490 442 509 411 509 388 c 0xf284
329 277 m 0
 329 330 287 377 233 377 c 0
 181 377 137 333 137 276 c 0
 137 223 179 176 233 176 c 0
 285 176 329 220 329 277 c 0
437 -82 m 0xf18a
 437 4 324 4 235 4 c 0
 162 4 153 4 128 -12 c 0
 96 -32 87 -64 87 -82 c 0
 87 -126 162 -169 262 -169 c 0
 362 -169 437 -126 437 -82 c 0xf18a
403 581 m 0
 403 499 293 499 227 499 c 0
 161 499 51 499 51 581 c 0
 51 600 63 612 82 612 c 0xf14a
 106 612 110 595 112 583 c 0
 117 563 184 563 227 563 c 0xf28a
 269 563 337 563 342 583 c 0
 344 595 348 612 372 612 c 0
 392 612 403 600 403 581 c 0
EndSplineSet
EndChar

StartChar: Gdotaccent
Encoding: 288 288 224
Width: 525
GlyphClass: 2
Flags: MW
HStem: -11 61<223.5 289.5> 0 21G<397.5 432> 209 61<328 455 336 378 449 455 455 461> 401 221<408.5 431.5> 561 61<226 282 201 282.5> 674 100<249 277>
VStem: 38 69<231.5 381.5 231.5 396.5> 213 100<710 738> 296 153 296 200<224.5 255>
LayerCount: 2
Fore
SplineSet
496 240 m 0xae80
 496 209 473 209 449 209 c 1
 449 41 l 2
 449 22 449 0 415 0 c 0x7680
 380 0 380 20 380 42 c 1
 360 19 318 -11 261 -11 c 0
 142 -11 38 122 38 306 c 0
 38 487 141 622 261 622 c 0
 303 622 343 607 378 577 c 1
 393 611 398 622 419 622 c 0
 449 622 449 597 449 581 c 2
 449 442 l 2
 449 422 449 401 414 401 c 0xb680
 388 401 382 413 380 430 c 0
 363 538 300 561 265 561 c 0
 187 561 107 458 107 305 c 0
 107 158 183 50 264 50 c 0
 317 50 366 97 378 209 c 1
 336 209 l 2
 320 209 296 209 296 240 c 0
 296 270 321 270 336 270 c 2
 455 270 l 2
 470 270 496 270 496 240 c 0xae80
313 724 m 0xb7
 313 696 291 674 263 674 c 0
 235 674 213 696 213 724 c 0
 213 752 235 774 263 774 c 0
 291 774 313 752 313 724 c 0xb7
EndSplineSet
EndChar

StartChar: gdotaccent
Encoding: 289 289 225
Width: 525
GlyphClass: 2
Flags: MW
HStem: -229 60<212 312 212 326> 4 57<211 279.5> 116 60<208.5 259 206 279> 347 95<430.5 477.5> 377 65 417 20G<186 256> 505 100<213 241>
VStem: 29 58<-104 -76.5> 68 69<255.5 304.5> 80 57<113 115 113 129> 177 100<541 569> 329 69<248.5 292 232.5 303.5> 329 180<248.5 399.5> 437 58<-104 -63.5 -124.5 -39>
LayerCount: 2
Fore
SplineSet
509 388 m 0xf328
 509 359 486 347 469 347 c 0
 459 347 436 354 430 381 c 1
 417 380 393 376 372 364 c 1
 389 336 398 307 398 277 c 0
 398 188 325 116 233 116 c 0
 184 116 146 139 143 141 c 1
 139 131 137 117 137 113 c 1xf2b4
 137 113 138 91 149 77 c 0
 161 63 167 63 182 63 c 1
 190 61 203 61 211 61 c 2
 281 61 l 2
 371 61 413 39 426 32 c 0
 477 5 495 -45 495 -82 c 0
 495 -167 390 -229 262 -229 c 0
 134 -229 29 -168 29 -82 c 0xf334
 29 -71 29 -3 103 42 c 1
 94 54 80 79 80 114 c 0xf274
 80 144 89 166 100 182 c 1
 85 201 68 234 68 277 c 0
 68 362 139 437 233 437 c 0xe6b4
 279 437 314 418 330 407 c 1
 376 441 425 442 436 442 c 0
 490 442 509 411 509 388 c 0xf328
329 277 m 0
 329 330 287 377 233 377 c 0
 181 377 137 333 137 276 c 0
 137 223 179 176 233 176 c 0
 285 176 329 220 329 277 c 0
437 -82 m 0xf334
 437 4 324 4 235 4 c 0
 162 4 153 4 128 -12 c 0
 96 -32 87 -64 87 -82 c 0
 87 -126 162 -169 262 -169 c 0
 362 -169 437 -126 437 -82 c 0xf334
277 555 m 0
 277 527 255 505 227 505 c 0
 199 505 177 527 177 555 c 0
 177 583 199 605 227 605 c 0
 255 605 277 583 277 555 c 0
EndSplineSet
EndChar

StartChar: Gcommaaccent
Encoding: 290 290 226
Width: 525
GlyphClass: 2
Flags: MW
HStem: -231 198<218 279.5> -127 94<249.5 264> -11 61<223.5 289.5> 0 21G<397.5 432> 209 61<328 455 336 378 449 455 455 461> 401 221<408.5 431.5> 561 61<226 282 201 282.5>
VStem: 38 69<231.5 381.5 231.5 396.5> 215 110<-93.5 -85 -149 -67> 296 153 296 200<224.5 255>
LayerCount: 2
Fore
SplineSet
496 240 m 0xab40
 496 209 473 209 449 209 c 1
 449 41 l 2
 449 22 449 0 415 0 c 0x9d40
 380 0 380 20 380 42 c 1
 360 19 318 -11 261 -11 c 0
 142 -11 38 122 38 306 c 0
 38 487 141 622 261 622 c 0
 303 622 343 607 378 577 c 1
 393 611 398 622 419 622 c 0
 449 622 449 597 449 581 c 2
 449 442 l 2
 449 422 449 401 414 401 c 0xad40
 388 401 382 413 380 430 c 0
 363 538 300 561 265 561 c 0
 187 561 107 458 107 305 c 0
 107 158 183 50 264 50 c 0
 317 50 366 97 378 209 c 1
 336 209 l 2
 320 209 296 209 296 240 c 0
 296 270 321 270 336 270 c 2
 455 270 l 2
 470 270 496 270 496 240 c 0xab40
325 -108 m 0x6d80
 325 -190 248 -231 224 -231 c 0
 212 -231 200 -218 200 -207 c 0xad80
 200 -192 214 -188 221 -186 c 0
 230 -183 266 -171 277 -124 c 1
 272 -126 266 -127 262 -127 c 0
 237 -127 215 -108 215 -79 c 0
 215 -55 233 -33 263 -33 c 0
 296 -33 325 -62 325 -108 c 0x6d80
EndSplineSet
EndChar

StartChar: gcommaaccent
Encoding: 291 291 227
Width: 525
GlyphClass: 2
Flags: MW
HStem: -229 60<212 312 212 326> 4 57<211 279.5> 116 60<208.5 259 206 279> 347 95<430.5 477.5> 377 65 417 20G<186 256> 467 94<225 239.5 225 241> 467 198<209.5 271>
VStem: 29 58<-104 -76.5> 68 69<255.5 304.5> 80 57<113 115 113 129> 164 110<519 527.5 501 583> 329 69<248.5 292 232.5 303.5> 329 180<248.5 399.5> 437 58<-104 -63.5 -124.5 -39>
LayerCount: 2
Fore
SplineSet
289 641 m 0xf19a
 289 626 275 622 268 620 c 0
 259 617 223 605 212 558 c 1
 217 560 223 561 227 561 c 0xf294
 252 561 274 542 274 513 c 0
 274 489 256 467 226 467 c 0
 193 467 164 496 164 542 c 0
 164 624 241 665 265 665 c 0
 277 665 289 652 289 641 c 0xf19a
509 388 m 0
 509 359 486 347 469 347 c 0
 459 347 436 354 430 381 c 1
 417 380 393 376 372 364 c 1
 389 336 398 307 398 277 c 0
 398 188 325 116 233 116 c 0
 184 116 146 139 143 141 c 1
 139 131 137 117 137 113 c 1xf25a
 137 113 138 91 149 77 c 0
 161 63 167 63 182 63 c 1
 190 61 203 61 211 61 c 2
 281 61 l 2
 371 61 413 39 426 32 c 0
 477 5 495 -45 495 -82 c 0
 495 -167 390 -229 262 -229 c 0
 134 -229 29 -168 29 -82 c 0xf29a
 29 -71 29 -3 103 42 c 1
 94 54 80 79 80 114 c 0xf23a
 80 144 89 166 100 182 c 1
 85 201 68 234 68 277 c 0
 68 362 139 437 233 437 c 0xe65a
 279 437 314 418 330 407 c 1
 376 441 425 442 436 442 c 0
 490 442 509 411 509 388 c 0
329 277 m 0
 329 330 287 377 233 377 c 0
 181 377 137 333 137 276 c 0
 137 223 179 176 233 176 c 0
 285 176 329 220 329 277 c 0
437 -82 m 0xf29a
 437 4 324 4 235 4 c 0
 162 4 153 4 128 -12 c 0
 96 -32 87 -64 87 -82 c 0
 87 -126 162 -169 262 -169 c 0
 362 -169 437 -126 437 -82 c 0xf29a
EndSplineSet
EndChar

